<?xml version="1.0" encoding="UTF-8"?><!DOCTYPE svg PUBLIC "-//W3C//DTD SVG 1.1//EN" "http://www.w3.org/Graphics/SVG/1.1/DTD/svg11.dtd"><svg xmlns="http://www.w3.org/2000/svg"><symbol id="dogs-allowed" viewBox="0 0 41 35"><title>icon</title><path d="M14.97 23.756h9.6v8.68a2.545 2.545 0 0 0 2.54 2.563c1.4 0 2.54-1.147 2.54-2.563v-8.68c.63 0 1.09-.504 1.09-1.091V16.19l-8.275-3.97 1.022-1.196 7.433 3.692 10.06-6.191.02-5.788-4.69.003L35.06.775 22.79 3.267l4.61 6.698 2.11-1.337V3.723h1.21v5.585l-3.71 2.353-1.83-2.693-1.697 2.05L1.08.008v1.783l21.362 10.427H5.4l-2.21-1.26c-.7-.41-1.6-.159-2 .555-.4.714-.15 1.617.55 2.027l3.48 2.019v16.874c0 1.419 1.14 2.564 2.54 2.564 1.4 0 2.54-1.147 2.54-2.564l-.01-6.609 4.6 7.86a2.524 2.524 0 0 0 3.48.893c1.2-.727 1.6-2.312.88-3.531zM32.98 6.977c-.65 0-1.18-.537-1.18-1.2 0-.663.53-1.199 1.18-1.199.66 0 1.19.536 1.19 1.199-.01.663-.53 1.2-1.19 1.2z"/></symbol><symbol id="historic-site" viewBox="0 0 40 40"><title>icon</title><path d="M10.67 8.667v2.666H9.33V8.667H8v-2.23l5.6-2.43.42-.203L14 2.9 7.6.057C7.56.04 7.52.038 7.48.029c-.05-.01-.1-.028-.14-.028L7.33 0c-.02 0-.05.012-.07.015-.06.007-.12.013-.18.035-.04.017-.07.045-.1.069-.04.023-.08.04-.11.07-.04.039-.07.088-.1.136-.01.025-.03.043-.05.071v.006l-.03.125c0 .045-.02.089-.02.134v8.006H5.33v2.666H4V8.667H0V16h14.67V8.667zM36 11.333h-1.33V8.667h-1.34v-2.23l5.58-2.43.42-.203-.02-.903L32.94.058l-.01-.001c-.04-.018-.08-.02-.13-.03-.04-.009-.08-.026-.13-.026V0c-.03 0-.05.013-.08.016-.06.007-.12.013-.17.034-.04.017-.07.045-.11.069a.406.406 0 0 0-.1.07c-.05.04-.08.091-.11.141-.01.023-.03.04-.04.065v.006c-.02.04-.02.087-.03.132-.01.043-.03.085-.03.128v8.006h-1.33v2.666h-1.34V8.667h-4V16H40V8.667h-4zm-11.33 9.334v-6h-4v2.666h-1.34v-2.666h-4v6h-2v-4.001h-12V40H4v-8a3.34 3.34 0 0 1 3.33-3.333c1.84 0 3.34 1.495 3.34 3.333v8h4.66V28.667C15.33 26.093 17.43 24 20 24s4.67 2.093 4.67 4.667V40h4.66v-8c0-1.838 1.5-3.333 3.34-3.333A3.34 3.34 0 0 1 36 32v8h2.67V16.666h-12v4.001zM4 19.333h6.67v6H4zm25.33 0H36v6h-6.67z"/></symbol><symbol id="mt-park" viewBox="0 0 47 40"><title>icon</title><path d="M9.95 12.075c3.4 0 6.16-2.708 6.16-6.037C16.11 2.709 13.35 0 9.95 0 6.56 0 3.8 2.709 3.8 6.038s2.76 6.037 6.15 6.037c3.4 0 0 0 0 0zm18.47 6.48l1.53-1.509 1.54 1.509 1.67-1.636.74-.733-5.48-10.265-5.5 10.287 2.42 2.347 1.54-1.509zm6.92-10.253c1.86 0 3.38 1.49 3.38 3.32 0 .418.35.755.77.755.43 0 .77-.337.77-.755 0-1.081.9-1.962 2-1.962a.76.76 0 0 0 .77-.754.759.759 0 0 0-.77-.755c-1.04 0-1.96.448-2.61 1.147a4.945 4.945 0 0 0-4.31-2.506.76.76 0 0 0-.77.755c0 .418.34.755.77.755.42 0 0 0 0 0zM28.42 38.49a6.976 6.976 0 0 1-5.5-2.672V40h10.77v-3.915a6.951 6.951 0 0 1-5.27 2.405c-2.12 0 0 0 0 0zm6.22-20.916l-3.15 3.116-1.54-1.51-1.53 1.51-1.54-1.51-1.54 1.51-2.76-2.704-.4-.389-4.86 9.11-1.45-1.715a4.26 4.26 0 0 0-3.28-1.517c-1.44 0-2.77.709-3.56 1.895L.15 38.727a.798.798 0 0 0-.04.841L.39 40h20.99v-3.915a6.951 6.951 0 0 1-5.27 2.405.759.759 0 0 1-.77-.754.76.76 0 0 1 .77-.755c2.6 0 4.78-1.822 5.27-4.234v-.274a5.4 5.4 0 0 1-3.73 1.489.759.759 0 0 1-.77-.754c0-.418.34-.755.77-.755 1.82 0 3.34-1.252 3.73-2.922v-.784c-.62.43-1.38.687-2.2.687a.766.766 0 0 1-.77-.755c0-.417.35-.754.77-.754 1.05 0 1.92-.686 2.2-1.618v-.46c0-.167.07-.313.16-.437a.772.772 0 0 1 .72-.504c.43 0 .77.337.77.754 0 1.249 1.04 2.265 2.31 2.265.42 0 .77.337.77.754s-.35.755-.77.755a3.84 3.84 0 0 1-2.31-.778v.023c0 2.081 1.73 3.774 3.85 3.774.42 0 .77.337.77.755 0 .417-.35.754-.77.754a5.41 5.41 0 0 1-3.79-1.533c.36 2.567 2.61 4.552 5.33 4.552 2.6 0 4.77-1.822 5.27-4.234v-.274a5.406 5.406 0 0 1-3.74 1.489.765.765 0 0 1-.77-.754c0-.418.35-.755.77-.755 1.82 0 3.35-1.252 3.74-2.922v-.784c-.62.43-1.38.687-2.2.687a.766.766 0 0 1-.77-.755c0-.417.35-.754.77-.754 1.04 0 1.92-.686 2.2-1.618v-.46c0-.167.07-.313.16-.437a.762.762 0 0 1 .72-.504c.42 0 .77.337.77.754 0 1.249 1.03 2.265 2.31 2.265.42 0 .77.337.77.754s-.35.755-.77.755a3.87 3.87 0 0 1-2.32-.778c0 .008.01.015.01.023 0 2.081 1.72 3.774 3.85 3.774.42 0 .76.337.76.755 0 .417-.34.754-.76.754a5.41 5.41 0 0 1-3.79-1.533c.36 2.567 2.61 4.552 5.32 4.552.43 0 .77.338.77.755s-.34.754-.77.754a6.971 6.971 0 0 1-5.49-2.672V40h9.84c.33 0 .62-.165.8-.442a.878.878 0 0 0 .02-.899zm-24.32 8.62a2.71 2.71 0 0 1 2.27-1.21c.82 0 1.58.354 2.1.969l1.85 2.205-5.51 10.332H2.14z"/></symbol><symbol id="wheelchair-accessible" viewBox="0 0 40 41"><title>icon</title><path d="M34.9 18.6c-.5-.5-1.1-.8-1.8-.7l-8.3.5 4.6-5.2c.6-.7.8-1.7.6-2.6-.1-.6-.5-1.2-1.1-1.5L18 2.8c-.9-.5-2-.4-2.8.3L9.9 7.8c-1 .9-1.1 2.4-.2 3.4.9 1 2.4 1.1 3.4.2l4-3.6 3.3 1.9-5.9 6.7c-2.4.4-4.6 1.5-6.4 3.1l3.1 3.1c1.4-1.3 3.2-2 5.3-2 4.3 0 7.8 3.5 7.8 7.8 0 2-.8 3.9-2 5.3l3.1 3.1c2-2.2 3.3-5.1 3.3-8.3 0-1.9-.4-3.7-1.2-5.3l3.2-.2-.8 9.6c-.1 1.3.9 2.5 2.2 2.6h.2c1.2 0 2.3-.9 2.4-2.2l1-12.3c0-.9-.3-1.6-.8-2.1zM30.5 8.5c2.2 0 4-1.8 4-4s-1.8-4-4-4-4 1.8-4 4c.1 2.2 1.8 4 4 4zM16.5 36.2c-4.3 0-7.8-3.5-7.8-7.8 0-1.6.5-3.1 1.3-4.4l-3-3.1c-1.6 2.1-2.6 4.7-2.6 7.5 0 6.7 5.4 12.2 12.2 12.2 2.8 0 5.4-1 7.5-2.6L21 34.9c-1.3.8-2.8 1.3-4.5 1.3z"/></symbol></svg>