<?xml version="1.0" encoding="UTF-8"?><!DOCTYPE svg PUBLIC "-//W3C//DTD SVG 1.1//EN" "http://www.w3.org/Graphics/SVG/1.1/DTD/svg11.dtd"><svg xmlns="http://www.w3.org/2000/svg" xmlns:xlink="http://www.w3.org/1999/xlink" xmlns:svgjs="http://svgjs.com/svgjs"><symbol id="alerts" viewBox="0 0 14 16"><path id="SvgjsPath1031" d="M1060.2 16.63C1059.75 16.380699999999997 1059.47 15.916699999999999 1059.47 15.416699999999999L1059.47 15.414699999999998C1059.47 14.633299999999998 1058.81 13.999999999999998 1058 13.999999999999998C1057.19 13.999999999999998 1056.53 14.633299999999998 1056.53 15.414699999999998L1056.53 15.416699999999999C1056.53 15.9173 1056.25 16.380699999999997 1055.8 16.63C1052.54 18.438 1054.4099999999999 24.439999999999998 1051 25.5007L1051 26.6667L1065 26.6667L1065 25.5007C1061.59 24.439999999999998 1063.46 18.438 1060.2 16.63ZM1058 14.6667C1058.39 14.6667 1058.7 14.966000000000001 1058.7 15.333300000000001C1058.7 15.701300000000002 1058.39 16 1058 16C1057.61 16 1057.3 15.7013 1057.3 15.3333C1057.3 14.966 1057.61 14.666699999999999 1058 14.666699999999999ZM1060.1 28C1060.1 29.0653 1059.1299999999999 30 1058.02 30C1056.91 30 1055.9 29.0653 1055.9 28Z " transform="matrix(1,0,0,1,-1051,-14)"/></symbol><symbol id="arrow" viewBox="0 0 16 18"><path id="SvgjsPath1007" d="M983.721 1887.28L983.721 1887.28L986.423 1890L986.423 1890L986.423 1890L983.721 1892.72L983.721 1892.72L978.318 1898.17L975.617 1895.45L979.115 1891.92L971.443 1891.92L971.443 1888.0700000000002L979.103 1888.0700000000002L975.617 1884.5500000000002L978.318 1881.8300000000002Z " transform="matrix(1,0,0,1,-971,-1881)"/></symbol><symbol id="blog" viewBox="0 0 32 30"><path id="SvgjsPath1022" d="M374.967 594L374.967 624L405.21 624L405.21 594ZM389.267 619C389.216 613.964 385.091 609.877 380.008 609.826L380.008 605.817C387.334 605.869 393.262 611.741 393.315 619ZM382.74 619C381.231 619 380.008 617.789 380.008 616.294C380.008 614.799 381.231 613.587 382.74 613.587C384.248 613.587 385.47 614.799 385.47 616.294C385.47 617.789 384.24800000000005 619 382.74 619ZM396.124 619C396.09700000000004 610.171 388.89500000000004 603.049 380.00800000000004 603.01L380.00800000000004 599C391.13500000000005 599.039 400.14500000000004 607.974 400.17 619Z " transform="matrix(1,0,0,1,-374,-594)"/></symbol><symbol id="building" viewBox="0 0 16 16"><path id="SvgjsPath1028" d="M1169.73 14.5924L1169.73 13L1168.27 13L1168.27 14.5924C1166.21 14.9558 1164.6399999999999 16.8309 1164.6399999999999 19.0952L1173.36 19.0952C1173.36 16.8309 1171.79 14.955799999999998 1169.7299999999998 14.592399999999998ZM1176.27 24.4286L1174.09 24.4286L1174.09 21.381C1174.09 20.9604 1173.77 20.619 1173.36 20.619L1164.6399999999999 20.619C1164.2299999999998 20.619 1163.9099999999999 20.9604 1163.9099999999999 21.381L1163.9099999999999 24.4286L1161.7299999999998 24.4286C1161.3299999999997 24.4286 1160.9999999999998 24.7699 1160.9999999999998 25.1905L1160.9999999999998 28.2381C1160.9999999999998 28.659399999999998 1161.3299999999997 29 1161.7299999999998 29L1176.2699999999998 29C1176.6699999999998 29 1176.9999999999998 28.6594 1176.9999999999998 28.2381L1176.9999999999998 25.1905C1176.9999999999998 24.7699 1176.6699999999998 24.4286 1176.2699999999998 24.4286ZM1163.91 27.4762L1162.45 27.4762L1162.45 25.952399999999997L1163.91 25.952399999999997ZM1166.82 27.4762L1165.36 27.4762L1165.36 25.952399999999997L1166.82 25.952399999999997ZM1166.82 23.6667L1165.36 23.6667L1165.36 22.142899999999997L1166.82 22.142899999999997ZM1169.73 27.4762L1168.27 27.4762L1168.27 25.952399999999997L1169.73 25.952399999999997ZM1169.73 23.6667L1168.27 23.6667L1168.27 22.142899999999997L1169.73 22.142899999999997ZM1172.64 27.4762L1171.18 27.4762L1171.18 25.952399999999997L1172.64 25.952399999999997ZM1172.64 23.6667L1171.18 23.6667L1171.18 22.142899999999997L1172.64 22.142899999999997ZM1175.55 27.4762L1174.09 27.4762L1174.09 25.952399999999997L1175.55 25.952399999999997Z " transform="matrix(1,0,0,1,-1161,-13)"/></symbol><symbol id="external-link" viewBox="0 0 17 16"><path id="SvgjsPath1007" d="M739.199 92.7986L739.199 80L735.9989999999999 80L735.9989999999999 95.9983L751.9979999999999 95.9983L751.9979999999999 92.7986ZM743.294 81.0032L743.305 83.5605L746.6049999999999 83.5737L742.9939999999999 87.1849L744.809 89.0001L748.4259999999999 85.3836L748.4399999999999 88.6956L750.997 88.7058L750.976 83.59129999999999L750.966 81.03389999999999L748.409 81.02349999999998L748.409 81.02369999999999Z " transform="matrix(1,0,0,1,-735,-80)"/></symbol><symbol id="facebook" viewBox="0 0 31 30"><path id="SvgjsPath1010" d="M159 594L159 624L189.243 624L189.243 594ZM179.162 602.75L176.739 602.75C175.963 602.75 175.382 603.065 175.382 603.861L175.382 605.25L179.162 605.25L178.86100000000002 609L175.382 609L175.382 619L171.601 619L171.601 609L169.081 609L169.081 605.25L171.601 605.25L171.601 602.846C171.601 600.319 172.942 599 175.963 599L179.162 599Z " transform="matrix(1,0,0,1,-159,-594)"/></symbol><symbol id="instagram" viewBox="0 0 31 30"><path id="SvgjsPath1025" d="M459 594L459 624L428.757 624L428.757 594ZM447.952 600.86C446.89 600.813 446.57 600.803 443.878 600.803C441.187 600.803 440.868 600.813 439.804 600.861C437.07 600.984 435.79699999999997 602.27 435.673 604.96C435.625 606.014 435.613 606.33 435.613 609C435.613 611.67 435.625 611.986 435.674 613.043C435.79699999999997 615.726 437.066 617.017 439.806 617.141C440.86699999999996 617.189 441.18699999999995 617.199 443.878 617.199C446.57099999999997 617.199 446.89 617.188 447.954 617.14C450.688 617.0169999999999 451.96000000000004 615.729 452.086 613.0409999999999C452.134 611.986 452.144 611.67 452.144 608.9999999999999C452.144 606.3299999999999 452.134 606.0139999999999 452.086 604.9599999999999C451.96000000000004 602.2699999999999 450.684 600.9839999999999 447.952 600.8599999999999ZM443.878 614.135C441.02 614.135 438.702 611.836 438.702 609C438.702 606.164 441.019 603.865 443.878 603.865C446.736 603.865 449.055 606.164 449.055 609C449.055 611.836 446.738 614.135 443.878 614.135ZM443.878 605.666C442.022 605.666 440.518 607.1590000000001 440.518 609C440.518 610.843 442.022 612.334 443.878 612.334C445.735 612.334 447.239 610.8409999999999 447.239 609C447.239 607.159 445.73499999999996 605.666 443.878 605.666ZM449.259 604.862C448.591 604.862 448.04900000000004 604.3249999999999 448.04900000000004 603.6619999999999C448.04900000000004 602.9999999999999 448.591 602.463 449.259 602.463C449.927 602.463 450.469 603 450.469 603.6619999999999C450.469 604.3249999999999 449.928 604.862 449.259 604.862ZM453.959 609C453.959 606.285 453.948 605.944 453.899 604.878C453.734 601.25 451.7 599.2280000000001 448.036 599.061C446.959 599.0110000000001 446.617 599 443.878 599C441.14 599 440.799 599.011 439.723 599.06C436.06100000000004 599.226 434.027 601.241 433.858 604.876C433.809 605.944 433.797 606.285 433.797 609C433.797 611.716 433.809 612.056 433.858 613.122C434.027 616.755 436.058 618.774 439.723 618.9399999999999C440.79900000000004 618.9889999999999 441.14 618.9999999999999 443.878 618.9999999999999C446.61699999999996 618.9999999999999 446.959 618.9889999999999 448.036 618.9399999999999C451.692 618.7739999999999 453.734 616.7589999999999 453.899 613.122C453.948 612.0559999999999 453.959 611.716 453.959 609Z " transform="matrix(1,0,0,1,-428,-594)"/></symbol><symbol id="laptop" viewBox="0 0 36 30"><path id="SvgjsPath1013" d="M424 1674L394 1674L394 1693.5L424 1693.5ZM421 1690.5L397 1690.5L397 1677L421 1677ZM424 1695L394 1695L391 1704L427 1704ZM405.658 1702.5L406.357 1701L411.64300000000003 1701L412.34200000000004 1702.5Z " transform="matrix(1,0,0,1,-391,-1674)"/></symbol><symbol id="linkedin" viewBox="0 0 31 30"><path id="SvgjsPath1016" d="M266.564 594L266.564 624L296.807 624L296.807 594ZM276.645 617.75L272.864 617.75L272.864 604L276.645 604ZM274.754 602.415C273.53700000000003 602.415 272.54900000000004 601.4269999999999 272.54900000000004 600.2099999999999C272.54900000000004 598.9929999999999 273.53700000000003 598.0049999999999 274.754 598.0049999999999C275.97200000000004 598.0049999999999 276.96000000000004 598.9929999999999 276.96000000000004 600.2099999999999C276.96000000000004 601.4269999999999 275.973 602.415 274.754 602.415ZM291.766 617.75L287.98600000000005 617.75L287.98600000000005 610.745C287.98600000000005 606.535 282.94500000000005 606.854 282.94500000000005 610.745L282.94500000000005 617.75L279.1650000000001 617.75L279.1650000000001 604L282.94500000000005 604L282.94500000000005 606.206C284.7060000000001 602.974 291.7660000000001 602.735 291.7660000000001 609.301Z " transform="matrix(1,0,0,1,-266,-594)"/></symbol><symbol id="login" viewBox="0 0 20 16"><path id="SvgjsPath1037" d="M1338.67 19.6L1338.67 16.400000000000002L1345.3300000000002 22L1338.67 27.6L1338.67 24.400000000000002L1332 24.400000000000002L1332 19.6ZM1340.33 14L1340.33 15.6L1350.33 15.6L1350.33 28.4L1340.33 28.4L1340.33 30L1352 30L1352 14Z " transform="matrix(1,0,0,1,-1332,-14)"/></symbol><symbol id="mail" viewBox="0 0 32 24"><path id="SvgjsPath1019" d="M407 2186.95L391.02 2174L422.981 2174ZM391 2194.08L391 2177.42L399.767 2184.52ZM423 2177.42L423 2194.08L414.233 2184.52ZM412.157 2186.2L407 2190.3799999999997L401.843 2186.2L391.029 2198L422.971 2198Z " transform="matrix(1,0,0,1,-391,-2174)"/></symbol><symbol id="phone" viewBox="0 0 33 37"><path id="SvgjsPath1016" d="M412.841 2040.51C401.798 2045.57 384.657 2012.19 395.451 2006.56L398.60900000000004 2005L403.84400000000005 2015.23L400.72300000000007 2016.77C397.44200000000006 2018.54 404.27600000000007 2031.91 407.63200000000006 2030.28C407.7680000000001 2030.22 410.7150000000001 2028.77 410.72600000000006 2028.76L416.0040000000001 2038.96C415.9920000000001 2038.97 413.02200000000005 2040.43 412.84100000000007 2040.51ZM413.24 2011.28C415.564 2011.98 417.62600000000003 2013.56 418.87 2015.86C420.115 2018.1699999999998 420.309 2020.76 419.616 2023.09L416.926 2022.29C417.413 2020.6499999999999 417.275 2018.83 416.39799999999997 2017.2C415.52399999999994 2015.5800000000002 414.073 2014.47 412.436 2013.98ZM411.838 2016C412.956 2016.33 413.95000000000005 2017.1 414.548 2018.21C415.148 2019.32 415.242 2020.56 414.908 2021.69L410.535 2020.38ZM413.841 2009.26C416.681 2010.11 419.2 2012.04 420.722 2014.86C422.24199999999996 2017.6799999999998 422.479 2020.85 421.63399999999996 2023.6899999999998L424.39199999999994 2024.5199999999998C425.44899999999996 2020.9599999999998 425.15399999999994 2017.0099999999998 423.2509999999999 2013.4899999999998C421.3539999999999 2009.9699999999998 418.20899999999995 2007.5599999999997 414.66399999999993 2006.4999999999998Z " transform="matrix(1,0,0,1,-392,-2005)"/></symbol><symbol id="profile" viewBox="0 0 32 32"><path id="SvgjsPath1010" d="M420.754 1455.13C416.172 1454.0700000000002 411.90700000000004 1453.14 413.97200000000004 1449.24C420.261 1437.35 415.639 1431 409.00000000000006 1431C402.22900000000004 1431 397.72300000000007 1437.6 404.0280000000001 1449.24C406.1550000000001 1453.16 401.7290000000001 1454.09 397.2460000000001 1455.13C393.1520000000001 1456.0700000000002 392.9990000000001 1458.1100000000001 393.0120000000001 1461.67L393.0180000000001 1463L424.9800000000001 1463L424.98500000000007 1461.71C425.0010000000001 1458.1200000000001 424.8620000000001 1456.08 420.7540000000001 1455.13Z " transform="matrix(1,0,0,1,-393,-1431)"/></symbol><symbol id="quote" viewBox="0 0 55 46"><path id="SvgjsPath1007" d="M1097.99 381.99L1120.42 381.99L1120.42 358.915L1109.29 358.915L1120.42 336.00800000000004L1111.78 336.00800000000004L1097.99 358.915ZM1130.06 358.915L1143.35 336.00800000000004L1151.99 336.00800000000004L1140.52 358.915L1151.99 358.915L1151.99 381.99L1130.06 381.99Z " transform="matrix(1,0,0,1,-1097,-336)"/></symbol><symbol id="restore" viewBox="0 0 20 15"><path id="SvgjsPath1007" d="M1409.5 95.5L1405.78 99.6408L1402 95.5L1404.5 95.5C1404.5 91.3583 1407.86 88 1412 88C1414 88 1415.8 88.785 1417.15 90.0567L1415.48 91.9158C1414.58 91.0408 1413.35 90.5 1412 90.5C1409.24 90.5 1407 92.7425 1407 95.5ZM1418.22 91.3592L1414.5 95.5L1417 95.5C1417 98.2575 1414.76 100.5 1412 100.5C1410.65 100.5 1409.42 99.9584 1408.52 99.0842L1406.85 100.943C1408.1999999999998 102.215 1410 103 1412 103C1416.14 103 1419.5 99.6417 1419.5 95.5L1422 95.5Z " transform="matrix(1,0,0,1,-1402,-88)"/></symbol><symbol id="search" viewBox="0 0 20 20"><path id="SvgjsPath1040" d="M1424.99 107.4L1419.66 102.105C1420.44 100.884 1420.89 99.4383 1420.89 97.8892C1420.89 93.54 1417.3300000000002 90 1412.95 90C1408.57 90 1405.01 93.54 1405.01 97.89C1405.01 102.241 1408.57 105.781 1412.95 105.781C1414.43 105.781 1415.82 105.375 1417.01 104.67L1422.3799999999999 110ZM1407.97 97.89C1407.97 95.1625 1410.2 92.9416 1412.95 92.9416C1415.7 92.9416 1417.93 95.1617 1417.93 97.89C1417.93 100.619 1415.7 102.839 1412.95 102.839C1410.2 102.839 1407.97 100.619 1407.97 97.89Z " transform="matrix(1,0,0,1,-1405,-90)"/></symbol><symbol id="settings" viewBox="0 0 16 16"><path id="SvgjsPath1034" d="M900 23.0773L900 20.922700000000003C898.899 20.5314 898.205 20.421300000000002 897.854 19.576700000000002L897.854 19.576000000000004C897.503 18.728700000000003 897.921 18.153300000000005 898.4190000000001 17.104700000000005L896.8950000000001 15.581300000000004C895.8550000000001 16.076000000000004 895.2730000000001 16.498000000000005 894.4240000000001 16.146000000000004L894.4230000000001 16.146000000000004C893.5770000000001 15.795400000000004 893.4670000000001 15.095300000000005 893.0770000000001 14.000000000000004L890.9230000000001 14.000000000000004C890.5350000000001 15.090000000000003 890.4230000000001 15.794700000000004 889.5770000000001 16.146000000000004L889.5760000000001 16.146000000000004C888.7290000000002 16.498000000000005 888.1550000000001 16.080700000000004 887.1050000000001 15.581300000000004L885.5810000000001 17.104700000000005C886.0780000000001 18.150000000000006 886.4980000000002 18.727300000000003 886.1460000000002 19.576000000000004C885.7950000000002 20.423300000000005 885.0900000000001 20.534700000000004 884.0000000000002 20.922700000000003L884.0000000000002 23.0773C885.0880000000002 23.464000000000002 885.7950000000002 23.576600000000003 886.1460000000002 24.4233C886.4990000000001 25.278000000000002 886.0700000000002 25.8673 885.5810000000001 26.8947L887.1050000000001 28.4187C888.1460000000002 27.9233 888.7270000000001 27.502000000000002 889.5760000000001 27.854000000000003L889.5770000000001 27.854000000000003C890.4230000000001 28.204700000000003 890.5340000000001 28.906700000000004 890.9230000000001 30.000000000000004L893.0770000000001 30.000000000000004C893.4650000000001 28.9093 893.5770000000001 28.206700000000005 894.4290000000001 27.852000000000004C895.2710000000001 27.502700000000004 895.8430000000001 27.919300000000003 896.8950000000001 28.419400000000003L898.4180000000001 26.895400000000002C897.9230000000001 25.8533 897.5010000000001 25.273300000000003 897.8530000000001 24.4247C898.2040000000001 23.5773 898.9110000000001 23.4647 900.0000000000001 23.0773ZM892 25.3333C890.159 25.3333 888.667 23.840700000000002 888.667 22C888.667 20.1593 890.159 18.6667 892 18.6667C893.841 18.6667 895.333 20.159299999999998 895.333 22C895.333 23.8407 893.841 25.3333 892 25.3333ZM894 22C894 23.1027 893.103 24 892 24C890.897 24 890 23.1027 890 22C890 20.8974 890.897 20 892 20C893.103 20 894 20.8974 894 22Z " transform="matrix(1,0,0,1,-884,-14)"/></symbol><symbol id="twitter" viewBox="0 0 32 30"><path id="SvgjsPath1013" d="M212.79 594L212.79 624L243.033 624L243.033 594ZM236.558 605.546C236.82 611.3180000000001 232.482 617.753 224.801 617.753C222.46499999999997 617.753 220.291 617.0740000000001 218.45999999999998 615.909C220.65499999999997 616.165 222.84499999999997 615.561 224.58399999999997 614.21C222.77399999999997 614.176 221.24599999999998 612.99 220.72099999999998 611.36C221.36999999999998 611.482 222.00699999999998 611.446 222.58799999999997 611.29C220.59899999999996 610.894 219.22599999999997 609.116 219.27099999999996 607.2149999999999C219.82699999999997 607.5219999999999 220.46599999999995 607.7069999999999 221.14299999999997 607.7289999999999C219.30199999999996 606.507 218.77999999999997 604.0949999999999 219.86299999999997 602.2499999999999C221.90299999999996 604.7319999999999 224.95099999999996 606.3659999999999 228.38899999999998 606.5379999999999C227.78499999999997 603.9709999999999 229.748 601.4999999999999 232.41899999999998 601.4999999999999C233.60799999999998 601.4999999999999 234.683 601.9979999999999 235.438 602.7959999999999C236.38 602.612 237.266 602.271 238.065 601.8009999999999C237.757 602.7599999999999 237.1 603.564 236.24699999999999 604.0709999999999C237.08399999999997 603.9709999999999 237.88099999999997 603.7509999999999 238.62199999999999 603.425C238.06799999999998 604.245 237.36599999999999 604.967 236.558 605.5459999999999Z " transform="matrix(1,0,0,1,-212,-594)"/></symbol><symbol id="youtube" viewBox="0 0 31 30"><path id="SvgjsPath1019" d="M321.194 594L321.194 624L351.437 624L351.437 594ZM333.795 605.666L340.51500000000004 608.994L333.795 612.3340000000001ZM342.711 616.346C339.683 616.551 332.94 616.55 329.91700000000003 616.346C326.641 616.125 326.259 614.154 326.23400000000004 609C326.259 603.838 326.64500000000004 601.875 329.91900000000004 601.654C332.94200000000006 601.45 339.68500000000006 601.449 342.713 601.654C345.98900000000003 601.875 346.37100000000004 603.846 346.396 609C346.37100000000004 614.163 345.985 616.125 342.711 616.346Z " transform="matrix(1,0,0,1,-321,-594)"/></symbol></svg>