<?xml version="1.0" encoding="UTF-8"?><!DOCTYPE svg PUBLIC "-//W3C//DTD SVG 1.1//EN" "http://www.w3.org/Graphics/SVG/1.1/DTD/svg11.dtd"><svg xmlns="http://www.w3.org/2000/svg"><symbol id="alert" viewBox="0 0 48 44"><title>icon</title><path d="M44.158 16.23a.811.811 0 0 0 0 1.14 7.601 7.601 0 0 1 2.242 5.42c0 2.05-.796 3.97-2.242 5.42a.8.8 0 0 0 0 1.13.78.78 0 0 0 .566.23c.205 0 .41-.07.566-.23A9.214 9.214 0 0 0 48 22.79a9.22 9.22 0 0 0-2.71-6.56.805.805 0 0 0-1.132 0zm-41.448 0A9.22 9.22 0 0 0 0 22.79c0 2.47.962 4.8 2.71 6.55.156.16.361.23.566.23a.78.78 0 0 0 .566-.23.8.8 0 0 0 0-1.13A7.619 7.619 0 0 1 1.6 22.79c0-2.05.796-3.98 2.242-5.42a.811.811 0 0 0 0-1.14.805.805 0 0 0-1.132 0zm38.08 1.6a.811.811 0 0 0 0 1.14c2.046 2.04 2.046 5.37 0 7.42a.8.8 0 0 0 0 1.13.82.82 0 0 0 .566.23.82.82 0 0 0 .566-.23c2.669-2.67 2.669-7.02 0-9.69a.805.805 0 0 0-1.132 0c-.312.32 0 0 0 0zM6.644 27.75a.82.82 0 0 0 .566-.23.8.8 0 0 0 0-1.13c-2.046-2.05-2.046-5.38 0-7.42a.811.811 0 0 0 0-1.14.805.805 0 0 0-1.132 0c-2.669 2.67-2.669 7.02 0 9.69a.82.82 0 0 0 .566.23c.205 0 0 0 0 0zM45.29 16.23s-1.748-1.74 0 0zM37.62 16c.034-5.48-3.655-9.12-6.825-10.57-.893-.41-1.835-.71-2.795-.94V4c0-2.21-1.794-4-4-4s-4 1.79-4 4v.56c-.863.23-1.711.51-2.517.88C13.981 7.05 10.432 10.95 10.4 16v7.2c0 5.11-1.805 9.5-5.364 13.03a.804.804 0 0 0 .428 1.36l7.593 1.31c1.433.25 2.732.44 3.955.61C18.408 42.24 21.15 44 24.146 44c2.997 0 5.74-1.76 7.136-4.5 1.217-.16 2.51-.35 3.935-.6l7.592-1.31a.806.806 0 0 0 .429-1.36c-3.728-3.7-5.618-8.09-5.618-13.03zm-22.425.8a.796.796 0 0 1-.795-.8c.024-3.75 3.002-6.12 4.758-6.93 3.08-1.42 6.876-1.42 9.976 0a.8.8 0 0 1 .394 1.06.794.794 0 0 1-1.06.39c-2.682-1.22-5.975-1.22-8.64 0-1.413.66-3.809 2.54-3.828 5.48a.798.798 0 0 1-.8.8zm8.951 25.6c-2.027 0-3.921-1.01-5.137-2.66h.001c.314.04.618.06.922.09.15.01.303.03.451.04.11.01.215.01.323.02 2.325.17 4.467.17 6.789.01l.407-.03c.172-.02.349-.03.523-.05.274-.02.547-.05.829-.08h.03c-1.214 1.65-3.11 2.66-5.138 2.66zM24 1.6c1.323 0 2.4 1.08 2.4 2.4v.15a16.426 16.426 0 0 0-4.8.04V4c0-1.32 1.077-2.4 2.4-2.4z"/></symbol><symbol id="arrow" viewBox="0 0 16 18"><path d="M12.721 6.28L15.423 9l-2.702 2.72-5.403 5.45-2.701-2.72 3.498-3.53H.443V7.07h7.66L4.617 3.55 7.318.83z"/></symbol><symbol id="blog" viewBox="0 0 21 20"><title>blog</title><path d="M5.47 17.294c0-1.495-1.222-2.706-2.73-2.706-1.509 0-2.732 1.21-2.732 2.706C.008 18.789 1.231 20 2.74 20c1.508 0 2.73-1.211 2.73-2.706zM13.315 20C13.262 12.741 7.334 6.869.008 6.818v4.008c5.083.051 9.208 4.138 9.259 9.174zm2.808 0C16.097 11.171 8.895 4.049.008 4.01V0C11.135.039 20.145 8.974 20.17 20z"/></symbol><symbol id="building" viewBox="0 0 16 16"><path d="M8.73 1.592V0H7.27v1.592c-2.06.364-3.63 2.239-3.63 4.503h8.72c0-2.264-1.57-4.14-3.63-4.503zm6.54 9.837h-2.18V8.38c0-.42-.32-.762-.73-.762H3.64c-.41 0-.73.341-.73.762v3.048H.73c-.4 0-.73.34-.73.761v3.048c0 .421.33.762.73.762h14.54c.4 0 .73-.34.73-.762v-3.047c0-.421-.33-.762-.73-.762zM2.91 14.476H1.45v-1.524h1.46zm2.91 0H4.36v-1.524h1.46zm0-3.81H4.36V9.144h1.46zm2.91 3.81H7.27v-1.524h1.46zm0-3.81H7.27V9.144h1.46zm2.91 3.81h-1.46v-1.524h1.46zm0-3.81h-1.46V9.144h1.46zm2.91 3.81h-1.46v-1.524h1.46z"/></symbol><symbol id="circle-chevron" viewBox="0 0 35 35"><path class="st0" d="M17.5 35C7.8 35 0 27.2 0 17.5S7.8 0 17.5 0 35 7.8 35 17.5 27.2 35 17.5 35zM16 9l-3 2.9 5.1 5.1-5.1 5.1 3 2.9 8-8-8-8z"/></symbol><symbol id="clock" viewBox="0 0 30 30"><title>icon</title><path d="M30 15c0 8.28-6.719 15-15.005 15-1.351 0-2.655-.19-3.9-.53l.831-2.37c.984.25 2.009.4 3.069.4 6.895 0 12.504-5.61 12.504-12.5S21.89 2.5 14.995 2.5c-2.794 0-5.366.93-7.449 2.49l2.563 2.56L1.34 9.24 3.035.47 5.764 3.2c2.545-2 5.743-3.2 9.231-3.2C23.281 0 30 6.72 30 15zM16.25 7.5V15h6.25v2.5h-8.75v-10zm-11.915 14c.419.68.897 1.32 1.436 1.91L4.016 25.2a14.777 14.777 0 0 1-1.924-2.57zm1.533 5.39l1.766-1.81c.608.45 1.257.84 1.943 1.17l-.836 2.37a14.857 14.857 0 0 1-2.873-1.73zM3.25 19.25l-2.249 1.13C.624 19.4.35 18.37.186 17.3l2.498-.2c.125.74.316 1.46.566 2.15zM0 14.81l2.519-.2c.033-.88.156-1.73.36-2.56H.284c-.178.89-.272 1.82-.284 2.76z"/></symbol><symbol id="crossroads" viewBox="0 0 63 66"><title>icon</title><path d="M52.715 23.101l9.84-8.904a1.341 1.341 0 0 0 .003-1.989l-9.843-8.907H31.629V1.1c0-.608-.49-1.1-1.094-1.1-.604 0-1.094.492-1.094 1.1v2.201H10.182c-2.051 0-3.717 1.675-3.717 3.736v12.327c0 2.061 1.666 3.737 3.717 3.737h19.259V25.3H11.278l-9.845 8.908a1.34 1.34 0 0 0 .001 1.985l9.844 8.907h18.163v19.8c0 .608.49 1.1 1.094 1.1.604 0 1.094-.492 1.094-1.1V45.1h22.543c2.049 0 3.715-1.675 3.715-3.736V29.036c0-2.061-1.666-3.736-3.715-3.736H31.629v-2.199h21.086"/></symbol><symbol id="doc-docx" viewBox="0 0 35 37"><path d="M14.582 17.94c-.403 0-.707.14-.952.44-.255.32-.386.84-.386 1.53 0 .69.135 1.2.398 1.53.255.31.551.45.94.45.386 0 .682-.14.929-.45.263-.32.394-.84.394-1.55 0-.69-.127-1.2-.382-1.52-.238-.29-.539-.43-.941-.43zM6.355 21.9c.559 0 .993-.17 1.289-.49.321-.36.487-.9.487-1.62.004-.64-.154-1.13-.465-1.45-.279-.28-.676-.43-1.186-.43-.111 0-.203.01-.281.01v3.98h.129zm27.83-8.69h-3.152V8.42c0-.01-.004-.02-.004-.04-.002-.03-.004-.07-.01-.11-.007-.02-.014-.05-.025-.08-.006-.02-.01-.04-.018-.06a.336.336 0 0 0-.046-.08c-.008-.02-.014-.03-.024-.05-.029-.04-.06-.08-.097-.12L23.254.22h-.007a.346.346 0 0 0-.108-.09c-.02-.02-.043-.02-.063-.04l-.068-.03-.08-.03c-.021 0-.041-.01-.062-.02C22.819 0 22.769 0 22.72 0H5.716a.757.757 0 0 0-.755.76v12.45H1.806c-.45 0-.816.38-.814.83v11.75c0 .47.37.83.822.83h3.145v8.62c0 .42.339.77.755.77h24.563c.417 0 .756-.35.756-.77v-8.62h3.152c.45 0 .815-.37.815-.83V14.04c0-.45-.365-.83-.815-.83zM6.47 1.53h15.494v6.89c0 .43.339.77.756.77h6.802v4.02H6.47zm23.052 32.94H6.47v-7.85h23.052zm-.057-10.72L28.39 21.9l-1.08 1.85h-2.577l2.359-3.98-2.158-3.68h2.541l.937 1.66.921-1.66h2.525l-2.165 3.73 2.366 3.93zm-11.432-3.82c0 1.22-.314 2.19-.929 2.9-.631.72-1.478 1.09-2.52 1.09-1.05 0-1.904-.37-2.533-1.09-.617-.7-.931-1.67-.931-2.87 0-.76.107-1.41.316-1.94.161-.39.383-.75.658-1.07.284-.32.605-.56.948-.72.442-.21.956-.31 1.523-.31 1.047 0 1.896.36 2.531 1.09.621.7.937 1.69.937 2.92zM4.26 23.81l-.323-.05v-7.63l.311-.06c.557-.1 1.324-.15 2.078-.15 1.287 0 2.177.26 2.876.84.804.66 1.227 1.69 1.227 2.98 0 1.69-.647 2.65-1.192 3.16-.736.68-1.825 1.02-3.229 1.02-.63 0-1.248-.04-1.748-.11zm18.349-1.96c.397 0 .829-.1 1.051-.2l.433-.19.348 1.98-.234.13c-.305.17-.942.35-1.814.35-2.253 0-3.708-1.53-3.708-3.9 0-2.46 1.548-4.11 3.85-4.11.826 0 1.447.19 1.751.36l.245.14-.462 1.99-.411-.19a2.505 2.505 0 0 0-1.055-.23c-1.053 0-1.659.71-1.659 1.95-.002 1.22.606 1.92 1.665 1.92zm.868-19.24l4.976 5.05h-4.976z"/></symbol><symbol id="doc-pdf" viewBox="0 0 35 36"><path d="M34.185 13.21h-3.152V8.43c0-.02-.004-.03-.004-.04a.83.83 0 0 0-.01-.11c-.007-.03-.014-.06-.025-.08l-.018-.07a4.33 4.33 0 0 1-.046-.08c-.008-.02-.014-.03-.024-.05-.029-.04-.06-.08-.097-.12L23.254.23c-.002 0-.006-.01-.007-.01-.034-.03-.068-.06-.108-.09L23.076.1a.229.229 0 0 0-.068-.04c-.027-.01-.054-.02-.08-.02-.021-.01-.041-.02-.062-.02A.713.713 0 0 0 22.72 0H5.716a.765.765 0 0 0-.755.77v12.44H1.806c-.45 0-.816.38-.814.83v11.75c0 .46.37.82.822.82h3.145v8.62c0 .42.339.77.754.77h24.564c.417 0 .756-.35.756-.77v-8.62h3.152c.45 0 .815-.36.815-.82V14.04c0-.45-.365-.83-.815-.83zM6.47 1.53h15.494v6.9c0 .42.339.76.756.76h6.802v4.02H6.47zm23.052 32.93H6.47v-7.85h23.052zM13.433 18.4c0 .54-.114 1.02-.336 1.41-.221.38-.509.69-.861.91a3.18 3.18 0 0 1-1.046.44c-.448.08-1.063.12-1.879.12h-.697v2.97H5.925v-8.67h3.302c1.098 0 1.807.05 2.166.14a2.64 2.64 0 0 1 1.456.9c.388.47.584 1.06.584 1.78zm8.693 1.32c0 1.85-.711 2.9-1.305 3.46-.81.74-2.001 1.12-3.538 1.12-.695 0-1.373-.04-1.92-.12l-.356-.05v-8.37l.342-.06c.61-.11 1.451-.17 2.277-.17 1.409 0 2.383.29 3.151.93.885.72 1.349 1.85 1.349 3.26zm7.54-.78v2h-3.318v3.31h-2.575v-8.67h6.296v2.21H26.35v1.15zM23.477 2.62l4.976 5.04h-4.976zm-5.68 15.1c-.123 0-.224.01-.311.01v4.35H17.657c.611 0 1.088-.18 1.412-.53.356-.39.537-.99.537-1.77.004-.71-.169-1.24-.508-1.59-.308-.31-.744-.47-1.301-.47zm-7.612.04c-.124-.02-.43-.05-1.166-.05h-.403v1.44h.518c.845 0 1.127-.07 1.209-.1a.681.681 0 0 0 .341-.24.66.66 0 0 0 .121-.39c0-.19-.057-.33-.162-.44a.81.81 0 0 0-.458-.22z"/></symbol><symbol id="doc-xlsx" viewBox="0 0 36 37"><path d="M6.631 1.53H22.58v6.89c0 .43.35.77.779.77h7.002v4.02H6.631zm23.73 32.94H6.631v-7.85h23.73zm-2.105-12.62l-1.084 1.8h-2.586l2.368-3.87-2.169-3.59h2.548l.942 1.62.922-1.62h2.533l-2.171 3.63 2.375 3.83h-2.601zm-20.83-2.07l-2.167-3.59h2.547l.941 1.62.923-1.62h2.533l-2.171 3.63 2.374 3.83H9.805l-1.077-1.8-1.083 1.8H5.059zm13.783 1.06c-1.316-.51-1.981-1.33-1.981-2.43 0-1.47 1.143-2.49 2.785-2.49.751 0 1.589.22 2.031.44l.282.14-.533 1.9-.428-.23c-.207-.11-.743-.29-1.284-.29-.453 0-.487.3-.487.4 0 .15 0 .26.893.64 1.28.52 1.881 1.3 1.881 2.44 0 1.18-.772 2.56-2.943 2.56-.809 0-1.831-.28-2.241-.53l-.218-.14.328-1.96.484.27c.322.18 1.073.39 1.636.39.388 0 .62-.18.62-.48-.006-.13-.006-.31-.825-.63zm-3.014.81v2.14h-5.156v-7.73h2.368v5.59zm5.943-19.04l5.123 5.05h-5.123zm11.023 10.6h-3.245V8.42c0-.01-.003-.02-.003-.04-.003-.03-.005-.07-.011-.11-.007-.02-.015-.05-.026-.08-.006-.02-.01-.04-.019-.06a.336.336 0 0 0-.046-.08c-.009-.02-.015-.03-.026-.05a1.162 1.162 0 0 0-.099-.12L23.909.22h-.008a.345.345 0 0 0-.111-.09c-.021-.02-.044-.02-.065-.04l-.07-.03-.082-.03c-.022 0-.043-.01-.064-.02-.049-.01-.1-.01-.15-.01H5.854a.769.769 0 0 0-.777.76v12.45H1.829a.837.837 0 0 0-.837.83v11.75c0 .47.381.83.846.83h3.238v8.62c0 .42.349.77.776.77h25.286c.429 0 .778-.35.778-.77v-8.62h3.245c.463 0 .839-.37.839-.83V14.04a.84.84 0 0 0-.839-.83z"/></symbol><symbol id="external-link" viewBox="0 0 17 16"><path d="M4.199 12.799V0h-3.2v15.998h15.999v-3.2zM8.294 1.003l.011 2.558 3.3.013-3.611 3.61L9.809 9l3.617-3.616.014 3.312 2.557.01-.021-5.115-.01-2.557-2.557-.01z"/></symbol><symbol id="facebook" viewBox="0 0 11 20"><title>facebook</title><path d="M10.162 3.75H7.739c-.776 0-1.357.315-1.357 1.111V6.25h3.78L9.861 10H6.38v10h-3.78V10H.081V6.25h2.52V3.846C2.601 1.32 3.942 0 6.963 0h3.199z"/></symbol><symbol id="fax-icon" viewBox="0 0 20 18"><title>fax icon</title><path d="M16.667 8.182V4.934C16.667 3.97 13.222 0 11.94 0H3.333v8.182H0V18h20V8.182zm-4.168 1.852l-.773.402c-2.089 1.013-5.653-5.54-3.622-6.661l.78-.408 1.089 2.009-.771.403c-.612.349.811 2.972 1.439 2.649l.771-.401zM15 12.273H5V1.636h6.39c1.156 0 1.279 2.097.902 2.762C13.099 4.181 15 4.309 15 5.403z"/></symbol><symbol id="flickr" viewBox="0 0 20 12"><title>flickr</title><path d="M14.17 0C12.53 0 11.06.69 10 1.81A5.71 5.71 0 0 0 5.83 0C2.61 0 0 2.69 0 6s2.61 6 5.83 6c1.64 0 3.11-.69 4.17-1.81A5.71 5.71 0 0 0 14.17 12C17.39 12 20 9.31 20 6s-2.61-6-5.83-6zm0 10.29C11.87 10.29 10 8.36 10 6c0-2.36 1.87-4.29 4.17-4.29 2.29 0 4.16 1.93 4.16 4.29 0 2.36-1.87 4.29-4.16 4.29z"/></symbol><symbol id="instagram" viewBox="0 0 21 20"><title>instagram</title><path d="M10.878 6.666c-1.856 0-3.36 1.493-3.36 3.334 0 1.843 1.504 3.334 3.36 3.334 1.857 0 3.361-1.493 3.361-3.334s-1.504-3.334-3.361-3.334zm4.074-4.806c-1.062-.048-1.382-.057-4.074-.057-2.691 0-3.01.01-4.074.058C4.07 1.984 2.797 3.27 2.673 5.96c-.048 1.054-.06 1.37-.06 4.04s.012 2.986.061 4.043c.123 2.683 1.392 3.974 4.132 4.098 1.061.048 1.381.058 4.072.058 2.693 0 3.012-.012 4.076-.059 2.734-.123 4.006-1.411 4.132-4.099.048-1.055.058-1.371.058-4.041 0-2.67-.01-2.986-.058-4.04-.126-2.69-1.402-3.976-4.134-4.1zm-4.074 13.275c-2.858 0-5.176-2.299-5.176-5.135s2.317-5.135 5.176-5.135c2.858 0 5.177 2.299 5.177 5.135s-2.317 5.135-5.177 5.135zm5.381-9.273c-.668 0-1.21-.537-1.21-1.2 0-.662.542-1.2 1.21-1.2.668 0 1.21.538 1.21 1.2 0 .663-.541 1.2-1.21 1.2zm4.64 8.26c-.165 3.637-2.207 5.652-5.863 5.818-1.077.049-1.419.06-4.158.06-2.738 0-3.079-.011-4.155-.06-3.665-.166-5.696-2.185-5.865-5.817C.809 13.056.797 12.716.797 10c0-2.715.012-3.056.061-4.124C1.027 2.241 3.061.226 6.723.06 7.799.011 8.14 0 10.878 0c2.739 0 3.081.011 4.158.061 3.664.166 5.698 2.189 5.863 5.816.049 1.067.06 1.408.06 4.123 0 2.716-.011 3.056-.06 4.123z"/></symbol><symbol id="laptop" viewBox="0 0 36 30"><path d="M33 0H3v19.5h30zm-3 16.5H6V3h24zm3 4.5H3l-3 9h36zm-18.342 7.5l.699-1.5h5.286l.699 1.5z"/></symbol><symbol id="lat-lon-globe" viewBox="0 0 24 24"><path d="M12 0C5.373 0 0 5.373 0 12s5.373 12 12 12 12-5.373 12-12S18.627 0 12 0zm1 16.057V13h2.994a18.523 18.523 0 0 1-.456 3.279A24.257 24.257 0 0 0 13 16.057zm1.957 2.162c-.499 1.33-1.159 2.497-1.957 3.456v-3.62c.666.028 1.319.081 1.957.164zM13 11V7.985a24.177 24.177 0 0 0 2.548-.224c.238 1.027.389 2.111.446 3.239H13zm0-5.014V2.325c.806.969 1.471 2.15 1.971 3.496-.642.084-1.3.137-1.971.165zm2.703-3.267a10.028 10.028 0 0 1 3.29 2.146c-.642.234-1.311.442-2.019.607a15.322 15.322 0 0 0-1.271-2.753zm-7.241 13.56A18.431 18.431 0 0 1 8.006 13H11v3.057c-.865.034-1.714.102-2.538.222zM11 18.055v3.62c-.798-.959-1.458-2.126-1.957-3.456A22.505 22.505 0 0 1 11 18.055zM8.006 11c.057-1.128.207-2.212.446-3.239.827.121 1.68.19 2.548.224V11H8.006zM9.03 5.821c.5-1.346 1.165-2.527 1.97-3.496v3.661a22.35 22.35 0 0 1-1.97-.165zm-2.005-.35a17.35 17.35 0 0 1-2.018-.607 10.038 10.038 0 0 1 3.29-2.146 15.459 15.459 0 0 0-1.272 2.753zm-.549 1.918A20.38 20.38 0 0 0 5.984 11H2.051a9.925 9.925 0 0 1 1.617-4.518c.88.361 1.816.67 2.808.907zm.009 9.262a19.19 19.19 0 0 0-2.797.9A9.923 9.923 0 0 1 2.051 13h3.934c.058 1.265.231 2.488.5 3.651zm.553 1.917c.342.976.768 1.881 1.257 2.712a10.01 10.01 0 0 1-3.256-2.115 17.594 17.594 0 0 1 1.999-.597zm9.924 0c.7.163 1.362.367 1.999.597a10.06 10.06 0 0 1-3.257 2.116c.489-.832.915-1.737 1.258-2.713zm.553-1.917c.27-1.163.442-2.386.501-3.651h3.934a9.935 9.935 0 0 1-1.638 4.551 19.23 19.23 0 0 0-2.797-.9zM18.016 11a20.473 20.473 0 0 0-.492-3.611 19.078 19.078 0 0 0 2.809-.907A9.936 9.936 0 0 1 21.949 11h-3.933z"/></symbol><symbol id="linkedin" viewBox="0 0 20 20"><title>linkedin</title><path d="M4.645 19.75H.864V6h3.781zM2.754 4.415A2.206 2.206 0 1 1 2.755.004a2.206 2.206 0 0 1-.001 4.411zm17.012 6.886c0-6.566-7.06-6.327-8.821-3.095V6h-3.78v13.75h3.78v-7.005c0-3.891 5.041-4.21 5.041 0v7.005h3.78z"/></symbol><symbol id="login" viewBox="0 0 20 16"><path d="M6.67 5.6V2.4L13.33 8l-6.66 5.6v-3.2H0V5.6zM8.33 0v1.6h10v12.8h-10V16H20V0z"/></symbol><symbol id="mail" viewBox="0 0 32 24"><path d="M16 12.95L.02 0h31.961zM0 20.08V3.42l8.767 7.1zM32 3.42v16.66l-8.767-9.56zM21.157 12.2L16 16.38l-5.157-4.18L.029 24h31.942z"/></symbol><symbol id="marker" viewBox="0 0 14 20"><title>address icon</title><path d="M7 0C5.13 0 3.37.73 2.05 2.05-.39 4.5-.7 9.11 1.4 11.9L7 20l5.6-8.09c2.1-2.8 1.79-7.41-.65-9.86A6.96 6.96 0 0 0 7 0zM4.51 6.94c0-1.41 1.15-2.56 2.56-2.56 1.4 0 2.55 1.15 2.55 2.56 0 1.41-1.15 2.56-2.55 2.56-1.41 0-2.56-1.15-2.56-2.56z"/></symbol><symbol id="page-test" viewBox="0 0 54 56"><path d="M51.225 45.55c-1.039 5.13-5.07 8.58-10.028 8.58-4.681 0-8.795-3.08-10.194-7.46h4.376V44.8h-7.448v7.4c-1.494-2.14-2.475-4.66-2.722-7.4H10.241a.935.935 0 0 1 0-1.87h14.92c.06-1.98.482-3.87 1.224-5.6H10.241a.927.927 0 0 1-.931-.93c0-.52.417-.93.931-.93h17.117a15.4 15.4 0 0 1 5.818-5.6H10.241a.935.935 0 0 1 0-1.87h23.276c.514 0 .931.42.931.93 0 .13-.027.25-.07.35A15.253 15.253 0 0 1 40.5 28c1.119 0 2.207.13 3.259.36V13.61L30.179 0H0v56h31.695a15.59 15.59 0 0 1-3.719-3.73h1.817v-3.59C31.812 53.05 36.231 56 41.197 56c5.87 0 10.633-4.05 11.854-10.08a.93.93 0 0 0-.728-1.1.92.92 0 0 0-1.098.73zm-9.328-30.62H28.862V1.87zm-8.38 5.6a.935.935 0 0 1 0 1.87H10.241a.935.935 0 0 1 0-1.87zm-13.965-7.46c.514 0 .931.41.931.93s-.417.93-.931.93h-9.311A.927.927 0 0 1 9.31 14c0-.52.417-.93.931-.93zm32.586 24.55c-2.096-4.16-6.242-6.82-10.941-6.82-5.687 0-10.745 3.73-12.298 9.07-.143.5.14 1.02.634 1.16a.924.924 0 0 0 1.154-.64c1.301-4.47 5.721-7.72 10.51-7.72 4.25 0 7.971 2.58 9.618 6.53h-4.263v1.87H54V33.6h-1.862z"/></symbol><symbol id="phone" viewBox="0 0 33 37"><path d="M20.841 35.51C9.798 40.57-7.343 7.19 3.451 1.56L6.609 0l5.235 10.23-3.121 1.54c-3.281 1.77 3.553 15.14 6.909 13.51.136-.06 3.083-1.51 3.094-1.52l5.278 10.2c-.012.01-2.982 1.47-3.163 1.55zm.399-29.23a9.49 9.49 0 0 1 6.376 11.81l-2.69-.8a6.681 6.681 0 0 0-.528-5.09 6.65 6.65 0 0 0-3.962-3.22zM19.838 11a4.542 4.542 0 0 1 2.71 2.21c.6 1.11.694 2.35.36 3.48l-4.373-1.31zm2.003-6.74c2.84.85 5.359 2.78 6.881 5.6 1.52 2.82 1.757 5.99.912 8.83l2.758.83a14.45 14.45 0 0 0-1.141-11.03 14.41 14.41 0 0 0-8.587-6.99z"/></symbol><symbol id="profile" viewBox="0 0 32 32"><path d="M27.754 24.13c-4.582-1.06-8.847-1.99-6.782-5.89C27.261 6.35 22.639 0 16 0 9.229 0 4.723 6.6 11.028 18.24c2.127 3.92-2.299 4.85-6.782 5.89-4.094.94-4.247 2.98-4.234 6.54L.018 32H31.98l.005-1.29c.016-3.59-.123-5.63-4.231-6.58z"/></symbol><symbol id="quote" viewBox="0 0 55 46"><path d="M.99 45.99h22.43V22.915H12.29L23.42.008h-8.64L.99 22.915zm32.07-23.075L46.35.008h8.64L43.52 22.915h11.47V45.99H33.06z"/></symbol><symbol id="restore" viewBox="0 0 20 15"><path d="M7.5 7.5l-3.72 4.14L0 7.5h2.5C2.5 3.358 5.86 0 10 0c2 0 3.8.785 5.15 2.057l-1.67 1.859A4.983 4.983 0 0 0 10 2.5c-2.76 0-5 2.243-5 5zm8.72-4.14L12.5 7.5H15c0 2.757-2.24 5-5 5-1.35 0-2.58-.542-3.48-1.416l-1.67 1.859A7.472 7.472 0 0 0 10 15c4.14 0 7.5-3.358 7.5-7.5H20z"/></symbol><symbol id="search" viewBox="0 0 20 20"><path d="M19.99 17.4l-5.33-5.295a7.803 7.803 0 0 0 1.23-4.216C15.89 3.54 12.33 0 7.95 0 3.57 0 .01 3.54.01 7.89c0 4.351 3.56 7.891 7.94 7.891 1.48 0 2.87-.406 4.06-1.111L17.38 20zM2.97 7.89c0-2.728 2.23-4.948 4.98-4.948 2.75 0 4.98 2.22 4.98 4.948 0 2.729-2.23 4.949-4.98 4.949-2.75 0-4.98-2.22-4.98-4.949z"/></symbol><symbol id="settings" viewBox="0 0 16 16"><path d="M16 9.077V6.923c-1.101-.392-1.795-.502-2.146-1.346v-.001c-.351-.847.067-1.423.565-2.471L12.895 1.58c-1.04.495-1.622.917-2.471.565h-.001c-.846-.35-.956-1.05-1.346-2.146H6.923c-.388 1.09-.5 1.795-1.346 2.146h-.001c-.847.352-1.421-.065-2.471-.565L1.581 3.105c.497 1.045.917 1.622.565 2.471-.351.847-1.056.959-2.146 1.347v2.154c1.088.387 1.795.5 2.146 1.346.353.855-.076 1.444-.565 2.472l1.524 1.524c1.041-.496 1.622-.917 2.471-.565h.001c.846.35.957 1.053 1.346 2.146h2.154c.388-1.09.5-1.793 1.352-2.148.842-.35 1.414.067 2.466.567l1.523-1.524c-.495-1.042-.917-1.622-.565-2.47.351-.848 1.058-.96 2.147-1.348zm-8 2.256a3.333 3.333 0 1 1 0-6.666 3.333 3.333 0 0 1 0 6.666zM10 8c0 1.103-.897 2-2 2s-2-.897-2-2 .897-2 2-2 2 .897 2 2z"/></symbol><symbol id="twitter" viewBox="0 0 21 17"><title>twitter</title><path d="M18.558 4.546c.262 5.771-4.076 12.206-11.757 12.206-2.336 0-4.51-.678-6.341-1.843a8.371 8.371 0 0 0 6.124-1.699 4.135 4.135 0 0 1-3.863-2.85 4.189 4.189 0 0 0 1.867-.07C2.599 9.894 1.226 8.116 1.27 6.215a4.141 4.141 0 0 0 1.873.514 4.09 4.09 0 0 1-1.28-5.479 11.775 11.775 0 0 0 8.526 4.288C9.785 2.97 11.748.5 14.419.5c1.189 0 2.264.498 3.019 1.296a8.32 8.32 0 0 0 2.627-.995 4.118 4.118 0 0 1-1.818 2.27 8.34 8.34 0 0 0 2.375-.646 8.403 8.403 0 0 1-2.064 2.121z"/></symbol><symbol id="user-test" viewBox="0 0 54 51"><path d="M51.317 40.98c-1.004 4.92-4.9 8.23-9.693 8.23-4.525 0-8.501-2.95-9.853-7.16H35.1v-1.79h-6.3v6.27h1.8v-2.55A12.191 12.191 0 0 0 41.624 51c5.674 0 10.278-3.88 11.459-9.66a.9.9 0 0 0-.704-1.06.908.908 0 0 0-1.062.7zm.883-7.6c-2.025-3.98-6.034-6.54-10.576-6.54-5.498 0-10.387 3.58-11.888 8.7-.139.47.135.97.613 1.11a.902.902 0 0 0 1.115-.61c1.258-4.29 5.531-7.41 10.16-7.41 4.109 0 7.705 2.48 9.297 6.26H46.8v1.79H54v-7.15h-1.8zm-25.014-.13a.186.186 0 0 0 .013-.04c.206-.52.439-1.04.701-1.53 2.634-5 7.895-8.42 13.95-8.42.306 0 .605.03.906.05.048-.13.104-.26.15-.39A3.554 3.554 0 0 0 45 19.68v-3.57c0-.87-.324-1.7-.9-2.35V9c.05-.49.248-3.42-1.883-5.84C40.369 1.06 37.369 0 33.3 0s-7.069 1.06-8.917 3.16c-1.292 1.46-1.725 3.11-1.858 4.3-1.542-.79-3.36-1.2-5.425-1.2-9.35 0-9.895 7.93-9.9 8.06v4.09c-.583.63-.9 1.36-.9 2.09v3.09c0 .96.435 1.86 1.179 2.47.742 2.78 2.57 4.89 3.28 5.63v2.45c0 .7-.386 1.35-1.053 1.71l-5.988 3.74A7.077 7.077 0 0 0 0 45.81v3.4h30.008c-2.426-2.75-3.908-6.35-3.908-10.29 0-1.41.205-2.77.558-4.07.148-.54.326-1.08.528-1.6zM1.8 47.42v-1.61c0-1.94 1.065-3.72 2.78-4.65l.048-.03.046-.03 5.949-3.71c1.214-.68 1.937-1.89 1.937-3.25v-3.17l-.5-.52c-.503-.52-2.192-2.42-2.84-4.85l-.15-.55-.448-.37a1.405 1.405 0 0 1-.522-1.09V20.5c0-.27.151-.58.427-.88L9 19.11v-4.73c.07-.82.811-6.33 8.1-6.33 2.153 0 3.967.5 5.4 1.47v4.24c-.583.65-.9 1.47-.9 2.35v3.57a3.517 3.517 0 0 0 1.345 2.78l.002.01c.006.02.013.04.017.06.051.18.106.38.174.61l.067.21c.01.04.021.06.031.1.057.17.116.34.177.51.028.08.054.17.083.24.054.15.106.27.156.4.043.11.086.21.13.32.035.07.069.16.102.23h.004c.017.04.033.08.05.11h-.003l.067.15c.088.19.176.38.266.56l.044.09c.024.05.048.09.073.13.14.28.278.53.415.77.017.03.032.06.047.08.518.9.991 1.56 1.252 1.9l.001 2.31c-.4.81-.738 1.67-1.012 2.56-.077.06-.144.12-.227.17l-8.03 4.35c-.222.12-.427.27-.635.4-.097.07-.202.12-.296.19-.016.01-.029.03-.046.04a8.048 8.048 0 0 0-3.254 6.46v2z"/></symbol><symbol id="wait-time" viewBox="0 0 40 40"><title>icon</title><path d="M40 20c0 11.045-8.96 20-20.01 20-1.8 0-3.54-.26-5.2-.705l1.11-3.157c1.31.332 2.68.529 4.09.529 9.2 0 16.68-7.477 16.68-16.667 0-9.19-7.48-16.667-16.68-16.667-3.72 0-7.15 1.24-9.93 3.316l3.42 3.414L1.79 12.32 4.05.632 7.68 4.27C11.08 1.607 15.34 0 19.99 0 31.04 0 40 8.955 40 20zM21.67 10v10H30v3.333H18.33V10zM5.78 28.667c.56.91 1.2 1.761 1.91 2.546l-2.34 2.389a20.092 20.092 0 0 1-2.56-3.43zm2.04 7.181l2.36-2.405a16.69 16.69 0 0 0 2.59 1.555l-1.11 3.165a19.847 19.847 0 0 1-3.84-2.315zM4.33 25.662l-2.99 1.51a19.43 19.43 0 0 1-1.09-4.101l3.33-.264c.16.983.42 1.936.75 2.855zM0 19.748l3.36-.268c.04-1.172.21-2.31.48-3.412H.38c-.24 1.19-.36 2.422-.38 3.68z"/></symbol><symbol id="youtube" viewBox="0 0 21 16"><title>youtube</title><path d="M7.795 4.666l6.72 3.328-6.72 3.34zM20.396 8c-.025-5.154-.407-7.125-3.683-7.346C13.685.449 6.942.45 3.919.654.645.875.259 2.837.234 8c.025 5.154.407 7.125 3.683 7.346 3.023.204 9.766.205 12.794 0 3.274-.221 3.66-2.184 3.685-7.346z"/></symbol></svg>