<?xml version="1.0" encoding="UTF-8"?><!DOCTYPE svg PUBLIC "-//W3C//DTD SVG 1.1//EN" "http://www.w3.org/Graphics/SVG/1.1/DTD/svg11.dtd"><svg xmlns="http://www.w3.org/2000/svg"><symbol id="alerts" viewBox="0 0 14 16"><path d="M9.2 2.63c-.45-.25-.73-.713-.73-1.213v-.002C8.47.633 7.81 0 7 0c-.81 0-1.47.633-1.47 1.415v.002c0 .5-.28.964-.73 1.213C1.54 4.438 3.41 10.44 0 11.5v1.167h14V11.5c-3.41-1.061-1.54-7.063-4.8-8.871zM7 .667c.39 0 .7.299.7.666C7.7 1.701 7.39 2 7 2c-.39 0-.7-.299-.7-.667 0-.367.31-.666.7-.666zM9.1 14c0 1.065-.97 2-2.08 2s-2.12-.935-2.12-2z"/></symbol><symbol id="arrow" viewBox="0 0 16 18"><path d="M12.721 6.28L15.423 9l-2.702 2.72-5.403 5.45-2.701-2.72 3.498-3.53H.443V7.07h7.66L4.617 3.55 7.318.83z"/></symbol><symbol id="blog" viewBox="0 0 32 30"><path d="M.967 0v30H31.21V0zm14.3 25c-.051-5.036-4.176-9.123-9.259-9.174v-4.009c7.326.052 13.254 5.924 13.307 13.183zM8.74 25c-1.509 0-2.732-1.211-2.732-2.706 0-1.495 1.223-2.707 2.732-2.707 1.508 0 2.73 1.212 2.73 2.707 0 1.495-1.222 2.706-2.73 2.706zm13.384 0c-.027-8.829-7.229-15.951-16.116-15.99V5c11.127.039 20.137 8.974 20.162 20z"/></symbol><symbol id="building" viewBox="0 0 16 16"><path d="M8.73 1.592V0H7.27v1.592c-2.06.364-3.63 2.239-3.63 4.503h8.72c0-2.264-1.57-4.14-3.63-4.503zm6.54 9.837h-2.18V8.38c0-.42-.32-.762-.73-.762H3.64c-.41 0-.73.341-.73.762v3.048H.73c-.4 0-.73.34-.73.761v3.048c0 .421.33.762.73.762h14.54c.4 0 .73-.34.73-.762v-3.047c0-.421-.33-.762-.73-.762zM2.91 14.476H1.45v-1.524h1.46zm2.91 0H4.36v-1.524h1.46zm0-3.81H4.36V9.144h1.46zm2.91 3.81H7.27v-1.524h1.46zm0-3.81H7.27V9.144h1.46zm2.91 3.81h-1.46v-1.524h1.46zm0-3.81h-1.46V9.144h1.46zm2.91 3.81h-1.46v-1.524h1.46z"/></symbol><symbol id="camping" viewBox="0 0 60 54"><path d="M59 21c-3.53 0-6.451-2.631-6.925-6.033A6.973 6.973 0 0 0 57 17a1 1 0 1 0 0-2c-2.757 0-5-2.243-5-5v-.026A4.948 4.948 0 0 0 55 11a1 1 0 1 0 0-2c-1.654 0-3-1.346-3-3a1 1 0 1 0-2 0c0 1.654-1.346 3-3 3a1 1 0 1 0 0 2c1.13 0 2.162-.391 3-1.026V10c0 2.757-2.243 5-5 5a1 1 0 1 0 0 2 6.973 6.973 0 0 0 4.925-2.033C49.451 18.369 46.53 21 43 21a1 1 0 1 0 0 2 8.985 8.985 0 0 0 7-3.355V24a1 1 0 1 0 2 0v-4.355A8.985 8.985 0 0 0 59 23a1 1 0 1 0 0-2M8 19.645V24a1 1 0 1 0 2 0v-4.355A8.985 8.985 0 0 0 17 23a1 1 0 1 0 0-2c-3.53 0-6.451-2.631-6.925-6.033A6.973 6.973 0 0 0 15 17a1 1 0 1 0 0-2c-2.757 0-5-2.243-5-5v-.026A4.948 4.948 0 0 0 13 11a1 1 0 1 0 0-2c-1.654 0-3-1.346-3-3a1 1 0 1 0-2 0c0 1.654-1.346 3-3 3a1 1 0 1 0 0 2c1.13 0 2.162-.391 3-1.026V10c0 2.757-2.243 5-5 5a1 1 0 1 0 0 2 6.973 6.973 0 0 0 4.925-2.033C7.451 18.369 4.53 21 1 21a1 1 0 1 0 0 2 8.985 8.985 0 0 0 7-3.355M22 18a8.985 8.985 0 0 0 7-3.355V19a1 1 0 1 0 2 0v-4.355A8.985 8.985 0 0 0 38 18a1 1 0 1 0 0-2c-3.53 0-6.451-2.631-6.925-6.033A6.973 6.973 0 0 0 36 12a1 1 0 1 0 0-2c-2.757 0-5-2.243-5-5v-.026A4.948 4.948 0 0 0 34 6a1 1 0 1 0 0-2c-1.654 0-3-1.346-3-3a1 1 0 1 0-2 0c0 1.654-1.346 3-3 3a1 1 0 1 0 0 2c1.13 0 2.162-.391 3-1.026V5c0 2.757-2.243 5-5 5a1 1 0 1 0 0 2 6.973 6.973 0 0 0 4.925-2.033C28.451 13.369 25.53 16 22 16a1 1 0 1 0 0 2M55.674 40h-8.762l-5.091-8h5.853A2.33 2.33 0 0 0 50 29.674v-2.348A2.33 2.33 0 0 0 47.674 25H13.326A2.33 2.33 0 0 0 11 27.326v2.348A2.33 2.33 0 0 0 13.326 32h5.852l-5.09 8H4.326A2.33 2.33 0 0 0 2 42.326v2.348A2.33 2.33 0 0 0 4.326 47h5.307l-2.726 4.283A1.767 1.767 0 1 0 8.398 54h4.18c.607 0 1.164-.306 1.492-.818L18.003 47h24.994l3.934 6.183c.327.511.884.817 1.491.817h4.18a1.767 1.767 0 0 0 1.491-2.718L51.368 47h4.306A2.33 2.33 0 0 0 58 44.674v-2.348A2.33 2.33 0 0 0 55.674 40zm-11.132 0h-3.63l-5.091-8h3.63l5.091 8zm-6 0H22.458l5.091-8h5.902l5.091 8zm-16.993-8h3.63l-5.091 8h-3.63l5.091-8zm-9.098 20h-3.63l3.182-5h3.63l-3.182 5zm39.728 0h-3.63l-3.182-5h3.63l3.182 5z"/></symbol><symbol id="external-link" viewBox="0 0 17 16"><path d="M4.199 12.799V0h-3.2v15.998h15.999v-3.2zM8.294 1.003l.011 2.558 3.3.013-3.611 3.61L9.809 9l3.617-3.616.014 3.312 2.557.01-.021-5.115-.01-2.557-2.557-.01z"/></symbol><symbol id="facebook" viewBox="0 0 31 30"><path d="M0 0v30h30.243V0zm20.162 8.75h-2.423c-.776 0-1.357.315-1.357 1.111v1.389h3.78L19.861 15h-3.479v10h-3.781V15h-2.52v-3.75h2.52V8.846C12.601 6.319 13.942 5 16.963 5h3.199z"/></symbol><symbol id="instagram" viewBox="0 0 31 30"><path d="M31 0v30H.757V0zM19.952 6.86c-1.062-.047-1.382-.057-4.074-.057-2.691 0-3.01.01-4.074.058-2.734.123-4.007 1.409-4.131 4.099-.048 1.054-.06 1.37-.06 4.04s.012 2.986.061 4.043c.123 2.683 1.392 3.974 4.132 4.098 1.061.048 1.381.058 4.072.058 2.693 0 3.012-.011 4.076-.059 2.734-.123 4.006-1.411 4.132-4.099.048-1.055.058-1.371.058-4.041 0-2.67-.01-2.986-.058-4.04-.126-2.69-1.402-3.976-4.134-4.1zm-4.074 13.275c-2.858 0-5.176-2.299-5.176-5.135s2.317-5.135 5.176-5.135c2.858 0 5.177 2.299 5.177 5.135s-2.317 5.135-5.177 5.135zm0-8.469c-1.856 0-3.36 1.493-3.36 3.334 0 1.843 1.504 3.334 3.36 3.334 1.857 0 3.361-1.493 3.361-3.334s-1.504-3.334-3.361-3.334zm5.381-.804c-.668 0-1.21-.537-1.21-1.2 0-.662.542-1.199 1.21-1.199.668 0 1.21.537 1.21 1.199 0 .663-.541 1.2-1.21 1.2zm4.7 4.138c0-2.715-.011-3.056-.06-4.122-.165-3.628-2.199-5.65-5.863-5.817C18.959 5.011 18.617 5 15.878 5c-2.738 0-3.079.011-4.155.06-3.662.166-5.696 2.181-5.865 5.816-.049 1.068-.061 1.409-.061 4.124 0 2.716.012 3.056.061 4.122.169 3.633 2.2 5.652 5.865 5.818 1.076.049 1.417.06 4.155.06 2.739 0 3.081-.011 4.158-.06 3.656-.166 5.698-2.181 5.863-5.818.049-1.066.06-1.406.06-4.122z"/></symbol><symbol id="laptop" viewBox="0 0 36 30"><path d="M33 0H3v19.5h30zm-3 16.5H6V3h24zm3 4.5H3l-3 9h36zm-18.342 7.5l.699-1.5h5.286l.699 1.5z"/></symbol><symbol id="linkedin" viewBox="0 0 31 30"><path d="M.564 0v30h30.243V0zm10.081 23.75H6.864V10h3.781zM8.754 8.415a2.206 2.206 0 1 1 .002-4.412 2.206 2.206 0 0 1-.002 4.412zM25.766 23.75h-3.78v-7.005c0-4.21-5.041-3.891-5.041 0v7.005h-3.78V10h3.78v2.206c1.761-3.232 8.821-3.471 8.821 3.095z"/></symbol><symbol id="login" viewBox="0 0 20 16"><path d="M6.67 5.6V2.4L13.33 8l-6.66 5.6v-3.2H0V5.6zM8.33 0v1.6h10v12.8h-10V16H20V0z"/></symbol><symbol id="mail" viewBox="0 0 32 24"><path d="M16 12.95L.02 0h31.961zM0 20.08V3.42l8.767 7.1zM32 3.42v16.66l-8.767-9.56zM21.157 12.2L16 16.38l-5.157-4.18L.029 24h31.942z"/></symbol><symbol id="map" viewBox="0 0 24 24"><path d="M0 20.21V1.26l8.211 3.79L15.789 0 24 3.79v18.95l-8.211-3.79L8.211 24zM15.158 3.16v13.89h1.895V3.16zM6.947 6.95v13.89h1.895V6.95z"/></symbol><symbol id="phone" viewBox="0 0 33 37"><path d="M20.841 35.51C9.798 40.57-7.343 7.19 3.451 1.56L6.609 0l5.235 10.23-3.121 1.54c-3.281 1.77 3.553 15.14 6.909 13.51.136-.06 3.083-1.51 3.094-1.52l5.278 10.2c-.012.01-2.982 1.47-3.163 1.55zm.399-29.23a9.49 9.49 0 0 1 6.376 11.81l-2.69-.8a6.681 6.681 0 0 0-.528-5.09 6.65 6.65 0 0 0-3.962-3.22zM19.838 11a4.542 4.542 0 0 1 2.71 2.21c.6 1.11.694 2.35.36 3.48l-4.373-1.31zm2.003-6.74c2.84.85 5.359 2.78 6.881 5.6 1.52 2.82 1.757 5.99.912 8.83l2.758.83a14.45 14.45 0 0 0-1.141-11.03 14.41 14.41 0 0 0-8.587-6.99z"/></symbol><symbol id="profile" viewBox="0 0 32 32"><path d="M27.754 24.13c-4.582-1.06-8.847-1.99-6.782-5.89C27.261 6.35 22.639 0 16 0 9.229 0 4.723 6.6 11.028 18.24c2.127 3.92-2.299 4.85-6.782 5.89-4.094.94-4.247 2.98-4.234 6.54L.018 32H31.98l.005-1.29c.016-3.59-.123-5.63-4.231-6.58z"/></symbol><symbol id="quote" viewBox="0 0 55 46"><path d="M.99 45.99h22.43V22.915H12.29L23.42.008h-8.64L.99 22.915zm32.07-23.075L46.35.008h8.64L43.52 22.915h11.47V45.99H33.06z"/></symbol><symbol id="restore" viewBox="0 0 20 15"><path d="M7.5 7.5l-3.72 4.14L0 7.5h2.5C2.5 3.358 5.86 0 10 0c2 0 3.8.785 5.15 2.057l-1.67 1.859A4.983 4.983 0 0 0 10 2.5c-2.76 0-5 2.243-5 5zm8.72-4.14L12.5 7.5H15c0 2.757-2.24 5-5 5-1.35 0-2.58-.542-3.48-1.416l-1.67 1.859A7.472 7.472 0 0 0 10 15c4.14 0 7.5-3.358 7.5-7.5H20z"/></symbol><symbol id="search" viewBox="0 0 20 20"><path d="M19.99 17.4l-5.33-5.295a7.803 7.803 0 0 0 1.23-4.216C15.89 3.54 12.33 0 7.95 0 3.57 0 .01 3.54.01 7.89c0 4.351 3.56 7.891 7.94 7.891 1.48 0 2.87-.406 4.06-1.111L17.38 20zM2.97 7.89c0-2.728 2.23-4.948 4.98-4.948 2.75 0 4.98 2.22 4.98 4.948 0 2.729-2.23 4.949-4.98 4.949-2.75 0-4.98-2.22-4.98-4.949z"/></symbol><symbol id="settings" viewBox="0 0 16 16"><path d="M16 9.077V6.923c-1.101-.392-1.795-.502-2.146-1.346v-.001c-.351-.847.067-1.423.565-2.471L12.895 1.58c-1.04.495-1.622.917-2.471.565h-.001c-.846-.35-.956-1.05-1.346-2.146H6.923c-.388 1.09-.5 1.795-1.346 2.146h-.001c-.847.352-1.421-.065-2.471-.565L1.581 3.105c.497 1.045.917 1.622.565 2.471-.351.847-1.056.959-2.146 1.347v2.154c1.088.387 1.795.5 2.146 1.346.353.855-.076 1.444-.565 2.472l1.524 1.524c1.041-.496 1.622-.917 2.471-.565h.001c.846.35.957 1.053 1.346 2.146h2.154c.388-1.09.5-1.793 1.352-2.148.842-.35 1.414.067 2.466.567l1.523-1.524c-.495-1.042-.917-1.622-.565-2.47.351-.848 1.058-.96 2.147-1.348zm-8 2.256a3.333 3.333 0 1 1 0-6.666 3.333 3.333 0 0 1 0 6.666zM10 8c0 1.103-.897 2-2 2s-2-.897-2-2 .897-2 2-2 2 .897 2 2z"/></symbol><symbol id="twitter" viewBox="0 0 32 30"><path d="M.79 0v30h30.243V0zm23.768 11.546c.262 5.772-4.076 12.207-11.757 12.207-2.336 0-4.51-.679-6.341-1.844a8.373 8.373 0 0 0 6.124-1.699 4.136 4.136 0 0 1-3.863-2.85 4.2 4.2 0 0 0 1.867-.07c-1.989-.396-3.362-2.174-3.317-4.075a4.15 4.15 0 0 0 1.872.514 4.09 4.09 0 0 1-1.28-5.479 11.78 11.78 0 0 0 8.526 4.288c-.604-2.567 1.359-5.038 4.03-5.038 1.189 0 2.264.498 3.019 1.296a8.328 8.328 0 0 0 2.627-.995 4.115 4.115 0 0 1-1.818 2.27c.837-.1 1.634-.32 2.375-.646a8.405 8.405 0 0 1-2.064 2.121z"/></symbol><symbol id="youtube" viewBox="0 0 31 30"><path d="M.194 0v30h30.243V0zm12.601 11.666l6.72 3.328-6.72 3.34zm8.916 10.68c-3.028.205-9.771.204-12.794 0-3.276-.221-3.658-2.192-3.683-7.346.025-5.162.411-7.125 3.685-7.346 3.023-.204 9.766-.205 12.794 0 3.276.221 3.658 2.192 3.683 7.346-.025 5.163-.411 7.125-3.685 7.346z"/></symbol></svg>