<?xml version="1.0" encoding="UTF-8"?><!DOCTYPE svg PUBLIC "-//W3C//DTD SVG 1.1//EN" "http://www.w3.org/Graphics/SVG/1.1/DTD/svg11.dtd"><svg xmlns="http://www.w3.org/2000/svg"><symbol id="alerts" viewBox="0 0 14 16"><path d="M9.2 2.63c-.45-.25-.73-.713-.73-1.213v-.002C8.47.633 7.81 0 7 0c-.81 0-1.47.633-1.47 1.415v.002c0 .5-.28.964-.73 1.213C1.54 4.438 3.41 10.44 0 11.5v1.167h14V11.5c-3.41-1.061-1.54-7.063-4.8-8.871zM7 .667c.39 0 .7.299.7.666C7.7 1.701 7.39 2 7 2c-.39 0-.7-.299-.7-.667 0-.367.31-.666.7-.666zM9.1 14c0 1.065-.97 2-2.08 2s-2.12-.935-2.12-2z"/></symbol><symbol id="apple" viewBox="0 0 48 61"><path d="M29.188 60c-.868 0-1.734-.1-2.592-.29a11.657 11.657 0 0 0-5.19 0c-3.881.88-7.918-.25-11.675-3.25C4.042 51.91.044 43.85.008 36.87c-.049-9.44 1.817-15.53 5.704-18.61 4.339-3.43 10.488-2.48 15.36-1.27.462.116.931.204 1.403.264-.741-3.355-2.443-6.693-5.521-8.344a1.018 1.018 0 0 1-.415-1.37.996.996 0 0 1 1.364-.42c2.214 1.19 3.824 3.07 4.941 5.22l.327-2.2c.717-4.85 4.438-8.59 9.26-9.31l5.464-.82-.813 5.49c-.718 4.85-4.44 8.59-9.261 9.31l-3.758.57c.196.648.357 1.304.486 1.958a12.05 12.05 0 0 0 2.382-.348c4.872-1.21 11.019-2.16 15.359 1.27 3.886 3.08 5.753 9.17 5.704 18.61-.035 6.98-4.033 15.04-9.722 19.59C35.346 58.8 32.249 60 29.188 60zm-5.187-2.61c1.022 0 2.045.11 3.039.34 4.123.93 7.702-1.04 9.977-2.86 5.161-4.13 8.929-11.7 8.961-18.01.045-8.78-1.569-14.34-4.935-17.01-2.85-2.25-7.054-2.53-13.628-.89-.843.208-1.705.337-2.57.388.047.48.078.952.092 1.412.018.56-.419 1.03-.975 1.05h-.033c-.542 0-.99-.43-1.007-.98-.015-.49-.05-.994-.107-1.506a14.211 14.211 0 0 1-2.227-.364c-6.576-1.64-10.779-1.36-13.629.89-3.366 2.67-4.98 8.23-4.936 17.01.033 6.31 3.802 13.88 8.963 18.01 2.275 1.82 5.853 3.8 9.976 2.86.994-.23 2.017-.34 3.039-.34zM6.054 31.62c-.556 0-1.008-.46-1.008-1.02 0-5.59 4.07-10.13 9.072-10.13.557 0 1.008.45 1.008 1.01s-.451 1.01-1.008 1.01c-3.89 0-7.056 3.64-7.056 8.11 0 .56-.451 1.02-1.008 1.02zM34.039 2.63l-1.311.2c-3.938.59-6.978 3.65-7.563 7.6l-.196 1.32zm1.181 1.68l-8.581 8.63.885-.13c3.938-.59 6.977-3.65 7.564-7.61zM23.839 24.07a6.307 6.307 0 0 1-4.485-1.87 1.025 1.025 0 0 1 0-1.44 1.014 1.014 0 0 1 1.425 0 4.262 4.262 0 0 0 3.06 1.28c1.155 0 2.242-.45 3.06-1.28a1.014 1.014 0 0 1 1.425 0c.394.4.394 1.04 0 1.44a6.305 6.305 0 0 1-4.485 1.87z"/></symbol><symbol id="arrow" viewBox="0 0 16 18"><path d="M12.721 6.28L15.423 9l-2.702 2.72-5.403 5.45-2.701-2.72 3.498-3.53H.443V7.07h7.66L4.617 3.55 7.318.83z"/></symbol><symbol id="bag-search"><path d="M8.897 41.94V9.65h34.296v21.56c.596-.34 1.292-.59 1.988-.79V9.65h4.175c.398 0 .746.35.746.74v20.23c.696.25 1.392.59 1.988.98V10.39c0-1.48-1.243-2.71-2.734-2.71h-1.59V6.11c0-.55-.448-.99-.994-.99h-6.909a.991.991 0 0 0-.994.99v1.57h-3.181V2.86c0-1.58-1.293-2.86-2.883-2.86h-13.47c-1.59 0-2.933 1.28-2.933 2.86v4.82h-3.181V6.11c0-.55-.447-.99-.994-.99H5.318a.992.992 0 0 0-.994.99v1.57h-1.59C1.243 7.68 0 8.91 0 10.39V41.2c0 1.48 1.243 2.71 2.734 2.71h37.949a8.483 8.483 0 0 0 6.586 3.15c1.69 0 3.28-.49 4.622-1.38l-.596-.59c-.149-.34-.249-.59-.199-.88a.85.85 0 0 1 .273-.63 6.415 6.415 0 0 1-4.051 1.41c-3.578 0-6.461-2.85-6.461-6.4 0-3.54 2.883-6.39 6.461-6.39 3.579 0 6.462 2.85 6.462 6.39 0 1.53-.547 2.96-1.491 4.09l.043-.041a5.949 5.949 0 0 1-.789.781l-.049.05c-.199.19-.348.44-.348.69 0 .29.099.54.298.73l.596.6 5.269 5.21c.199.2.447.3.696.3a.98.98 0 0 0 .696-.3l1.043-1.03c.348-.34.348-.94-.049-1.33l-5.269-5.22-.02-.02a8.157 8.157 0 0 0 1.312-4.46c0-2.85-1.441-5.41-3.678-6.89a9.194 9.194 0 0 0-1.988-.98c-.894-.3-1.789-.49-2.783-.49a7.61 7.61 0 0 0-2.138.29c-.695.2-1.391.44-1.988.79a8.369 8.369 0 0 0-4.324 7.33c0 1.17.226 2.26.676 3.25zm-1.988 0H2.734a.758.758 0 0 1-.746-.74V10.39c0-.39.348-.74.746-.74h4.175zM18.391 2.86c0-.49.397-.89.894-.89h13.52c.497 0 .895.4.895.89v4.82H18.391zm22.466 4.23h4.921v.59h-4.921zm-34.544 0h4.92v.59h-4.92zm45.976 35.54c-.249.3-.497.54-.795.79.298-.2.546-.49.795-.79zm-.845.89z"/></symbol><symbol id="blog" viewBox="0 0 32 30"><path d="M.967 0v30H31.21V0zm14.3 25c-.051-5.036-4.176-9.123-9.259-9.174v-4.009c7.326.052 13.254 5.924 13.307 13.183zM8.74 25c-1.509 0-2.732-1.211-2.732-2.706 0-1.495 1.223-2.707 2.732-2.707 1.508 0 2.73 1.212 2.73 2.707 0 1.495-1.222 2.706-2.73 2.706zm13.384 0c-.027-8.829-7.229-15.951-16.116-15.99V5c11.127.039 20.137 8.974 20.162 20z"/></symbol><symbol id="building" viewBox="0 0 16 16"><path d="M8.73 1.592V0H7.27v1.592c-2.06.364-3.63 2.239-3.63 4.503h8.72c0-2.264-1.57-4.14-3.63-4.503zm6.54 9.837h-2.18V8.38c0-.42-.32-.762-.73-.762H3.64c-.41 0-.73.341-.73.762v3.048H.73c-.4 0-.73.34-.73.761v3.048c0 .421.33.762.73.762h14.54c.4 0 .73-.34.73-.762v-3.047c0-.421-.33-.762-.73-.762zM2.91 14.476H1.45v-1.524h1.46zm2.91 0H4.36v-1.524h1.46zm0-3.81H4.36V9.144h1.46zm2.91 3.81H7.27v-1.524h1.46zm0-3.81H7.27V9.144h1.46zm2.91 3.81h-1.46v-1.524h1.46zm0-3.81h-1.46V9.144h1.46zm2.91 3.81h-1.46v-1.524h1.46z"/></symbol><symbol id="campfire" viewBox="0 0 32 28"><path d="M31.004 24.992a2.798 2.798 0 0 0-.072-.484c-.006-.026-.01-.051-.017-.076a2.957 2.957 0 0 0-.169-.467c-.005-.012-.007-.024-.013-.036-.006-.013-.015-.023-.022-.036a2.891 2.891 0 0 0-.251-.416l-.06-.076a2.817 2.817 0 0 0-.314-.342c-.022-.021-.047-.04-.07-.06-.12-.104-.248-.2-.387-.284-.018-.011-.037-.019-.055-.03a2.877 2.877 0 0 0-.456-.212c-.007-.004-.013-.008-.021-.01l-.012-.004-7.46-2.641c1.813-1.859 2.965-4.632 2.965-7.892 0-5.995-1.574-8.296-1.574-8.296 0 4.926-4.195 8.296-4.195 8.296 0-3.889-1.573-7.259-1.573-7.259 0 3.046-2.098 4.666-2.098 4.666-2.802-2.771 0-9.333 0-9.333-3.99.52-7.564 3.241-7.564 7.778 0 3.208.907 5.343 2.321 6.74 0 0-1.255-.719-2.507-1.194.331 2.594 1.427 4.874 2.992 6.488l-7.475 2.647-.013.004c-.007.002-.013.006-.021.01-.161.058-.312.13-.455.212-.019.011-.038.019-.055.03-.139.084-.267.18-.387.284-.024.02-.048.039-.071.06a2.891 2.891 0 0 0-.313.342c-.02.026-.041.05-.06.076a2.991 2.991 0 0 0-.252.416c-.006.013-.015.023-.021.036-.006.012-.008.024-.013.036a2.77 2.77 0 0 0-.259 1.027v.058c-.007.167 0 .337.025.506l.005.023c.027.178.071.356.134.531.138.381.358.713.629.995A2.9 2.9 0 0 0 3.877 28h.005a2.9 2.9 0 0 0 .967-.166l11.152-3.949 11.152 3.949c.311.11.636.166.966.166h.006c.799 0 1.54-.333 2.073-.88a2.82 2.82 0 0 0 .642-1.01 2.74 2.74 0 0 0 .135-.531l.005-.023a2.87 2.87 0 0 0 .025-.506c-.001-.019.001-.039-.001-.058zM14.55 12.447a.538.538 0 0 1 .464.192.514.514 0 0 1 .087.489c-.216.641-.402 1.675-.224 2.181.327-.051.825-.186.825-.537 0-.241.166-.449.402-.504a.525.525 0 0 1 .59.269c.022.044.412.814.622 1.795.447-.542.935-1.314.935-2.103a.527.527 0 0 1 .922-.337c.085.097.822 1.012.822 3.231 0 2.272-1.835 4.058-4.202 4.129a6.537 6.537 0 0 1-1.562-.223c-1.487-.494-2.616-1.745-2.874-3.336a.516.516 0 0 1 .326-.565 3.973 3.973 0 0 1-.25-1.452c0-1.875 1.107-3.022 3.117-3.229zm15.323 13.235c-.009.026-.011.052-.02.078a1.8 1.8 0 0 1-.371.601 1.855 1.855 0 0 1-1.36.602 1.861 1.861 0 0 1-.616-.107 1.818 1.818 0 0 1-1.04-.933 1.785 1.785 0 0 1-.069-1.388 1.84 1.84 0 0 1 2.333-1.099l.014.004a1.82 1.82 0 0 1 1.21 1.581c0 .01.003.019.004.028.004.089-.003.18-.012.27-.003.029 0 .059-.005.088a1.84 1.84 0 0 1-.068.275zM5.604 24.535a1.811 1.811 0 0 1-1.108 2.321c-.2.071-.407.106-.616.107a1.851 1.851 0 0 1-1.36-.602 1.779 1.779 0 0 1-.371-.601c-.01-.026-.012-.052-.02-.078a1.844 1.844 0 0 1-.069-.275c-.004-.029-.001-.059-.005-.088a1.882 1.882 0 0 1-.011-.27c0-.009.004-.018.004-.028a1.82 1.82 0 0 1 1.21-1.581l.013-.004a1.837 1.837 0 0 1 2.333 1.099zm1.142.87l.014.002a.532.532 0 0 0 .166-.026l3.146-1.037a.518.518 0 1 0-.331-.984l-3.09 1.018c-.019-.064-.036-.128-.059-.192a2.78 2.78 0 0 0-.167-.368l1.55-.511a.52.52 0 1 0-.332-.984l-1.573.518a.512.512 0 0 0-.257.201 2.862 2.862 0 0 0-.471-.34l5.798-2.053c1.204.9 2.547 1.438 3.949 1.594l.078.01c.255.026.511.043.77.043.263 0 .524-.018.783-.044.085-.009.169-.021.253-.032.176-.025.352-.055.526-.092.091-.019.182-.035.272-.058.231-.057.461-.123.688-.202.085-.03.166-.066.25-.099.159-.061.318-.127.476-.199.084-.04.167-.081.25-.124.197-.099.393-.207.584-.324.019-.012.038-.021.056-.033.236-.146.469-.301.696-.472l5.888 2.085c-.197.116-.384.25-.549.409a.523.523 0 0 0-.306-.27l-1.573-.518a.52.52 0 1 0-.332.984l1.574.518c.031.011.062.011.094.015a2.635 2.635 0 0 0-.157.346c-.03.082-.042.166-.064.249-.023-.012-.041-.03-.066-.038l-3.147-1.037a.524.524 0 0 0-.663.328.517.517 0 0 0 .332.656l3.146 1.037a.532.532 0 0 0 .31.004c.021.251.082.496.171.736l-9.428-3.338-9.413 3.333c.083-.227.135-.466.158-.711z"/></symbol><symbol id="camping" viewBox="0 0 60 54"><path d="M59 21c-3.53 0-6.451-2.631-6.925-6.033A6.973 6.973 0 0 0 57 17a1 1 0 1 0 0-2c-2.757 0-5-2.243-5-5v-.026A4.948 4.948 0 0 0 55 11a1 1 0 1 0 0-2c-1.654 0-3-1.346-3-3a1 1 0 1 0-2 0c0 1.654-1.346 3-3 3a1 1 0 1 0 0 2c1.13 0 2.162-.391 3-1.026V10c0 2.757-2.243 5-5 5a1 1 0 1 0 0 2 6.973 6.973 0 0 0 4.925-2.033C49.451 18.369 46.53 21 43 21a1 1 0 1 0 0 2 8.985 8.985 0 0 0 7-3.355V24a1 1 0 1 0 2 0v-4.355A8.985 8.985 0 0 0 59 23a1 1 0 1 0 0-2M8 19.645V24a1 1 0 1 0 2 0v-4.355A8.985 8.985 0 0 0 17 23a1 1 0 1 0 0-2c-3.53 0-6.451-2.631-6.925-6.033A6.973 6.973 0 0 0 15 17a1 1 0 1 0 0-2c-2.757 0-5-2.243-5-5v-.026A4.948 4.948 0 0 0 13 11a1 1 0 1 0 0-2c-1.654 0-3-1.346-3-3a1 1 0 1 0-2 0c0 1.654-1.346 3-3 3a1 1 0 1 0 0 2c1.13 0 2.162-.391 3-1.026V10c0 2.757-2.243 5-5 5a1 1 0 1 0 0 2 6.973 6.973 0 0 0 4.925-2.033C7.451 18.369 4.53 21 1 21a1 1 0 1 0 0 2 8.985 8.985 0 0 0 7-3.355M22 18a8.985 8.985 0 0 0 7-3.355V19a1 1 0 1 0 2 0v-4.355A8.985 8.985 0 0 0 38 18a1 1 0 1 0 0-2c-3.53 0-6.451-2.631-6.925-6.033A6.973 6.973 0 0 0 36 12a1 1 0 1 0 0-2c-2.757 0-5-2.243-5-5v-.026A4.948 4.948 0 0 0 34 6a1 1 0 1 0 0-2c-1.654 0-3-1.346-3-3a1 1 0 1 0-2 0c0 1.654-1.346 3-3 3a1 1 0 1 0 0 2c1.13 0 2.162-.391 3-1.026V5c0 2.757-2.243 5-5 5a1 1 0 1 0 0 2 6.973 6.973 0 0 0 4.925-2.033C28.451 13.369 25.53 16 22 16a1 1 0 1 0 0 2M55.674 40h-8.762l-5.091-8h5.853A2.33 2.33 0 0 0 50 29.674v-2.348A2.33 2.33 0 0 0 47.674 25H13.326A2.33 2.33 0 0 0 11 27.326v2.348A2.33 2.33 0 0 0 13.326 32h5.852l-5.09 8H4.326A2.33 2.33 0 0 0 2 42.326v2.348A2.33 2.33 0 0 0 4.326 47h5.307l-2.726 4.283A1.767 1.767 0 1 0 8.398 54h4.18c.607 0 1.164-.306 1.492-.818L18.003 47h24.994l3.934 6.183c.327.511.884.817 1.491.817h4.18a1.767 1.767 0 0 0 1.491-2.718L51.368 47h4.306A2.33 2.33 0 0 0 58 44.674v-2.348A2.33 2.33 0 0 0 55.674 40zm-11.132 0h-3.63l-5.091-8h3.63l5.091 8zm-6 0H22.458l5.091-8h5.902l5.091 8zm-16.993-8h3.63l-5.091 8h-3.63l5.091-8zm-9.098 20h-3.63l3.182-5h3.63l-3.182 5zm39.728 0h-3.63l-3.182-5h3.63l3.182 5z"/></symbol><symbol id="certificate" viewBox="0 0 48 60"><path d="M46.999 60H1.998c-.552 0-1-.45-1-1V1c0-.55.448-1 1-1h31.001c.265 0 .519.1.707.29l14 14a1 1 0 0 1 .293.73V59c0 .55-.448 1-1 1zM2.998 58h43.001V16h-13c-.553 0-1-.45-1-1V2H2.998zM39.292 8.705l-5.293-5.291V14h10.586zM14.143 40.17c1.142-.6 2.154 1.13 1.009 1.72-2.171 1.13-2.275 3.71-2.348 5.88-.031.91-1.045 1.26-1.707.7-.935-.78-1.871-1.57-2.806-2.35-.99-.83.433-2.23 1.414-1.41l1.24 1.035c.269-2.26 1.008-4.436 3.198-5.575zm.987 5.1c-.568-1.15 1.156-2.17 1.727-1.01.955 1.94 2.571.28 3.936-.11 1.046-.29 2.168.17 2.688 1.1.63 1.13-1.098 2.13-1.727 1.01-.344-.62-1.86.56-2.267.71-.571.22-1.08.3-1.688.23-1.169-.13-2.155-.89-2.669-1.93 0 0 .568 1.15 0 0zM32.999 25h-7.001c-.552 0-1-.45-1-1s.448-1 1-1h7.001c.552 0 1 .45 1 1s-.448 1-1 1zm-10.001 8h-7c-.552 0-1-.45-1-1s.448-1 1-1h7a1.001 1.001 0 0 1 0 2zm-7-8h-5c-.552 0-1-.45-1-1s.448-1 1-1h5c.552 0 1 .45 1 1s-.448 1-1 1zm6-1c0 .55-.448 1-1 1s-1-.45-1-1 .448-1 1-1 1 .45 1 1zm-9 8c0 .55-.448 1-1 1s-1-.45-1-1 .448-1 1-1 1 .45 1 1zm12-16c0 .55-.448 1-1 1s-1-.45-1-1 .448-1 1-1 1 .45 1 1zm13.001 39a1 1 0 0 1-.707-.29l-3.293-3.3-3.293 3.3a1 1 0 0 1-1.09.21.994.994 0 0 1-.617-.92v-9.91a2.558 2.558 0 0 1-1.364-.73 2.606 2.606 0 0 1-.517-3 .617.617 0 0 0 .013-.51.625.625 0 0 0-.378-.36A2.617 2.617 0 0 1 24.999 37c0-1.13.688-2.11 1.754-2.49a.62.62 0 0 0 .377-.36.627.627 0 0 0-.013-.52 2.597 2.597 0 0 1 .517-2.99 2.59 2.59 0 0 1 3-.52c.224.1.422.05.519.01a.615.615 0 0 0 .358-.38A2.617 2.617 0 0 1 33.999 28c1.132 0 2.108.69 2.487 1.75.083.24.26.34.358.38.098.04.295.09.519-.01 1.022-.49 2.2-.29 3.001.52a2.61 2.61 0 0 1 .516 3 .61.61 0 0 0-.013.51c.041.1.144.28.377.36A2.617 2.617 0 0 1 42.998 37c0 1.13-.688 2.11-1.754 2.49a.625.625 0 0 0-.377.36.61.61 0 0 0 .013.51c.487 1.03.283 2.2-.517 3-.387.39-.862.64-1.364.73V54c0 .4-.244.77-.617.92a1.03 1.03 0 0 1-.383.08zM31.92 42.02c.688.29 1.227.85 1.476 1.55.136.39.467.43.603.43.135 0 .466-.04.603-.43.249-.7.787-1.26 1.475-1.55.67-.28 1.427-.27 2.087.03.057.01.104.02.151.04.041.01.081.03.119.05.263.03.438-.11.515-.19.096-.1.3-.36.125-.73a2.642 2.642 0 0 1 1.5-3.62.61.61 0 0 0 .424-.6c0-.14-.041-.47-.424-.6a2.645 2.645 0 0 1-1.555-1.48 2.637 2.637 0 0 1 .055-2.14c.175-.37-.029-.63-.125-.73a.615.615 0 0 0-.727-.13c-.673.32-1.453.34-2.143.06a2.648 2.648 0 0 1-1.478-1.56.612.612 0 0 0-.602-.42.613.613 0 0 0-.603.42c-.25.71-.788 1.27-1.477 1.56-.69.28-1.472.26-2.144-.06a.613.613 0 0 0-.726.13c-.096.1-.301.36-.126.73.321.67.341 1.45.056 2.14a2.648 2.648 0 0 1-1.555 1.48c-.384.13-.425.46-.425.6 0 .13.041.47.425.6.703.25 1.269.79 1.555 1.48.285.69.265 1.47-.055 2.14-.176.37.029.63.125.73a.61.61 0 0 0 .514.19.537.537 0 0 1 .119-.05c.05-.02.101-.03.151-.04a2.646 2.646 0 0 1 2.066-.04h.005.004l.001.01h.011zM33.999 49c.256 0 .511.1.707.29l2.293 2.3v-7.77c-.058.01-.107.03-.144.04h-.005c-.001.01-.002.01-.003.01h-.004a.625.625 0 0 0-.357.37A2.611 2.611 0 0 1 33.999 46a2.61 2.61 0 0 1-2.487-1.76.626.626 0 0 0-.358-.37.504.504 0 0 0-.155-.05v7.77l2.293-2.3c.195-.19.451-.29.707-.29z"/></symbol><symbol id="doc-docx"><path d="M14.582 17.94c-.403 0-.707.14-.952.44-.255.32-.386.84-.386 1.53 0 .69.135 1.2.398 1.53.255.31.551.45.94.45.386 0 .682-.14.929-.45.263-.32.394-.84.394-1.55 0-.69-.127-1.2-.382-1.52-.238-.29-.539-.43-.941-.43zM6.355 21.9c.559 0 .993-.17 1.289-.49.321-.36.487-.9.487-1.62.004-.64-.154-1.13-.465-1.45-.279-.28-.676-.43-1.186-.43-.111 0-.203.01-.281.01v3.98h.129zm27.83-8.69h-3.152V8.42c0-.01-.004-.02-.004-.04-.002-.03-.004-.07-.01-.11-.007-.02-.014-.05-.025-.08-.006-.02-.01-.04-.018-.06a.336.336 0 0 0-.046-.08c-.008-.02-.014-.03-.024-.05-.029-.04-.06-.08-.097-.12L23.254.22h-.007a.346.346 0 0 0-.108-.09c-.02-.02-.043-.02-.063-.04l-.068-.03-.08-.03c-.021 0-.041-.01-.062-.02C22.819 0 22.769 0 22.72 0H5.716a.757.757 0 0 0-.755.76v12.45H1.806c-.45 0-.816.38-.814.83v11.75c0 .47.37.83.822.83h3.145v8.62c0 .42.339.77.755.77h24.563c.417 0 .756-.35.756-.77v-8.62h3.152c.45 0 .815-.37.815-.83V14.04c0-.45-.365-.83-.815-.83zM6.47 1.53h15.494v6.89c0 .43.339.77.756.77h6.802v4.02H6.47zm23.052 32.94H6.47v-7.85h23.052zm-.057-10.72L28.39 21.9l-1.08 1.85h-2.577l2.359-3.98-2.158-3.68h2.541l.937 1.66.921-1.66h2.525l-2.165 3.73 2.366 3.93zm-11.432-3.82c0 1.22-.314 2.19-.929 2.9-.631.72-1.478 1.09-2.52 1.09-1.05 0-1.904-.37-2.533-1.09-.617-.7-.931-1.67-.931-2.87 0-.76.107-1.41.316-1.94.161-.39.383-.75.658-1.07.284-.32.605-.56.948-.72.442-.21.956-.31 1.523-.31 1.047 0 1.896.36 2.531 1.09.621.7.937 1.69.937 2.92zM4.26 23.81l-.323-.05v-7.63l.311-.06c.557-.1 1.324-.15 2.078-.15 1.287 0 2.177.26 2.876.84.804.66 1.227 1.69 1.227 2.98 0 1.69-.647 2.65-1.192 3.16-.736.68-1.825 1.02-3.229 1.02-.63 0-1.248-.04-1.748-.11zm18.349-1.96c.397 0 .829-.1 1.051-.2l.433-.19.348 1.98-.234.13c-.305.17-.942.35-1.814.35-2.253 0-3.708-1.53-3.708-3.9 0-2.46 1.548-4.11 3.85-4.11.826 0 1.447.19 1.751.36l.245.14-.462 1.99-.411-.19a2.505 2.505 0 0 0-1.055-.23c-1.053 0-1.659.71-1.659 1.95-.002 1.22.606 1.92 1.665 1.92zm.868-19.24l4.976 5.05h-4.976z" fill="#14558f"/></symbol><symbol id="doc-pdf"><path d="M34.185 13.21h-3.152V8.43c0-.02-.004-.03-.004-.04a.83.83 0 0 0-.01-.11c-.007-.03-.014-.06-.025-.08l-.018-.07a4.33 4.33 0 0 1-.046-.08c-.008-.02-.014-.03-.024-.05-.029-.04-.06-.08-.097-.12L23.254.23c-.002 0-.006-.01-.007-.01-.034-.03-.068-.06-.108-.09L23.076.1a.229.229 0 0 0-.068-.04c-.027-.01-.054-.02-.08-.02-.021-.01-.041-.02-.062-.02A.713.713 0 0 0 22.72 0H5.716a.765.765 0 0 0-.755.77v12.44H1.806c-.45 0-.816.38-.814.83v11.75c0 .46.37.82.822.82h3.145v8.62c0 .42.339.77.754.77h24.564c.417 0 .756-.35.756-.77v-8.62h3.152c.45 0 .815-.36.815-.82V14.04c0-.45-.365-.83-.815-.83zM6.47 1.53h15.494v6.9c0 .42.339.76.756.76h6.802v4.02H6.47zm23.052 32.93H6.47v-7.85h23.052zM13.433 18.4c0 .54-.114 1.02-.336 1.41-.221.38-.509.69-.861.91a3.18 3.18 0 0 1-1.046.44c-.448.08-1.063.12-1.879.12h-.697v2.97H5.925v-8.67h3.302c1.098 0 1.807.05 2.166.14a2.64 2.64 0 0 1 1.456.9c.388.47.584 1.06.584 1.78zm8.693 1.32c0 1.85-.711 2.9-1.305 3.46-.81.74-2.001 1.12-3.538 1.12-.695 0-1.373-.04-1.92-.12l-.356-.05v-8.37l.342-.06c.61-.11 1.451-.17 2.277-.17 1.409 0 2.383.29 3.151.93.885.72 1.349 1.85 1.349 3.26zm7.54-.78v2h-3.318v3.31h-2.575v-8.67h6.296v2.21H26.35v1.15zM23.477 2.62l4.976 5.04h-4.976zm-5.68 15.1c-.123 0-.224.01-.311.01v4.35H17.657c.611 0 1.088-.18 1.412-.53.356-.39.537-.99.537-1.77.004-.71-.169-1.24-.508-1.59-.308-.31-.744-.47-1.301-.47zm-7.612.04c-.124-.02-.43-.05-1.166-.05h-.403v1.44h.518c.845 0 1.127-.07 1.209-.1a.681.681 0 0 0 .341-.24.66.66 0 0 0 .121-.39c0-.19-.057-.33-.162-.44a.81.81 0 0 0-.458-.22z" fill="#14558f"/></symbol><symbol id="doc-xlsx"><path d="M6.631 1.53H22.58v6.89c0 .43.35.77.779.77h7.002v4.02H6.631zm23.73 32.94H6.631v-7.85h23.73zm-2.105-12.62l-1.084 1.8h-2.586l2.368-3.87-2.169-3.59h2.548l.942 1.62.922-1.62h2.533l-2.171 3.63 2.375 3.83h-2.601zm-20.83-2.07l-2.167-3.59h2.547l.941 1.62.923-1.62h2.533l-2.171 3.63 2.374 3.83H9.805l-1.077-1.8-1.083 1.8H5.059zm13.783 1.06c-1.316-.51-1.981-1.33-1.981-2.43 0-1.47 1.143-2.49 2.785-2.49.751 0 1.589.22 2.031.44l.282.14-.533 1.9-.428-.23c-.207-.11-.743-.29-1.284-.29-.453 0-.487.3-.487.4 0 .15 0 .26.893.64 1.28.52 1.881 1.3 1.881 2.44 0 1.18-.772 2.56-2.943 2.56-.809 0-1.831-.28-2.241-.53l-.218-.14.328-1.96.484.27c.322.18 1.073.39 1.636.39.388 0 .62-.18.62-.48-.006-.13-.006-.31-.825-.63zm-3.014.81v2.14h-5.156v-7.73h2.368v5.59zm5.943-19.04l5.123 5.05h-5.123zm11.023 10.6h-3.245V8.42c0-.01-.003-.02-.003-.04-.003-.03-.005-.07-.011-.11-.007-.02-.015-.05-.026-.08-.006-.02-.01-.04-.019-.06a.336.336 0 0 0-.046-.08c-.009-.02-.015-.03-.026-.05a1.162 1.162 0 0 0-.099-.12L23.909.22h-.008a.345.345 0 0 0-.111-.09c-.021-.02-.044-.02-.065-.04l-.07-.03-.082-.03c-.022 0-.043-.01-.064-.02-.049-.01-.1-.01-.15-.01H5.854a.769.769 0 0 0-.777.76v12.45H1.829a.837.837 0 0 0-.837.83v11.75c0 .47.381.83.846.83h3.238v8.62c0 .42.349.77.776.77h25.286c.429 0 .778-.35.778-.77v-8.62h3.245c.463 0 .839-.37.839-.83V14.04a.84.84 0 0 0-.839-.83z" fill="#14558f"/></symbol><symbol id="external-link" viewBox="0 0 17 16"><path d="M4.199 12.799V0h-3.2v15.998h15.999v-3.2zM8.294 1.003l.011 2.558 3.3.013-3.611 3.61L9.809 9l3.617-3.616.014 3.312 2.557.01-.021-5.115-.01-2.557-2.557-.01z"/></symbol><symbol id="facebook" viewBox="0 0 31 30"><path d="M0 0v30h30.243V0zm20.162 8.75h-2.423c-.776 0-1.357.315-1.357 1.111v1.389h3.78L19.861 15h-3.479v10h-3.781V15h-2.52v-3.75h2.52V8.846C12.601 6.319 13.942 5 16.963 5h3.199z"/></symbol><symbol id="family" viewBox="0 0 58 52"><path d="M20.346 46.3c-2.489-2.04-5.225-3.4-5.724-3.65-.561-.24-.872-.8-.872-1.36v-4.02c0-.44.188-.87.561-1.12.126-.12.25-.31.25-.49v-4.21c0-1.36-1.122-2.48-2.49-2.48h-.933a2.495 2.495 0 0 0-2.489 2.48v4.21c0 .18.061.37.248.49.312.25.561.69.561 1.12v4.02c0 .62-.372 1.11-.872 1.36-.495.25-3.234 1.61-5.724 3.65-.126.13-.249.37-.249.56v2.85c0 .68-.623 1.3-1.307 1.3-.683 0-1.306-.56-1.306-1.3v-2.85c0-1.05.434-1.98 1.245-2.6 2.178-1.73 4.479-3.03 5.601-3.65v-2.79c-.561-.55-.872-1.36-.872-2.16v-4.21c0-2.79 2.301-5.07 5.102-5.07h.933c2.801 0 5.103 2.28 5.103 5.07v4.21c0 .8-.312 1.61-.873 2.16v2.79c1.122.56 3.423 1.86 5.602 3.65.81.68 1.244 1.61 1.244 2.6v2.85c0 .68-.622 1.3-1.306 1.3s-1.306-.56-1.306-1.3v-2.85c0-.25-.127-.43-.127-.56zm35.163 3.41v-2.85c0-.25-.062-.43-.25-.56-2.49-2.04-5.225-3.4-5.724-3.65-.561-.24-.872-.8-.872-1.36v-4.02c0-.44.188-.87.561-1.12.126-.12.25-.31.25-.49v-4.21c0-1.36-1.122-2.48-2.49-2.48h-.933a2.495 2.495 0 0 0-2.49 2.48v4.21c0 .18.062.37.25.49.311.25.56.69.56 1.12v4.02c0 .62-.373 1.11-.871 1.36-.496.25-3.236 1.61-5.725 3.65-.126.13-.25.37-.25.56v2.85c0 .68-.622 1.3-1.306 1.3s-1.306-.56-1.306-1.3v-2.85c0-1.05.434-1.98 1.245-2.6 2.178-1.73 4.479-3.03 5.601-3.65v-2.79c-.561-.55-.872-1.36-.872-2.16v-4.21c0-2.79 2.302-5.07 5.102-5.07h.934c2.8 0 5.101 2.28 5.101 5.07v4.21c0 .8-.311 1.61-.872 2.16v2.79c1.122.56 3.423 1.86 5.601 3.65.811.68 1.245 1.61 1.245 2.6v2.85c0 .68-.561 1.3-1.306 1.3s-1.306-.56-1.183-1.3zM35.532 37.58l-6.473-3.72-6.473 3.72c-.249.12-.434.18-.684.18-.437 0-.872-.24-1.121-.68-.373-.62-.124-1.42.499-1.79l6.473-3.72v-7.42c0-.68.561-1.3 1.306-1.3.684 0 1.306.56 1.306 1.3v7.42l6.473 3.72c.623.37.872 1.17.5 1.79-.25.44-.687.68-1.122.68-.25 0-.434-.06-.684-.18zM23.338 5.08V9.3c0 .8.312 1.61.872 2.16v2.79a31.362 31.362 0 0 0-5.601 3.65c-.81.68-1.245 1.61-1.245 2.6v2.84a1.307 1.307 0 0 0 2.613 0V20.5c0-.25.061-.44.25-.56 2.489-2.04 5.225-3.4 5.723-3.65.561-.25.873-.8.873-1.36v-4.02c0-.44-.189-.87-.561-1.12-.126-.13-.25-.31-.25-.5V5.08c0-1.36 1.122-2.47 2.489-2.47h.934c1.368 0 2.489 1.11 2.489 2.47v4.21a.57.57 0 0 1-.249.5c-.311.25-.561.68-.561 1.11v4.03c0 .55.373 1.11.872 1.36.496.24 3.235 1.6 5.724 3.65.126.12.25.31.25.56v2.84c0 .68.622 1.3 1.306 1.3s1.306-.56 1.306-1.3V20.5c0-1.06-.434-1.98-1.244-2.6-2.179-1.74-4.48-3.04-5.601-3.65v-2.79c.56-.56.872-1.36.872-2.17V5.08c0-2.78-2.301-5.07-5.102-5.07h-.933c-2.867 0-5.106 2.23-5.226 5.07z"/></symbol><symbol id="gavel" viewBox="0 0 60 61"><path d="M44.305 35.55h-.001c-.597 0-1.158-.23-1.581-.66l-1.078-1.09a2.255 2.255 0 0 1-.613-1.155 2.217 2.217 0 0 1-1.137-.615l-1.248-1.26c-.38-.38-.588-.89-.584-1.44.003-.54.217-1.05.603-1.43l-1.614-1.6a.761.761 0 0 0-1.05 0l-7.253 7.33.707.71c.567.58.879 1.34.879 2.15 0 .81-.313 1.57-.879 2.14a2.977 2.977 0 0 1-4.243 0l-.707-.71-9.068 9.16c-.528.53-.903 1.2-1.084 1.93l-.726 2.94a6.257 6.257 0 0 1-1.609 2.87l-.328.33a6.13 6.13 0 0 1-4.327 1.81 6.135 6.135 0 0 1-4.328-1.81l-1.243-1.26A6.25 6.25 0 0 1 0 49.52c0-1.65.637-3.21 1.793-4.37l.323-.33a6.065 6.065 0 0 1 2.845-1.63l2.905-.73a4.133 4.133 0 0 0 1.915-1.1l9.068-9.16-.707-.71a3.06 3.06 0 0 1 0-4.29 2.976 2.976 0 0 1 4.243 0l.707.72 7.253-7.33c.14-.14.218-.33.218-.53s-.078-.39-.218-.53l-1.596-1.61c-.369.38-.863.59-1.393.59a2.04 2.04 0 0 1-1.435-.59l-1.247-1.26a2.28 2.28 0 0 1-.61-1.153 2.184 2.184 0 0 1-1.14-.617l-1.078-1.09a2.284 2.284 0 0 1 0-3.2l8.856-8.94a2.217 2.217 0 0 1 3.164 0l1.079 1.09c.317.314.527.713.612 1.145a2.26 2.26 0 0 1 1.138.615l1.246 1.26c.382.39.589.9.586 1.45a2.017 2.017 0 0 1-.604 1.43l9.917 9.98c.368-.38.863-.59 1.393-.6h.013c.529 0 1.047.22 1.422.6l1.248 1.26c.322.326.525.727.61 1.147a2.21 2.21 0 0 1 1.139.623l1.079 1.09c.872.88.872 2.31.001 3.19l-8.858 8.95c-.422.43-.984.66-1.582.66zm-2.67-4.94a2.59 2.59 0 0 1 .01-.01l8.856-8.94a.244.244 0 0 0 0-.34l-1.246-1.26c-.359.37-.862.59-1.401.59-.537.02-1.045-.21-1.427-.59l-9.9-10a2.05 2.05 0 0 1-.589-1.45c.002-.54.212-1.04.588-1.41l-1.245-1.26c-.117-.11-.221-.11-.336 0l-8.857 8.95-.008.008a.243.243 0 0 0 .009.332l1.245 1.26c.36-.37.864-.59 1.402-.59.55-.02 1.046.2 1.427.59l1.596 1.61c.518.52.803 1.22.803 1.96s-.285 1.43-.804 1.96l-8.666 8.75-2.121-2.14a.996.996 0 0 0-.708-.3.996.996 0 0 0-.707.3 1.02 1.02 0 0 0 0 1.43l2.121 2.14-10.482 10.59a6.123 6.123 0 0 1-2.844 1.63l-2.904.73c-.723.18-1.386.56-1.916 1.1l-.323.32A4.227 4.227 0 0 0 2 49.52c0 1.09.44 2.17 1.207 2.94l1.243 1.26a4.15 4.15 0 0 0 2.914 1.22 4.15 4.15 0 0 0 2.914-1.22l.327-.33a4.21 4.21 0 0 0 1.083-1.93l.726-2.94a6.152 6.152 0 0 1 1.61-2.87l10.482-10.59 2.121 2.14a1.02 1.02 0 0 0 1.415 0 1.02 1.02 0 0 0 0-1.43l-2.123-2.14 8.669-8.76a2.723 2.723 0 0 1 3.878 0l1.596 1.62c.378.38.593.91.59 1.45a1.968 1.968 0 0 1-.59 1.4l1.247 1.26c.089.096.233.1.326.01zM60 61H37v-1.01c0-3.9 3.14-7.07 7-7.07h9c3.86 0 7 3.17 7 7.07zM32.284 3.01a.269.269 0 0 0-.168.07l-8.856 8.95a.243.243 0 0 0 0 .34l1.078 1.09c.112.117.215.12.326.01l.01-.01 8.857-8.95.016-.016a.229.229 0 0 0 .054-.154c0-.04-.013-.11-.07-.17l-1.079-1.09a.267.267 0 0 0-.168-.07zm19.799 20a.267.267 0 0 0-.168.07l-8.856 8.95a.247.247 0 0 0-.07.17c0 .05.012.11.07.17l1.079 1.09c.057.06.122.07.167.07.045 0 .11-.01.167-.07l8.858-8.95a.244.244 0 0 0 0-.34l-1.079-1.09a.267.267 0 0 0-.168-.07zM39.101 58.98h18.798c-.464-2.31-2.484-4.04-4.899-4.04h-9c-2.415 0-4.435 1.73-4.899 4.04zM55 51.91H42c-.552 0-1-.46-1-1.01 0-.56.448-1.01 1-1.01h13c.552 0 1 .45 1 1.01 0 .55-.448 1.01-1 1.01z"/></symbol><symbol id="id-card" viewBox="0 0 32 21"><path d="M30.263.001H1.79a.772.772 0 0 0-.795.761v19.465c0 .448.375.762.795.762h28.424c.468 0 .795-.36.795-.762V.809c.049-.448-.324-.808-.746-.808zM2.634 19.51V1.571h26.833V19.51zm8.053-8.341c1.405 0 2.53-1.166 2.53-2.647v-.628c0-1.434-1.125-2.647-2.53-2.647-1.404 0-2.529 1.166-2.529 2.647v.628c.049 1.481 1.171 2.647 2.529 2.647zm5.808-.764h10.348c.376 0 .702-.313.702-.673 0-.359-.326-.673-.702-.673H16.495c-.376 0-.703.314-.703.673 0 .36.327.673.703.673zm0-2.6h10.348c.376 0 .702-.313.702-.673 0-.359-.326-.672-.702-.672H16.495c-.376 0-.703.313-.703.672 0 .405.327.673.703.673zM5.114 15.834h11.147a.374.374 0 0 0 .234-.089.63.63 0 0 0 .092-.269l-.326-2.107v-.044c-.093-.449-.376-.761-.891-1.032l-2.153-1.08c-.142-.044-.281-.044-.376.044-.422.361-1.171.853-2.154.853a3.135 3.135 0 0 1-2.153-.853c-.093-.088-.234-.088-.376-.044l-2.06 1.033c-.516.313-.796.628-.891 1.032v.045L4.88 15.43c0 .088 0 .179.093.268-.044.089.049.136.141.136z"/></symbol><symbol id="instagram" viewBox="0 0 31 30"><path d="M31 0v30H.757V0zM19.952 6.86c-1.062-.047-1.382-.057-4.074-.057-2.691 0-3.01.01-4.074.058-2.734.123-4.007 1.409-4.131 4.099-.048 1.054-.06 1.37-.06 4.04s.012 2.986.061 4.043c.123 2.683 1.392 3.974 4.132 4.098 1.061.048 1.381.058 4.072.058 2.693 0 3.012-.011 4.076-.059 2.734-.123 4.006-1.411 4.132-4.099.048-1.055.058-1.371.058-4.041 0-2.67-.01-2.986-.058-4.04-.126-2.69-1.402-3.976-4.134-4.1zm-4.074 13.275c-2.858 0-5.176-2.299-5.176-5.135s2.317-5.135 5.176-5.135c2.858 0 5.177 2.299 5.177 5.135s-2.317 5.135-5.177 5.135zm0-8.469c-1.856 0-3.36 1.493-3.36 3.334 0 1.843 1.504 3.334 3.36 3.334 1.857 0 3.361-1.493 3.361-3.334s-1.504-3.334-3.361-3.334zm5.381-.804c-.668 0-1.21-.537-1.21-1.2 0-.662.542-1.199 1.21-1.199.668 0 1.21.537 1.21 1.199 0 .663-.541 1.2-1.21 1.2zm4.7 4.138c0-2.715-.011-3.056-.06-4.122-.165-3.628-2.199-5.65-5.863-5.817C18.959 5.011 18.617 5 15.878 5c-2.738 0-3.079.011-4.155.06-3.662.166-5.696 2.181-5.865 5.816-.049 1.068-.061 1.409-.061 4.124 0 2.716.012 3.056.061 4.122.169 3.633 2.2 5.652 5.865 5.818 1.076.049 1.417.06 4.155.06 2.739 0 3.081-.011 4.158-.06 3.656-.166 5.698-2.181 5.863-5.818.049-1.066.06-1.406.06-4.122z"/></symbol><symbol id="laptop" viewBox="0 0 36 30"><path d="M33 0H3v19.5h30zm-3 16.5H6V3h24zm3 4.5H3l-3 9h36zm-18.342 7.5l.699-1.5h5.286l.699 1.5z"/></symbol><symbol id="linkedin" viewBox="0 0 31 30"><path d="M.564 0v30h30.243V0zm10.081 23.75H6.864V10h3.781zM8.754 8.415a2.206 2.206 0 1 1 .002-4.412 2.206 2.206 0 0 1-.002 4.412zM25.766 23.75h-3.78v-7.005c0-4.21-5.041-3.891-5.041 0v7.005h-3.78V10h3.78v2.206c1.761-3.232 8.821-3.471 8.821 3.095z"/></symbol><symbol id="login" viewBox="0 0 20 16"><path d="M6.67 5.6V2.4L13.33 8l-6.66 5.6v-3.2H0V5.6zM8.33 0v1.6h10v12.8h-10V16H20V0z"/></symbol><symbol id="mail" viewBox="0 0 32 24"><path d="M16 12.95L.02 0h31.961zM0 20.08V3.42l8.767 7.1zM32 3.42v16.66l-8.767-9.56zM21.157 12.2L16 16.38l-5.157-4.18L.029 24h31.942z"/></symbol><symbol id="map" viewBox="0 0 30 29"><path d="M10.377 26.812l9.163 1.63a.553.553 0 0 0 .333-.046l9.777-3.831a.552.552 0 0 0 .35-.512V1.514a.536.536 0 0 0-.234-.449c-.12-.088-.022-.016 0 0a.528.528 0 0 0-.486-.072l-9.673 3.249-9.117-2.164a.57.57 0 0 0-.277.007l.037-.008-.037.008a.547.547 0 0 0-.01.002L.43 4.276a.55.55 0 0 0-.43.536V28.45c0 .167.08.325.2.429a.557.557 0 0 0 .46.108zM19.09 5.248v21.997l-8.18-1.455V3.308zm10.68-4.18l-.004-.003.004.003z"/></symbol><symbol id="page-test" viewBox="0 0 54 56"><path d="M51.225 45.55c-1.039 5.13-5.07 8.58-10.028 8.58-4.681 0-8.795-3.08-10.194-7.46h4.376V44.8h-7.448v7.4c-1.494-2.14-2.475-4.66-2.722-7.4H10.241a.935.935 0 0 1 0-1.87h14.92c.06-1.98.482-3.87 1.224-5.6H10.241a.927.927 0 0 1-.931-.93c0-.52.417-.93.931-.93h17.117a15.4 15.4 0 0 1 5.818-5.6H10.241a.935.935 0 0 1 0-1.87h23.276c.514 0 .931.42.931.93 0 .13-.027.25-.07.35A15.253 15.253 0 0 1 40.5 28c1.119 0 2.207.13 3.259.36V13.61L30.179 0H0v56h31.695a15.59 15.59 0 0 1-3.719-3.73h1.817v-3.59C31.812 53.05 36.231 56 41.197 56c5.87 0 10.633-4.05 11.854-10.08a.93.93 0 0 0-.728-1.1.92.92 0 0 0-1.098.73zm-9.328-30.62H28.862V1.87zm-8.38 5.6a.935.935 0 0 1 0 1.87H10.241a.935.935 0 0 1 0-1.87zm-13.965-7.46c.514 0 .931.41.931.93s-.417.93-.931.93h-9.311A.927.927 0 0 1 9.31 14c0-.52.417-.93.931-.93zm32.586 24.55c-2.096-4.16-6.242-6.82-10.941-6.82-5.687 0-10.745 3.73-12.298 9.07-.143.5.14 1.02.634 1.16a.924.924 0 0 0 1.154-.64c1.301-4.47 5.721-7.72 10.51-7.72 4.25 0 7.971 2.58 9.618 6.53h-4.263v1.87H54V33.6h-1.862z"/></symbol><symbol id="phone" viewBox="0 0 33 37"><path d="M20.841 35.51C9.798 40.57-7.343 7.19 3.451 1.56L6.609 0l5.235 10.23-3.121 1.54c-3.281 1.77 3.553 15.14 6.909 13.51.136-.06 3.083-1.51 3.094-1.52l5.278 10.2c-.012.01-2.982 1.47-3.163 1.55zm.399-29.23a9.49 9.49 0 0 1 6.376 11.81l-2.69-.8a6.681 6.681 0 0 0-.528-5.09 6.65 6.65 0 0 0-3.962-3.22zM19.838 11a4.542 4.542 0 0 1 2.71 2.21c.6 1.11.694 2.35.36 3.48l-4.373-1.31zm2.003-6.74c2.84.85 5.359 2.78 6.881 5.6 1.52 2.82 1.757 5.99.912 8.83l2.758.83a14.45 14.45 0 0 0-1.141-11.03 14.41 14.41 0 0 0-8.587-6.99z"/></symbol><symbol id="pig-bank" viewBox="0 0 52 60"><path d="M26 54.92c-1.579 0-3.115-.185-4.588-.533v2.073c3.039.65 6.137.65 9.176 0v-2.073c-1.473.348-3.01.533-4.588.533zm-4.588 3.615v.125c0 .74-.605 1.34-1.348 1.34H12.25a3.07 3.07 0 0 1-3.073-3.07v-4.708C3.339 46.789 0 38.91 0 30.51c0-4.516.94-8.832 2.794-12.844l-.49-3.546 2.08.2.004-.01.001.01.212.02c2.793-4.338 6.875-7.085 12.446-8.368A9.7 9.7 0 0 1 26 0a9.7 9.7 0 0 1 8.953 5.972c5.571 1.283 9.653 4.03 12.446 8.368l.212-.02.001-.01.005.01 2.079-.2-.49 3.546C51.06 21.678 52 25.994 52 30.51c0 8.4-3.339 16.278-9.176 21.71v4.53c0 1.79-1.46 3.25-3.254 3.25h-7.647c-.736 0-1.335-.6-1.335-1.33v-.135a23.868 23.868 0 0 1-9.176 0zM6.118 35.08c0-2.509.47-4.91 1.326-7.122l-.43-1.148c-.408-1.09-1.055-1.92-1.739-2.81-.637-.83-1.289-1.67-1.735-2.72-.997 2.94-1.501 6.03-1.501 9.23 0 7.14 2.576 13.87 7.138 18.82v-3.686A19.692 19.692 0 0 1 6.118 35.08zm.785-20.487c2.827.462 5.075 1.677 7.442 2.957.403.219.81.437 1.222.656A19.798 19.798 0 0 1 26 15.25c3.823 0 7.398 1.083 10.433 2.956.414-.219.82-.437 1.222-.656 2.367-1.28 4.616-2.496 7.443-2.957-2.276-3.115-5.411-5.213-9.518-6.362a9.44 9.44 0 0 1-.264 4.04c.895.559 1.709 1.198 2.42 1.909.398.39.398 1.04 0 1.43a1.014 1.014 0 0 1-1.442 0 11.834 11.834 0 0 0-2.164-1.684l-.541-.296c-1.938-1.07-4.209-1.74-6.566-1.93l-.03-.003a17.96 17.96 0 0 0-1.428-.057h-.016c-.12 0-.24.001-.359.004-.142.006-.284.015-.426.026-1.749.08-3.36.39-4.822.93-.523.19-1.053.43-1.666.75l-.54.277a12.269 12.269 0 0 0-2.478 1.903c-.398.4-1.044.4-1.442.01-.399-.4-.4-1.05-.003-1.44.828-.828 1.76-1.55 2.78-2.159a9.477 9.477 0 0 1-.173-3.71c-4.107 1.15-7.243 3.247-9.517 6.362zm40.621 8.335c-.258.37-.53.722-.799 1.072-.684.89-1.331 1.72-1.739 2.81l-.43 1.148a19.68 19.68 0 0 1 1.326 7.122c0 3.88-1.122 7.502-3.058 10.563v3.687c4.561-4.95 7.137-11.68 7.137-18.82 0-3.2-.504-6.29-1.501-9.22a9.126 9.126 0 0 1-.936 1.638zM26 17.29a17.778 17.778 0 0 0-9.799 2.929 17.956 17.956 0 0 0-5.345 5.462 17.84 17.84 0 0 0-1.372 2.679l-.17.415a17.658 17.658 0 0 0-1.157 6.305c0 3.415.968 6.607 2.644 9.32 3.145 5.085 8.782 8.48 15.199 8.48 6.416 0 12.051-3.393 15.196-8.477a17.665 17.665 0 0 0 2.647-9.323c0-2.22-.41-4.345-1.157-6.305l-.17-.415a17.84 17.84 0 0 0-1.372-2.68A17.956 17.956 0 0 0 35.8 20.22 17.778 17.778 0 0 0 26 17.29zm.51 33.56c-5.06 0-9.177-4.11-9.177-9.16 0-5.04 4.117-9.15 9.177-9.15 5.059 0 9.176 4.11 9.176 9.15 0 5.05-4.117 9.16-9.176 9.16zm0-16.27c-3.936 0-7.137 3.19-7.137 7.11 0 3.93 3.201 7.12 7.137 7.12 3.935 0 7.137-3.19 7.137-7.12 0-3.92-3.202-7.11-7.137-7.11zm.268-24.943c.134.01.267.023.4.038a19.858 19.858 0 0 1 2.87.447 18.21 18.21 0 0 1 3.418 1.156c.12-.536.181-1.072.181-1.618 0-.83-.142-1.67-.423-2.48l-.103-.299C32.005 4.047 29.234 2.03 26 2.03c-3.226 0-5.993 2.009-7.114 4.834l-.109.316a7.552 7.552 0 0 0-.424 2.48c0 .45.04.888.12 1.328 1.948-.827 4.128-1.296 6.444-1.368a13.203 13.203 0 0 1 1.86.017zM11.216 56.93c0 .57.464 1.04 1.034 1.04h7.123v-4.18a19.933 19.933 0 0 1-8.157-5.46zm28.354 1.04c.67 0 1.214-.55 1.214-1.22v-8.42a19.933 19.933 0 0 1-8.157 5.46v4.18zM23.961 42.71c-.841 0-1.53-.68-1.53-1.52s.689-1.53 1.53-1.53c.841 0 1.529.69 1.529 1.53 0 .84-.688 1.52-1.529 1.52zm5.098 0c-.841 0-1.53-.68-1.53-1.52s.689-1.53 1.53-1.53c.841 0 1.529.69 1.529 1.53 0 .84-.688 1.52-1.529 1.52zm3.059-13.22c-.841 0-1.53-.69-1.53-1.52 0-.84.689-1.53 1.53-1.53.841 0 1.529.69 1.529 1.53 0 .83-.688 1.52-1.529 1.52zm-11.216 0c-.841 0-1.529-.69-1.529-1.52 0-.84.688-1.53 1.529-1.53s1.529.69 1.529 1.53c0 .83-.688 1.52-1.529 1.52z"/></symbol><symbol id="profile" viewBox="0 0 32 32"><path d="M27.754 24.13c-4.582-1.06-8.847-1.99-6.782-5.89C27.261 6.35 22.639 0 16 0 9.229 0 4.723 6.6 11.028 18.24c2.127 3.92-2.299 4.85-6.782 5.89-4.094.94-4.247 2.98-4.234 6.54L.018 32H31.98l.005-1.29c.016-3.59-.123-5.63-4.231-6.58z"/></symbol><symbol id="quote" viewBox="0 0 55 46"><path d="M.99 45.99h22.43V22.915H12.29L23.42.008h-8.64L.99 22.915zm32.07-23.075L46.35.008h8.64L43.52 22.915h11.47V45.99H33.06z"/></symbol><symbol id="restore" viewBox="0 0 20 15"><path d="M7.5 7.5l-3.72 4.14L0 7.5h2.5C2.5 3.358 5.86 0 10 0c2 0 3.8.785 5.15 2.057l-1.67 1.859A4.983 4.983 0 0 0 10 2.5c-2.76 0-5 2.243-5 5zm8.72-4.14L12.5 7.5H15c0 2.757-2.24 5-5 5-1.35 0-2.58-.542-3.48-1.416l-1.67 1.859A7.472 7.472 0 0 0 10 15c4.14 0 7.5-3.358 7.5-7.5H20z"/></symbol><symbol id="search" viewBox="0 0 20 20"><path d="M19.99 17.4l-5.33-5.295a7.803 7.803 0 0 0 1.23-4.216C15.89 3.54 12.33 0 7.95 0 3.57 0 .01 3.54.01 7.89c0 4.351 3.56 7.891 7.94 7.891 1.48 0 2.87-.406 4.06-1.111L17.38 20zM2.97 7.89c0-2.728 2.23-4.948 4.98-4.948 2.75 0 4.98 2.22 4.98 4.948 0 2.729-2.23 4.949-4.98 4.949-2.75 0-4.98-2.22-4.98-4.949z"/></symbol><symbol id="server-rack" viewBox="0 0 52 52"><path d="M0 52V0h52v52zM18.571 1.86v48.28h14.858V1.86zM1.857 50.14h14.857V1.86H1.857zm48.286 0V1.86H35.286v48.28zm-35.286-26H3.714V3.71h11.143zm33.429 0H37.143V3.71h11.143zm-16.715 0H20.429V3.71h11.142zM9.286 47.36a5.578 5.578 0 0 1-5.572-5.57c0-3.08 2.5-5.58 5.572-5.58a5.58 5.58 0 0 1 5.571 5.58c0 3.07-2.499 5.57-5.571 5.57zm16.714 0a5.578 5.578 0 0 1-5.571-5.57A5.58 5.58 0 0 1 26 36.21a5.58 5.58 0 0 1 5.571 5.58c0 3.07-2.499 5.57-5.571 5.57zM5.571 22.29H13V5.57H5.571zm33.429 0h7.429V5.57H39zm-16.714 0h7.428V5.57h-7.428zm-13 15.78a3.723 3.723 0 0 0-3.715 3.72 3.72 3.72 0 0 0 3.715 3.71A3.72 3.72 0 0 0 13 41.79c0-2.05-1.666-3.72-3.714-3.72zm16.714 0a3.722 3.722 0 0 0-3.714 3.72A3.72 3.72 0 0 0 26 45.5a3.72 3.72 0 0 0 3.714-3.71c0-2.05-1.666-3.72-3.714-3.72zm16.714 9.29a5.578 5.578 0 0 1-5.571-5.57 5.58 5.58 0 0 1 5.571-5.58 5.58 5.58 0 0 1 5.572 5.58c0 3.07-2.499 5.57-5.572 5.57zm0-9.29A3.722 3.722 0 0 0 39 41.79a3.72 3.72 0 0 0 3.714 3.71 3.72 3.72 0 0 0 3.715-3.71c0-2.05-1.667-3.72-3.715-3.72z"/></symbol><symbol id="settings" viewBox="0 0 16 16"><path d="M16 9.077V6.923c-1.101-.392-1.795-.502-2.146-1.346v-.001c-.351-.847.067-1.423.565-2.471L12.895 1.58c-1.04.495-1.622.917-2.471.565h-.001c-.846-.35-.956-1.05-1.346-2.146H6.923c-.388 1.09-.5 1.795-1.346 2.146h-.001c-.847.352-1.421-.065-2.471-.565L1.581 3.105c.497 1.045.917 1.622.565 2.471-.351.847-1.056.959-2.146 1.347v2.154c1.088.387 1.795.5 2.146 1.346.353.855-.076 1.444-.565 2.472l1.524 1.524c1.041-.496 1.622-.917 2.471-.565h.001c.846.35.957 1.053 1.346 2.146h2.154c.388-1.09.5-1.793 1.352-2.148.842-.35 1.414.067 2.466.567l1.523-1.524c-.495-1.042-.917-1.622-.565-2.47.351-.848 1.058-.96 2.147-1.348zm-8 2.256a3.333 3.333 0 1 1 0-6.666 3.333 3.333 0 0 1 0 6.666zM10 8c0 1.103-.897 2-2 2s-2-.897-2-2 .897-2 2-2 2 .897 2 2z"/></symbol><symbol id="theater" viewBox="0 0 41 26"><path d="M18.279 12.42s-.619.98-2.396 1.42c-1.779.44-2.765-.14-2.765-.14l.132.56c.628 2.65 3.185 1.91 3.185 1.91s2.602-.54 1.975-3.19c-.036-.16-.131-.56-.131-.56zM13.541 9.8c-.292-1.25-2.093-.75-2.093-.75s-1.822.41-1.529 1.66l.063.26s.478-.51 1.725-.82c1.249-.32 1.897-.09 1.897-.09s-.044-.17-.063-.26zm6.252-1.57C19.5 6.99 17.7 7.48 17.7 7.48s-1.822.41-1.529 1.66l.062.26s.477-.5 1.726-.82c1.249-.31 1.897-.08 1.897-.08l-.063-.27zm21.206 7.31s-2.59-.4-3.495-.67c-.906-.27 1.227-2.11 0-2.54-1.057-.36-2.216-.19-3.172.11.244-1.3.495-2.62.645-3.41l.233-1.25-1.073.63c-.009 0-.327.18-.953.36-1.423-.11-3.697-.25-6.229-.67-1.718-.29-3.276-.67-4.538-.99L21.2 1.25 20.941.01l-.75 1.01c-.006 0-.229.29-.735.72-1.354.47-3.497 1.27-5.986 1.9-2.384.61-4.56.93-5.979 1.16-.737-.14-1.118-.32-1.127-.32l-1.126-.57.328 1.25c.619 2.36 1.807 6.88 1.872 7.15.032.14.07.28.107.41a4.344 4.344 0 0 0-3.057-.05c-1.228.42.905 2.27 0 2.53-.903.27-3.492.67-3.492.67l2.329.81-1.682 1.6 4.142-.8S7.746 17 7.08 15.61c-.859-1.8.653-.84 1.615-.29 2.203 3.57 6.291 5.52 8.7 4.92h.021c.478-.13.971-.37 1.457-.72 1.217 2.92 3.473 5.1 5.379 5.43l.021.01c3.049.51 8.446-3.16 9.337-8.66l.307-1.65c.904-.45 1.746-.8.999.62-.818 1.55 1.292 1.87 1.292 1.87l4.143.8-1.683-1.6zM17.142 19.1l.137.57-.149-.57c-2.239.56-7.403-2.04-8.582-7.06-.065-.28-1.101-4.22-1.607-6.15 1.249.3 3.589.55 7.006-.3l.095-.03c3.359-.86 5.296-2.17 6.267-3.02.409 1.97 1.243 5.99 1.299 6.23 1.173 5.01-2.24 9.76-4.466 10.33zm10.496 1.57l-.089.56s-.692-.92-2.499-1.21c-1.807-.29-2.745.36-2.745.36s.06-.37.089-.56c.419-2.7 3.026-2.18 3.026-2.18s2.634.33 2.218 3.03zm3.546-6.78c-.196 1.27-2.028.92-2.028.92s-1.847-.25-1.653-1.52c.012-.07.042-.27.042-.27s.514.47 1.784.68c1.267.2 1.897-.07 1.897-.07s-.029.17-.042.26zm-6.316-1.3l-.04.26c-.195 1.27-2.028.92-2.028.92s-.086-.01-.218-.04c.096-.36.176-.73.239-1.11.051.01.097.03.15.04 1.268.2 1.897-.07 1.897-.07z"/></symbol><symbol id="twitter" viewBox="0 0 32 30"><path d="M.79 0v30h30.243V0zm23.768 11.546c.262 5.772-4.076 12.207-11.757 12.207-2.336 0-4.51-.679-6.341-1.844a8.373 8.373 0 0 0 6.124-1.699 4.136 4.136 0 0 1-3.863-2.85 4.2 4.2 0 0 0 1.867-.07c-1.989-.396-3.362-2.174-3.317-4.075a4.15 4.15 0 0 0 1.872.514 4.09 4.09 0 0 1-1.28-5.479 11.78 11.78 0 0 0 8.526 4.288c-.604-2.567 1.359-5.038 4.03-5.038 1.189 0 2.264.498 3.019 1.296a8.328 8.328 0 0 0 2.627-.995 4.115 4.115 0 0 1-1.818 2.27c.837-.1 1.634-.32 2.375-.646a8.405 8.405 0 0 1-2.064 2.121z"/></symbol><symbol id="user-test" viewBox="0 0 54 51"><path d="M51.317 40.98c-1.004 4.92-4.9 8.23-9.693 8.23-4.525 0-8.501-2.95-9.853-7.16H35.1v-1.79h-6.3v6.27h1.8v-2.55A12.191 12.191 0 0 0 41.624 51c5.674 0 10.278-3.88 11.459-9.66a.9.9 0 0 0-.704-1.06.908.908 0 0 0-1.062.7zm.883-7.6c-2.025-3.98-6.034-6.54-10.576-6.54-5.498 0-10.387 3.58-11.888 8.7-.139.47.135.97.613 1.11a.902.902 0 0 0 1.115-.61c1.258-4.29 5.531-7.41 10.16-7.41 4.109 0 7.705 2.48 9.297 6.26H46.8v1.79H54v-7.15h-1.8zm-25.014-.13a.186.186 0 0 0 .013-.04c.206-.52.439-1.04.701-1.53 2.634-5 7.895-8.42 13.95-8.42.306 0 .605.03.906.05.048-.13.104-.26.15-.39A3.554 3.554 0 0 0 45 19.68v-3.57c0-.87-.324-1.7-.9-2.35V9c.05-.49.248-3.42-1.883-5.84C40.369 1.06 37.369 0 33.3 0s-7.069 1.06-8.917 3.16c-1.292 1.46-1.725 3.11-1.858 4.3-1.542-.79-3.36-1.2-5.425-1.2-9.35 0-9.895 7.93-9.9 8.06v4.09c-.583.63-.9 1.36-.9 2.09v3.09c0 .96.435 1.86 1.179 2.47.742 2.78 2.57 4.89 3.28 5.63v2.45c0 .7-.386 1.35-1.053 1.71l-5.988 3.74A7.077 7.077 0 0 0 0 45.81v3.4h30.008c-2.426-2.75-3.908-6.35-3.908-10.29 0-1.41.205-2.77.558-4.07.148-.54.326-1.08.528-1.6zM1.8 47.42v-1.61c0-1.94 1.065-3.72 2.78-4.65l.048-.03.046-.03 5.949-3.71c1.214-.68 1.937-1.89 1.937-3.25v-3.17l-.5-.52c-.503-.52-2.192-2.42-2.84-4.85l-.15-.55-.448-.37a1.405 1.405 0 0 1-.522-1.09V20.5c0-.27.151-.58.427-.88L9 19.11v-4.73c.07-.82.811-6.33 8.1-6.33 2.153 0 3.967.5 5.4 1.47v4.24c-.583.65-.9 1.47-.9 2.35v3.57a3.517 3.517 0 0 0 1.345 2.78l.002.01c.006.02.013.04.017.06.051.18.106.38.174.61l.067.21c.01.04.021.06.031.1.057.17.116.34.177.51.028.08.054.17.083.24.054.15.106.27.156.4.043.11.086.21.13.32.035.07.069.16.102.23h.004c.017.04.033.08.05.11h-.003l.067.15c.088.19.176.38.266.56l.044.09c.024.05.048.09.073.13.14.28.278.53.415.77.017.03.032.06.047.08.518.9.991 1.56 1.252 1.9l.001 2.31c-.4.81-.738 1.67-1.012 2.56-.077.06-.144.12-.227.17l-8.03 4.35c-.222.12-.427.27-.635.4-.097.07-.202.12-.296.19-.016.01-.029.03-.046.04a8.048 8.048 0 0 0-3.254 6.46v2z"/></symbol><symbol id="youtube" viewBox="0 0 31 30"><path d="M.194 0v30h30.243V0zm12.601 11.666l6.72 3.328-6.72 3.34zm8.916 10.68c-3.028.205-9.771.204-12.794 0-3.276-.221-3.658-2.192-3.683-7.346.025-5.162.411-7.125 3.685-7.346 3.023-.204 9.766-.205 12.794 0 3.276.221 3.658 2.192 3.683 7.346-.025 5.163-.411 7.125-3.685 7.346z"/></symbol></svg>