<?xml version="1.0" encoding="UTF-8"?><!DOCTYPE svg PUBLIC "-//W3C//DTD SVG 1.1//EN" "http://www.w3.org/Graphics/SVG/1.1/DTD/svg11.dtd"><svg xmlns="http://www.w3.org/2000/svg"><symbol id="alerts" viewBox="0 0 14 16"><path d="M9.2 2.63c-.45-.25-.73-.713-.73-1.213v-.002C8.47.633 7.81 0 7 0c-.81 0-1.47.633-1.47 1.415v.002c0 .5-.28.964-.73 1.213C1.54 4.438 3.41 10.44 0 11.5v1.167h14V11.5c-3.41-1.061-1.54-7.063-4.8-8.871zM7 .667c.39 0 .7.299.7.666C7.7 1.701 7.39 2 7 2c-.39 0-.7-.299-.7-.667 0-.367.31-.666.7-.666zM9.1 14c0 1.065-.97 2-2.08 2s-2.12-.935-2.12-2z"/></symbol><symbol id="apple" viewBox="0 0 48 61"><path d="M29.188 60c-.868 0-1.734-.1-2.592-.29a11.657 11.657 0 0 0-5.19 0c-3.881.88-7.918-.25-11.675-3.25C4.042 51.91.044 43.85.008 36.87c-.049-9.44 1.817-15.53 5.704-18.61 4.339-3.43 10.488-2.48 15.36-1.27.462.116.931.204 1.403.264-.741-3.355-2.443-6.693-5.521-8.344a1.018 1.018 0 0 1-.415-1.37.996.996 0 0 1 1.364-.42c2.214 1.19 3.824 3.07 4.941 5.22l.327-2.2c.717-4.85 4.438-8.59 9.26-9.31l5.464-.82-.813 5.49c-.718 4.85-4.44 8.59-9.261 9.31l-3.758.57c.196.648.357 1.304.486 1.958a12.05 12.05 0 0 0 2.382-.348c4.872-1.21 11.019-2.16 15.359 1.27 3.886 3.08 5.753 9.17 5.704 18.61-.035 6.98-4.033 15.04-9.722 19.59C35.346 58.8 32.249 60 29.188 60zm-5.187-2.61c1.022 0 2.045.11 3.039.34 4.123.93 7.702-1.04 9.977-2.86 5.161-4.13 8.929-11.7 8.961-18.01.045-8.78-1.569-14.34-4.935-17.01-2.85-2.25-7.054-2.53-13.628-.89-.843.208-1.705.337-2.57.388.047.48.078.952.092 1.412.018.56-.419 1.03-.975 1.05h-.033c-.542 0-.99-.43-1.007-.98-.015-.49-.05-.994-.107-1.506a14.211 14.211 0 0 1-2.227-.364c-6.576-1.64-10.779-1.36-13.629.89-3.366 2.67-4.98 8.23-4.936 17.01.033 6.31 3.802 13.88 8.963 18.01 2.275 1.82 5.853 3.8 9.976 2.86.994-.23 2.017-.34 3.039-.34zM6.054 31.62c-.556 0-1.008-.46-1.008-1.02 0-5.59 4.07-10.13 9.072-10.13.557 0 1.008.45 1.008 1.01s-.451 1.01-1.008 1.01c-3.89 0-7.056 3.64-7.056 8.11 0 .56-.451 1.02-1.008 1.02zM34.039 2.63l-1.311.2c-3.938.59-6.978 3.65-7.563 7.6l-.196 1.32zm1.181 1.68l-8.581 8.63.885-.13c3.938-.59 6.977-3.65 7.564-7.61zM23.839 24.07a6.307 6.307 0 0 1-4.485-1.87 1.025 1.025 0 0 1 0-1.44 1.014 1.014 0 0 1 1.425 0 4.262 4.262 0 0 0 3.06 1.28c1.155 0 2.242-.45 3.06-1.28a1.014 1.014 0 0 1 1.425 0c.394.4.394 1.04 0 1.44a6.305 6.305 0 0 1-4.485 1.87z"/></symbol><symbol id="arrow" viewBox="0 0 16 18"><path d="M12.721 6.28L15.423 9l-2.702 2.72-5.403 5.45-2.701-2.72 3.498-3.53H.443V7.07h7.66L4.617 3.55 7.318.83z"/></symbol><symbol id="bag-search"><path d="M8.897 41.94V9.65h34.296v21.56c.596-.34 1.292-.59 1.988-.79V9.65h4.175c.398 0 .746.35.746.74v20.23c.696.25 1.392.59 1.988.98V10.39c0-1.48-1.243-2.71-2.734-2.71h-1.59V6.11c0-.55-.448-.99-.994-.99h-6.909a.991.991 0 0 0-.994.99v1.57h-3.181V2.86c0-1.58-1.293-2.86-2.883-2.86h-13.47c-1.59 0-2.933 1.28-2.933 2.86v4.82h-3.181V6.11c0-.55-.447-.99-.994-.99H5.318a.992.992 0 0 0-.994.99v1.57h-1.59C1.243 7.68 0 8.91 0 10.39V41.2c0 1.48 1.243 2.71 2.734 2.71h37.949a8.483 8.483 0 0 0 6.586 3.15c1.69 0 3.28-.49 4.622-1.38l-.596-.59c-.149-.34-.249-.59-.199-.88a.85.85 0 0 1 .273-.63 6.415 6.415 0 0 1-4.051 1.41c-3.578 0-6.461-2.85-6.461-6.4 0-3.54 2.883-6.39 6.461-6.39 3.579 0 6.462 2.85 6.462 6.39 0 1.53-.547 2.96-1.491 4.09l.043-.041a5.949 5.949 0 0 1-.789.781l-.049.05c-.199.19-.348.44-.348.69 0 .29.099.54.298.73l.596.6 5.269 5.21c.199.2.447.3.696.3a.98.98 0 0 0 .696-.3l1.043-1.03c.348-.34.348-.94-.049-1.33l-5.269-5.22-.02-.02a8.157 8.157 0 0 0 1.312-4.46c0-2.85-1.441-5.41-3.678-6.89a9.194 9.194 0 0 0-1.988-.98c-.894-.3-1.789-.49-2.783-.49a7.61 7.61 0 0 0-2.138.29c-.695.2-1.391.44-1.988.79a8.369 8.369 0 0 0-4.324 7.33c0 1.17.226 2.26.676 3.25zm-1.988 0H2.734a.758.758 0 0 1-.746-.74V10.39c0-.39.348-.74.746-.74h4.175zM18.391 2.86c0-.49.397-.89.894-.89h13.52c.497 0 .895.4.895.89v4.82H18.391zm22.466 4.23h4.921v.59h-4.921zm-34.544 0h4.92v.59h-4.92zm45.976 35.54c-.249.3-.497.54-.795.79.298-.2.546-.49.795-.79zm-.845.89z"/></symbol><symbol id="blog" viewBox="0 0 32 30"><path d="M.967 0v30H31.21V0zm14.3 25c-.051-5.036-4.176-9.123-9.259-9.174v-4.009c7.326.052 13.254 5.924 13.307 13.183zM8.74 25c-1.509 0-2.732-1.211-2.732-2.706 0-1.495 1.223-2.707 2.732-2.707 1.508 0 2.73 1.212 2.73 2.707 0 1.495-1.222 2.706-2.73 2.706zm13.384 0c-.027-8.829-7.229-15.951-16.116-15.99V5c11.127.039 20.137 8.974 20.162 20z"/></symbol><symbol id="building" viewBox="0 0 16 16"><path d="M8.73 1.592V0H7.27v1.592c-2.06.364-3.63 2.239-3.63 4.503h8.72c0-2.264-1.57-4.14-3.63-4.503zm6.54 9.837h-2.18V8.38c0-.42-.32-.762-.73-.762H3.64c-.41 0-.73.341-.73.762v3.048H.73c-.4 0-.73.34-.73.761v3.048c0 .421.33.762.73.762h14.54c.4 0 .73-.34.73-.762v-3.047c0-.421-.33-.762-.73-.762zM2.91 14.476H1.45v-1.524h1.46zm2.91 0H4.36v-1.524h1.46zm0-3.81H4.36V9.144h1.46zm2.91 3.81H7.27v-1.524h1.46zm0-3.81H7.27V9.144h1.46zm2.91 3.81h-1.46v-1.524h1.46zm0-3.81h-1.46V9.144h1.46zm2.91 3.81h-1.46v-1.524h1.46z"/></symbol><symbol id="campfire" viewBox="0 0 62 57"><path d="M55.246 56.99h-.081a5.834 5.834 0 0 1-1.868-.34l-22.295-8.04-22.296 8.04c-.605.22-1.223.33-1.833.34a5.82 5.82 0 0 1-2.575-.56 5.724 5.724 0 0 1-2.965-3.29c-.3-.84-.4-1.72-.302-2.59.237-2.14 1.646-4.06 3.786-4.83l.176-.06 14.786-5.33c-3.127-3.286-5.31-7.933-5.973-13.21 2.502.97 5.011 2.43 5.011 2.43-2.827-2.84-4.639-7.19-4.639-13.72 0-9.23 7.145-14.77 15.123-15.83 0 0-5.603 13.36 0 19 0 0 4.194-3.3 4.194-9.5 0 0 3.145 6.86 3.145 14.77 0 0 8.387-6.86 8.387-16.88 0 0 3.146 4.68 3.146 16.88 0 6.634-2.286 12.291-5.907 16.074l14.743 5.316.176.06c2.241.81 3.681 2.88 3.813 5.13.046.77-.063 1.55-.328 2.29-.114.32-.252.63-.413.91a5.721 5.721 0 0 1-2.552 2.38c-.782.38-1.619.56-2.459.56zM20.195 6.38c-2.565 2.46-3.92 5.73-3.92 9.45 0 5.43 1.354 9.54 4.024 12.23.745.75.821 1.94.181 2.78a2.107 2.107 0 0 1-2.715.54c-.009-.01-.409-.24-1.038-.58 1.091 3.57 2.983 6.62 5.364 8.81a8.692 8.692 0 0 1-.374-1.49 1.057 1.057 0 0 1 .651-1.15c-.333-.87-.5-1.85-.5-2.95 0-3.82 2.214-6.15 6.233-6.57a1.051 1.051 0 0 1 1.103 1.38c-.434 1.31-.806 3.41-.45 4.44.655-.1 1.65-.38 1.65-1.09 0-.49.333-.92.805-1.03.473-.11.96.11 1.178.55.045.09.825 1.66 1.242 3.65.896-1.1 1.87-2.67 1.87-4.28 0-.44.274-.83.685-.99.413-.15.875-.03 1.16.31.168.19 1.642 2.06 1.642 6.57a8.291 8.291 0 0 1-1.242 4.398c.687-.414 1.341-.89 1.96-1.423 3.908-3.368 6.372-9.015 6.372-15.665 0-3.52-.271-6.38-.644-8.63-2.573 6.2-7.2 10.05-7.47 10.27-.381.31-.849.47-1.322.47-.306 0-.614-.06-.901-.2a2.113 2.113 0 0 1-1.196-1.91c0-2.67-.385-5.22-.875-7.39-1.36 2.4-2.96 3.69-3.076 3.78a2.083 2.083 0 0 1-2.773-.17c-4.54-4.57-3.103-12.8-1.723-17.6-2.277.77-4.307 1.96-5.901 3.49zM9.716 46.2c.328.197.633.423.912.676.124-.174.302-.311.519-.386l3.145-1.05c.548-.19 1.143.11 1.326.66.183.56-.114 1.15-.663 1.34l-3.094 1.033a5.874 5.874 0 0 1 .453 1.147l6.172-2.07c.548-.19 1.143.11 1.326.66.183.56-.114 1.15-.664 1.34l-6.29 2.11a.957.957 0 0 1-.35.05 5.833 5.833 0 0 1-.322 1.45l18.462-6.66c.229-.08.479-.08.707 0l18.462 6.66a5.826 5.826 0 0 1-.324-1.486 1.038 1.038 0 0 1-.272.036.957.957 0 0 1-.332-.05l-6.29-2.11c-.55-.19-.846-.78-.663-1.34a1.04 1.04 0 0 1 1.326-.66l6.291 2.11c.039.013.077.028.113.044a5.893 5.893 0 0 1 .445-1.168 1.01 1.01 0 0 1-.173-.046l-3.146-1.05a1.062 1.062 0 0 1-.663-1.34c.184-.55.776-.85 1.327-.66l3.145 1.05c.278.096.492.296.611.541a5.775 5.775 0 0 1 1.075-.831l-11.598-4.18a3.925 3.925 0 0 1-.14-.06c-.833.641-1.7 1.196-2.593 1.66-2.227 1.159-4.62 1.76-7.082 1.76-.108 0-.215-.001-.323-.003a8.905 8.905 0 0 1-2.19-.207c-2.507-.425-4.906-1.486-7.077-3.14zm18.71-3.192c.697.15 1.409.238 2.13.258 3.629-.123 6.333-2.79 6.333-6.306 0-.97-.078-1.79-.192-2.47-1.167 2.3-3.067 3.92-3.182 4.02-.312.26-.747.32-1.117.15a1.069 1.069 0 0 1-.605-.96c0-1.12-.257-2.25-.541-3.16-.935.66-2.192.89-3.028.9-.294 0-.579-.12-.781-.34-1.198-1.29-1.013-3.61-.679-5.24-1.881.62-2.799 1.99-2.799 4.16 0 1.78.54 3.07 1.651 3.95.417.34.522.93.246 1.38-.277.46-.848.63-1.331.41-.002 0-.045-.02-.122-.05a6.52 6.52 0 0 0 4.016 3.298zm26.813 4.482c-.535 0-1.068.12-1.565.36a3.645 3.645 0 0 0-1.887 2.09c-.331.93-.282 1.93.136 2.82.419.9 1.158 1.57 2.081 1.9.619.23 1.271.28 1.9.16.118-.02.234-.05.349-.08.189-.06.375-.13.557-.22l.185-.09c.511-.28.958-.68 1.293-1.18a3.781 3.781 0 0 0 .596-1.62 3.704 3.704 0 0 0-.33-2.02 3.667 3.667 0 0 0-2.076-1.9h-.001l-.14-.05c-.36-.11-.73-.17-1.098-.17zM4.868 54.35c.105.06.214.12.326.17.886.43 1.883.47 2.805.14 1.905-.68 2.9-2.8 2.218-4.72a3.648 3.648 0 0 0-1.887-2.09 3.575 3.575 0 0 0-2.666-.19l-.14.05a3.662 3.662 0 0 0-2.075 1.9c-.27.58-.387 1.19-.35 1.81.021.34.089.68.208 1.01.123.35.293.67.503.95.29.4.651.72 1.058.97zM26.096 2.89s2.277-.76 0 0z"/></symbol><symbol id="camping" viewBox="0 0 60 54"><path d="M59 21c-3.53 0-6.451-2.631-6.925-6.033A6.973 6.973 0 0 0 57 17a1 1 0 1 0 0-2c-2.757 0-5-2.243-5-5v-.026A4.948 4.948 0 0 0 55 11a1 1 0 1 0 0-2c-1.654 0-3-1.346-3-3a1 1 0 1 0-2 0c0 1.654-1.346 3-3 3a1 1 0 1 0 0 2c1.13 0 2.162-.391 3-1.026V10c0 2.757-2.243 5-5 5a1 1 0 1 0 0 2 6.973 6.973 0 0 0 4.925-2.033C49.451 18.369 46.53 21 43 21a1 1 0 1 0 0 2 8.985 8.985 0 0 0 7-3.355V24a1 1 0 1 0 2 0v-4.355A8.985 8.985 0 0 0 59 23a1 1 0 1 0 0-2M8 19.645V24a1 1 0 1 0 2 0v-4.355A8.985 8.985 0 0 0 17 23a1 1 0 1 0 0-2c-3.53 0-6.451-2.631-6.925-6.033A6.973 6.973 0 0 0 15 17a1 1 0 1 0 0-2c-2.757 0-5-2.243-5-5v-.026A4.948 4.948 0 0 0 13 11a1 1 0 1 0 0-2c-1.654 0-3-1.346-3-3a1 1 0 1 0-2 0c0 1.654-1.346 3-3 3a1 1 0 1 0 0 2c1.13 0 2.162-.391 3-1.026V10c0 2.757-2.243 5-5 5a1 1 0 1 0 0 2 6.973 6.973 0 0 0 4.925-2.033C7.451 18.369 4.53 21 1 21a1 1 0 1 0 0 2 8.985 8.985 0 0 0 7-3.355M22 18a8.985 8.985 0 0 0 7-3.355V19a1 1 0 1 0 2 0v-4.355A8.985 8.985 0 0 0 38 18a1 1 0 1 0 0-2c-3.53 0-6.451-2.631-6.925-6.033A6.973 6.973 0 0 0 36 12a1 1 0 1 0 0-2c-2.757 0-5-2.243-5-5v-.026A4.948 4.948 0 0 0 34 6a1 1 0 1 0 0-2c-1.654 0-3-1.346-3-3a1 1 0 1 0-2 0c0 1.654-1.346 3-3 3a1 1 0 1 0 0 2c1.13 0 2.162-.391 3-1.026V5c0 2.757-2.243 5-5 5a1 1 0 1 0 0 2 6.973 6.973 0 0 0 4.925-2.033C28.451 13.369 25.53 16 22 16a1 1 0 1 0 0 2M55.674 40h-8.762l-5.091-8h5.853A2.33 2.33 0 0 0 50 29.674v-2.348A2.33 2.33 0 0 0 47.674 25H13.326A2.33 2.33 0 0 0 11 27.326v2.348A2.33 2.33 0 0 0 13.326 32h5.852l-5.09 8H4.326A2.33 2.33 0 0 0 2 42.326v2.348A2.33 2.33 0 0 0 4.326 47h5.307l-2.726 4.283A1.767 1.767 0 1 0 8.398 54h4.18c.607 0 1.164-.306 1.492-.818L18.003 47h24.994l3.934 6.183c.327.511.884.817 1.491.817h4.18a1.767 1.767 0 0 0 1.491-2.718L51.368 47h4.306A2.33 2.33 0 0 0 58 44.674v-2.348A2.33 2.33 0 0 0 55.674 40zm-11.132 0h-3.63l-5.091-8h3.63l5.091 8zm-6 0H22.458l5.091-8h5.902l5.091 8zm-16.993-8h3.63l-5.091 8h-3.63l5.091-8zm-9.098 20h-3.63l3.182-5h3.63l-3.182 5zm39.728 0h-3.63l-3.182-5h3.63l3.182 5z"/></symbol><symbol id="certificate" viewBox="0 0 48 60"><path d="M46.999 60H1.998c-.552 0-1-.45-1-1V1c0-.55.448-1 1-1h31.001c.265 0 .519.1.707.29l14 14a1 1 0 0 1 .293.73V59c0 .55-.448 1-1 1zM2.998 58h43.001V16h-13c-.553 0-1-.45-1-1V2H2.998zM39.292 8.705l-5.293-5.291V14h10.586zM14.143 40.17c1.142-.6 2.154 1.13 1.009 1.72-2.171 1.13-2.275 3.71-2.348 5.88-.031.91-1.045 1.26-1.707.7-.935-.78-1.871-1.57-2.806-2.35-.99-.83.433-2.23 1.414-1.41l1.24 1.035c.269-2.26 1.008-4.436 3.198-5.575zm.987 5.1c-.568-1.15 1.156-2.17 1.727-1.01.955 1.94 2.571.28 3.936-.11 1.046-.29 2.168.17 2.688 1.1.63 1.13-1.098 2.13-1.727 1.01-.344-.62-1.86.56-2.267.71-.571.22-1.08.3-1.688.23-1.169-.13-2.155-.89-2.669-1.93 0 0 .568 1.15 0 0zM32.999 25h-7.001c-.552 0-1-.45-1-1s.448-1 1-1h7.001c.552 0 1 .45 1 1s-.448 1-1 1zm-10.001 8h-7c-.552 0-1-.45-1-1s.448-1 1-1h7a1.001 1.001 0 0 1 0 2zm-7-8h-5c-.552 0-1-.45-1-1s.448-1 1-1h5c.552 0 1 .45 1 1s-.448 1-1 1zm6-1c0 .55-.448 1-1 1s-1-.45-1-1 .448-1 1-1 1 .45 1 1zm-9 8c0 .55-.448 1-1 1s-1-.45-1-1 .448-1 1-1 1 .45 1 1zm12-16c0 .55-.448 1-1 1s-1-.45-1-1 .448-1 1-1 1 .45 1 1zm13.001 39a1 1 0 0 1-.707-.29l-3.293-3.3-3.293 3.3a1 1 0 0 1-1.09.21.994.994 0 0 1-.617-.92v-9.91a2.558 2.558 0 0 1-1.364-.73 2.606 2.606 0 0 1-.517-3 .617.617 0 0 0 .013-.51.625.625 0 0 0-.378-.36A2.617 2.617 0 0 1 24.999 37c0-1.13.688-2.11 1.754-2.49a.62.62 0 0 0 .377-.36.627.627 0 0 0-.013-.52 2.597 2.597 0 0 1 .517-2.99 2.59 2.59 0 0 1 3-.52c.224.1.422.05.519.01a.615.615 0 0 0 .358-.38A2.617 2.617 0 0 1 33.999 28c1.132 0 2.108.69 2.487 1.75.083.24.26.34.358.38.098.04.295.09.519-.01 1.022-.49 2.2-.29 3.001.52a2.61 2.61 0 0 1 .516 3 .61.61 0 0 0-.013.51c.041.1.144.28.377.36A2.617 2.617 0 0 1 42.998 37c0 1.13-.688 2.11-1.754 2.49a.625.625 0 0 0-.377.36.61.61 0 0 0 .013.51c.487 1.03.283 2.2-.517 3-.387.39-.862.64-1.364.73V54c0 .4-.244.77-.617.92a1.03 1.03 0 0 1-.383.08zM31.92 42.02c.688.29 1.227.85 1.476 1.55.136.39.467.43.603.43.135 0 .466-.04.603-.43.249-.7.787-1.26 1.475-1.55.67-.28 1.427-.27 2.087.03.057.01.104.02.151.04.041.01.081.03.119.05.263.03.438-.11.515-.19.096-.1.3-.36.125-.73a2.642 2.642 0 0 1 1.5-3.62.61.61 0 0 0 .424-.6c0-.14-.041-.47-.424-.6a2.645 2.645 0 0 1-1.555-1.48 2.637 2.637 0 0 1 .055-2.14c.175-.37-.029-.63-.125-.73a.615.615 0 0 0-.727-.13c-.673.32-1.453.34-2.143.06a2.648 2.648 0 0 1-1.478-1.56.612.612 0 0 0-.602-.42.613.613 0 0 0-.603.42c-.25.71-.788 1.27-1.477 1.56-.69.28-1.472.26-2.144-.06a.613.613 0 0 0-.726.13c-.096.1-.301.36-.126.73.321.67.341 1.45.056 2.14a2.648 2.648 0 0 1-1.555 1.48c-.384.13-.425.46-.425.6 0 .13.041.47.425.6.703.25 1.269.79 1.555 1.48.285.69.265 1.47-.055 2.14-.176.37.029.63.125.73a.61.61 0 0 0 .514.19.537.537 0 0 1 .119-.05c.05-.02.101-.03.151-.04a2.646 2.646 0 0 1 2.066-.04h.005.004l.001.01h.011zM33.999 49c.256 0 .511.1.707.29l2.293 2.3v-7.77c-.058.01-.107.03-.144.04h-.005c-.001.01-.002.01-.003.01h-.004a.625.625 0 0 0-.357.37A2.611 2.611 0 0 1 33.999 46a2.61 2.61 0 0 1-2.487-1.76.626.626 0 0 0-.358-.37.504.504 0 0 0-.155-.05v7.77l2.293-2.3c.195-.19.451-.29.707-.29z"/></symbol><symbol id="external-link" viewBox="0 0 17 16"><path d="M4.199 12.799V0h-3.2v15.998h15.999v-3.2zM8.294 1.003l.011 2.558 3.3.013-3.611 3.61L9.809 9l3.617-3.616.014 3.312 2.557.01-.021-5.115-.01-2.557-2.557-.01z"/></symbol><symbol id="facebook" viewBox="0 0 31 30"><path d="M0 0v30h30.243V0zm20.162 8.75h-2.423c-.776 0-1.357.315-1.357 1.111v1.389h3.78L19.861 15h-3.479v10h-3.781V15h-2.52v-3.75h2.52V8.846C12.601 6.319 13.942 5 16.963 5h3.199z"/></symbol><symbol id="family" viewBox="0 0 58 52"><path d="M20.346 46.3c-2.489-2.04-5.225-3.4-5.724-3.65-.561-.24-.872-.8-.872-1.36v-4.02c0-.44.188-.87.561-1.12.126-.12.25-.31.25-.49v-4.21c0-1.36-1.122-2.48-2.49-2.48h-.933a2.495 2.495 0 0 0-2.489 2.48v4.21c0 .18.061.37.248.49.312.25.561.69.561 1.12v4.02c0 .62-.372 1.11-.872 1.36-.495.25-3.234 1.61-5.724 3.65-.126.13-.249.37-.249.56v2.85c0 .68-.623 1.3-1.307 1.3-.683 0-1.306-.56-1.306-1.3v-2.85c0-1.05.434-1.98 1.245-2.6 2.178-1.73 4.479-3.03 5.601-3.65v-2.79c-.561-.55-.872-1.36-.872-2.16v-4.21c0-2.79 2.301-5.07 5.102-5.07h.933c2.801 0 5.103 2.28 5.103 5.07v4.21c0 .8-.312 1.61-.873 2.16v2.79c1.122.56 3.423 1.86 5.602 3.65.81.68 1.244 1.61 1.244 2.6v2.85c0 .68-.622 1.3-1.306 1.3s-1.306-.56-1.306-1.3v-2.85c0-.25-.127-.43-.127-.56zm35.163 3.41v-2.85c0-.25-.062-.43-.25-.56-2.49-2.04-5.225-3.4-5.724-3.65-.561-.24-.872-.8-.872-1.36v-4.02c0-.44.188-.87.561-1.12.126-.12.25-.31.25-.49v-4.21c0-1.36-1.122-2.48-2.49-2.48h-.933a2.495 2.495 0 0 0-2.49 2.48v4.21c0 .18.062.37.25.49.311.25.56.69.56 1.12v4.02c0 .62-.373 1.11-.871 1.36-.496.25-3.236 1.61-5.725 3.65-.126.13-.25.37-.25.56v2.85c0 .68-.622 1.3-1.306 1.3s-1.306-.56-1.306-1.3v-2.85c0-1.05.434-1.98 1.245-2.6 2.178-1.73 4.479-3.03 5.601-3.65v-2.79c-.561-.55-.872-1.36-.872-2.16v-4.21c0-2.79 2.302-5.07 5.102-5.07h.934c2.8 0 5.101 2.28 5.101 5.07v4.21c0 .8-.311 1.61-.872 2.16v2.79c1.122.56 3.423 1.86 5.601 3.65.811.68 1.245 1.61 1.245 2.6v2.85c0 .68-.561 1.3-1.306 1.3s-1.306-.56-1.183-1.3zM35.532 37.58l-6.473-3.72-6.473 3.72c-.249.12-.434.18-.684.18-.437 0-.872-.24-1.121-.68-.373-.62-.124-1.42.499-1.79l6.473-3.72v-7.42c0-.68.561-1.3 1.306-1.3.684 0 1.306.56 1.306 1.3v7.42l6.473 3.72c.623.37.872 1.17.5 1.79-.25.44-.687.68-1.122.68-.25 0-.434-.06-.684-.18zM23.338 5.08V9.3c0 .8.312 1.61.872 2.16v2.79a31.362 31.362 0 0 0-5.601 3.65c-.81.68-1.245 1.61-1.245 2.6v2.84a1.307 1.307 0 0 0 2.613 0V20.5c0-.25.061-.44.25-.56 2.489-2.04 5.225-3.4 5.723-3.65.561-.25.873-.8.873-1.36v-4.02c0-.44-.189-.87-.561-1.12-.126-.13-.25-.31-.25-.5V5.08c0-1.36 1.122-2.47 2.489-2.47h.934c1.368 0 2.489 1.11 2.489 2.47v4.21a.57.57 0 0 1-.249.5c-.311.25-.561.68-.561 1.11v4.03c0 .55.373 1.11.872 1.36.496.24 3.235 1.6 5.724 3.65.126.12.25.31.25.56v2.84c0 .68.622 1.3 1.306 1.3s1.306-.56 1.306-1.3V20.5c0-1.06-.434-1.98-1.244-2.6-2.179-1.74-4.48-3.04-5.601-3.65v-2.79c.56-.56.872-1.36.872-2.17V5.08c0-2.78-2.301-5.07-5.102-5.07h-.933c-2.867 0-5.106 2.23-5.226 5.07z"/></symbol><symbol id="gavel" viewBox="0 0 60 61"><path d="M44.305 35.55h-.001c-.597 0-1.158-.23-1.581-.66l-1.078-1.09a2.255 2.255 0 0 1-.613-1.155 2.217 2.217 0 0 1-1.137-.615l-1.248-1.26c-.38-.38-.588-.89-.584-1.44.003-.54.217-1.05.603-1.43l-1.614-1.6a.761.761 0 0 0-1.05 0l-7.253 7.33.707.71c.567.58.879 1.34.879 2.15 0 .81-.313 1.57-.879 2.14a2.977 2.977 0 0 1-4.243 0l-.707-.71-9.068 9.16c-.528.53-.903 1.2-1.084 1.93l-.726 2.94a6.257 6.257 0 0 1-1.609 2.87l-.328.33a6.13 6.13 0 0 1-4.327 1.81 6.135 6.135 0 0 1-4.328-1.81l-1.243-1.26A6.25 6.25 0 0 1 0 49.52c0-1.65.637-3.21 1.793-4.37l.323-.33a6.065 6.065 0 0 1 2.845-1.63l2.905-.73a4.133 4.133 0 0 0 1.915-1.1l9.068-9.16-.707-.71a3.06 3.06 0 0 1 0-4.29 2.976 2.976 0 0 1 4.243 0l.707.72 7.253-7.33c.14-.14.218-.33.218-.53s-.078-.39-.218-.53l-1.596-1.61c-.369.38-.863.59-1.393.59a2.04 2.04 0 0 1-1.435-.59l-1.247-1.26a2.28 2.28 0 0 1-.61-1.153 2.184 2.184 0 0 1-1.14-.617l-1.078-1.09a2.284 2.284 0 0 1 0-3.2l8.856-8.94a2.217 2.217 0 0 1 3.164 0l1.079 1.09c.317.314.527.713.612 1.145a2.26 2.26 0 0 1 1.138.615l1.246 1.26c.382.39.589.9.586 1.45a2.017 2.017 0 0 1-.604 1.43l9.917 9.98c.368-.38.863-.59 1.393-.6h.013c.529 0 1.047.22 1.422.6l1.248 1.26c.322.326.525.727.61 1.147a2.21 2.21 0 0 1 1.139.623l1.079 1.09c.872.88.872 2.31.001 3.19l-8.858 8.95c-.422.43-.984.66-1.582.66zm-2.67-4.94a2.59 2.59 0 0 1 .01-.01l8.856-8.94a.244.244 0 0 0 0-.34l-1.246-1.26c-.359.37-.862.59-1.401.59-.537.02-1.045-.21-1.427-.59l-9.9-10a2.05 2.05 0 0 1-.589-1.45c.002-.54.212-1.04.588-1.41l-1.245-1.26c-.117-.11-.221-.11-.336 0l-8.857 8.95-.008.008a.243.243 0 0 0 .009.332l1.245 1.26c.36-.37.864-.59 1.402-.59.55-.02 1.046.2 1.427.59l1.596 1.61c.518.52.803 1.22.803 1.96s-.285 1.43-.804 1.96l-8.666 8.75-2.121-2.14a.996.996 0 0 0-.708-.3.996.996 0 0 0-.707.3 1.02 1.02 0 0 0 0 1.43l2.121 2.14-10.482 10.59a6.123 6.123 0 0 1-2.844 1.63l-2.904.73c-.723.18-1.386.56-1.916 1.1l-.323.32A4.227 4.227 0 0 0 2 49.52c0 1.09.44 2.17 1.207 2.94l1.243 1.26a4.15 4.15 0 0 0 2.914 1.22 4.15 4.15 0 0 0 2.914-1.22l.327-.33a4.21 4.21 0 0 0 1.083-1.93l.726-2.94a6.152 6.152 0 0 1 1.61-2.87l10.482-10.59 2.121 2.14a1.02 1.02 0 0 0 1.415 0 1.02 1.02 0 0 0 0-1.43l-2.123-2.14 8.669-8.76a2.723 2.723 0 0 1 3.878 0l1.596 1.62c.378.38.593.91.59 1.45a1.968 1.968 0 0 1-.59 1.4l1.247 1.26c.089.096.233.1.326.01zM60 61H37v-1.01c0-3.9 3.14-7.07 7-7.07h9c3.86 0 7 3.17 7 7.07zM32.284 3.01a.269.269 0 0 0-.168.07l-8.856 8.95a.243.243 0 0 0 0 .34l1.078 1.09c.112.117.215.12.326.01l.01-.01 8.857-8.95.016-.016a.229.229 0 0 0 .054-.154c0-.04-.013-.11-.07-.17l-1.079-1.09a.267.267 0 0 0-.168-.07zm19.799 20a.267.267 0 0 0-.168.07l-8.856 8.95a.247.247 0 0 0-.07.17c0 .05.012.11.07.17l1.079 1.09c.057.06.122.07.167.07.045 0 .11-.01.167-.07l8.858-8.95a.244.244 0 0 0 0-.34l-1.079-1.09a.267.267 0 0 0-.168-.07zM39.101 58.98h18.798c-.464-2.31-2.484-4.04-4.899-4.04h-9c-2.415 0-4.435 1.73-4.899 4.04zM55 51.91H42c-.552 0-1-.46-1-1.01 0-.56.448-1.01 1-1.01h13c.552 0 1 .45 1 1.01 0 .55-.448 1.01-1 1.01z"/></symbol><symbol id="id-card" viewBox="0 0 65 48"><path d="M60.432 48H4.568C2.049 48 0 45.94 0 43.4V4.6C0 2.06 2.049 0 4.568 0h55.864C62.951 0 65 2.06 65 4.6v38.8c0 2.54-2.049 4.6-4.568 4.6zM4.568 2.18c-1.324 0-2.401 1.09-2.401 2.42v38.8c0 1.33 1.077 2.42 2.401 2.42h55.864c1.324 0 2.401-1.09 2.401-2.42V4.6c0-1.33-1.077-2.42-2.401-2.42zM16.25 39.27c-10.833 0-10.833-2.05-10.833-2.92V34.9c0-1.71.926-3.28 2.417-4.1l4.083-2.02v-.42c-1.764-.96-3.004-2.56-3.697-4.76a3.244 3.244 0 0 1-1.72-2.87v-1.09c0-1 .459-1.94 1.229-2.55.146-1.04.401-2.01.76-2.89.16-.39.296-.69.407-.93.294-.63.294-.63.084-1.7-.09-.45-.163-.93-.217-1.4a1.29 1.29 0 0 1 .792-1.36 1.276 1.276 0 0 1 1.521.4c.215.28.548.57.992.87 1.186.8 2.554.88 3.494.81.221-.02.453-.03.688-.03 4.969 0 7.827 2.09 8.503 6.21A3.28 3.28 0 0 1 26 19.64v1.09c0 1.22-.671 2.31-1.72 2.87-.693 2.2-1.933 3.8-3.697 4.76v.43l3.941 2.02c1.579.8 2.559 2.4 2.559 4.18v1.36c0 .87 0 2.92-10.833 2.92zM7.583 36.1c.566.34 2.864.99 8.667.99s8.101-.65 8.667-.99v-1.11c0-.95-.524-1.8-1.366-2.23h-.009l-4.081-2.1a1.922 1.922 0 0 1-1.044-1.72v-1.26c0-.43.257-.83.655-1 1.643-.71 2.711-2.07 3.265-4.16.096-.36.37-.65.725-.76.454-.14.771-.57.771-1.03v-1.09c0-.4-.226-.77-.589-.96a1.094 1.094 0 0 1-.571-.84c-.386-3.32-2.367-4.8-6.423-4.8-.174 0-.346.01-.513.02-1.662.13-3.195-.18-4.468-.92.092.85-.041 1.26-.408 2.05-.1.22-.223.48-.367.84-.341.83-.567 1.78-.673 2.8-.037.36-.25.68-.569.85-.361.19-.585.56-.585.96v1.09c0 .46.317.89.771 1.03.355.11.629.4.725.76.554 2.09 1.622 3.45 3.265 4.16.398.17.655.57.655 1v1.25c0 .74-.409 1.41-1.068 1.73l-4.184 2.08c-.754.41-1.248 1.25-1.248 2.16zm48.75-13.19H32.5c-.598 0-1.083-.49-1.083-1.09 0-.6.485-1.09 1.083-1.09h23.833c.599 0 1.084.49 1.084 1.09 0 .6-.485 1.09-1.084 1.09zm-13-6.55H32.5c-.598 0-1.083-.48-1.083-1.09 0-.6.485-1.09 1.083-1.09h10.833c.599 0 1.084.49 1.084 1.09 0 .61-.485 1.09-1.084 1.09zm-3.25 18.55h-2.166c-.599 0-1.084-.49-1.084-1.09 0-.6.485-1.09 1.084-1.09h2.166c.599 0 1.084.49 1.084 1.09 0 .6-.485 1.09-1.084 1.09zm11.917 0h-2.167c-.598 0-1.083-.49-1.083-1.09 0-.6.485-1.09 1.083-1.09H52c.598 0 1.083.49 1.083 1.09 0 .6-.485 1.09-1.083 1.09zm-3.25-18.55h-1.083c-.599 0-1.084-.48-1.084-1.09 0-.6.485-1.09 1.084-1.09h1.083c.598 0 1.083.49 1.083 1.09 0 .61-.485 1.09-1.083 1.09zM33.583 34.91H32.5c-.598 0-1.083-.49-1.083-1.09 0-.6.485-1.09 1.083-1.09h1.083c.599 0 1.084.49 1.084 1.09 0 .6-.485 1.09-1.084 1.09zm11.917 0h-1.083c-.599 0-1.084-.49-1.084-1.09 0-.6.485-1.09 1.084-1.09H45.5c.598 0 1.083.49 1.083 1.09 0 .6-.485 1.09-1.083 1.09zm10.833-5.46H32.5c-.598 0-1.083-.48-1.083-1.09 0-.6.485-1.09 1.083-1.09h23.833c.599 0 1.084.49 1.084 1.09 0 .61-.485 1.09-1.084 1.09z"/></symbol><symbol id="instagram" viewBox="0 0 31 30"><path d="M31 0v30H.757V0zM19.952 6.86c-1.062-.047-1.382-.057-4.074-.057-2.691 0-3.01.01-4.074.058-2.734.123-4.007 1.409-4.131 4.099-.048 1.054-.06 1.37-.06 4.04s.012 2.986.061 4.043c.123 2.683 1.392 3.974 4.132 4.098 1.061.048 1.381.058 4.072.058 2.693 0 3.012-.011 4.076-.059 2.734-.123 4.006-1.411 4.132-4.099.048-1.055.058-1.371.058-4.041 0-2.67-.01-2.986-.058-4.04-.126-2.69-1.402-3.976-4.134-4.1zm-4.074 13.275c-2.858 0-5.176-2.299-5.176-5.135s2.317-5.135 5.176-5.135c2.858 0 5.177 2.299 5.177 5.135s-2.317 5.135-5.177 5.135zm0-8.469c-1.856 0-3.36 1.493-3.36 3.334 0 1.843 1.504 3.334 3.36 3.334 1.857 0 3.361-1.493 3.361-3.334s-1.504-3.334-3.361-3.334zm5.381-.804c-.668 0-1.21-.537-1.21-1.2 0-.662.542-1.199 1.21-1.199.668 0 1.21.537 1.21 1.199 0 .663-.541 1.2-1.21 1.2zm4.7 4.138c0-2.715-.011-3.056-.06-4.122-.165-3.628-2.199-5.65-5.863-5.817C18.959 5.011 18.617 5 15.878 5c-2.738 0-3.079.011-4.155.06-3.662.166-5.696 2.181-5.865 5.816-.049 1.068-.061 1.409-.061 4.124 0 2.716.012 3.056.061 4.122.169 3.633 2.2 5.652 5.865 5.818 1.076.049 1.417.06 4.155.06 2.739 0 3.081-.011 4.158-.06 3.656-.166 5.698-2.181 5.863-5.818.049-1.066.06-1.406.06-4.122z"/></symbol><symbol id="laptop" viewBox="0 0 36 30"><path d="M33 0H3v19.5h30zm-3 16.5H6V3h24zm3 4.5H3l-3 9h36zm-18.342 7.5l.699-1.5h5.286l.699 1.5z"/></symbol><symbol id="linkedin" viewBox="0 0 31 30"><path d="M.564 0v30h30.243V0zm10.081 23.75H6.864V10h3.781zM8.754 8.415a2.206 2.206 0 1 1 .002-4.412 2.206 2.206 0 0 1-.002 4.412zM25.766 23.75h-3.78v-7.005c0-4.21-5.041-3.891-5.041 0v7.005h-3.78V10h3.78v2.206c1.761-3.232 8.821-3.471 8.821 3.095z"/></symbol><symbol id="login" viewBox="0 0 20 16"><path d="M6.67 5.6V2.4L13.33 8l-6.66 5.6v-3.2H0V5.6zM8.33 0v1.6h10v12.8h-10V16H20V0z"/></symbol><symbol id="mail" viewBox="0 0 32 24"><path d="M16 12.95L.02 0h31.961zM0 20.08V3.42l8.767 7.1zM32 3.42v16.66l-8.767-9.56zM21.157 12.2L16 16.38l-5.157-4.18L.029 24h31.942z"/></symbol><symbol id="map" viewBox="0 0 24 24"><path d="M0 20.21V1.26l8.211 3.79L15.789 0 24 3.79v18.95l-8.211-3.79L8.211 24zM15.158 3.16v13.89h1.895V3.16zM6.947 6.95v13.89h1.895V6.95z"/></symbol><symbol id="phone" viewBox="0 0 33 37"><path d="M20.841 35.51C9.798 40.57-7.343 7.19 3.451 1.56L6.609 0l5.235 10.23-3.121 1.54c-3.281 1.77 3.553 15.14 6.909 13.51.136-.06 3.083-1.51 3.094-1.52l5.278 10.2c-.012.01-2.982 1.47-3.163 1.55zm.399-29.23a9.49 9.49 0 0 1 6.376 11.81l-2.69-.8a6.681 6.681 0 0 0-.528-5.09 6.65 6.65 0 0 0-3.962-3.22zM19.838 11a4.542 4.542 0 0 1 2.71 2.21c.6 1.11.694 2.35.36 3.48l-4.373-1.31zm2.003-6.74c2.84.85 5.359 2.78 6.881 5.6 1.52 2.82 1.757 5.99.912 8.83l2.758.83a14.45 14.45 0 0 0-1.141-11.03 14.41 14.41 0 0 0-8.587-6.99z"/></symbol><symbol id="pig-bank" viewBox="0 0 52 60"><path d="M26 54.92c-1.579 0-3.115-.185-4.588-.533v2.073c3.039.65 6.137.65 9.176 0v-2.073c-1.473.348-3.01.533-4.588.533zm-4.588 3.615v.125c0 .74-.605 1.34-1.348 1.34H12.25a3.07 3.07 0 0 1-3.073-3.07v-4.708C3.339 46.789 0 38.91 0 30.51c0-4.516.94-8.832 2.794-12.844l-.49-3.546 2.08.2.004-.01.001.01.212.02c2.793-4.338 6.875-7.085 12.446-8.368A9.7 9.7 0 0 1 26 0a9.7 9.7 0 0 1 8.953 5.972c5.571 1.283 9.653 4.03 12.446 8.368l.212-.02.001-.01.005.01 2.079-.2-.49 3.546C51.06 21.678 52 25.994 52 30.51c0 8.4-3.339 16.278-9.176 21.71v4.53c0 1.79-1.46 3.25-3.254 3.25h-7.647c-.736 0-1.335-.6-1.335-1.33v-.135a23.868 23.868 0 0 1-9.176 0zM6.118 35.08c0-2.509.47-4.91 1.326-7.122l-.43-1.148c-.408-1.09-1.055-1.92-1.739-2.81-.637-.83-1.289-1.67-1.735-2.72-.997 2.94-1.501 6.03-1.501 9.23 0 7.14 2.576 13.87 7.138 18.82v-3.686A19.692 19.692 0 0 1 6.118 35.08zm.785-20.487c2.827.462 5.075 1.677 7.442 2.957.403.219.81.437 1.222.656A19.798 19.798 0 0 1 26 15.25c3.823 0 7.398 1.083 10.433 2.956.414-.219.82-.437 1.222-.656 2.367-1.28 4.616-2.496 7.443-2.957-2.276-3.115-5.411-5.213-9.518-6.362a9.44 9.44 0 0 1-.264 4.04c.895.559 1.709 1.198 2.42 1.909.398.39.398 1.04 0 1.43a1.014 1.014 0 0 1-1.442 0 11.834 11.834 0 0 0-2.164-1.684l-.541-.296c-1.938-1.07-4.209-1.74-6.566-1.93l-.03-.003a17.96 17.96 0 0 0-1.428-.057h-.016c-.12 0-.24.001-.359.004-.142.006-.284.015-.426.026-1.749.08-3.36.39-4.822.93-.523.19-1.053.43-1.666.75l-.54.277a12.269 12.269 0 0 0-2.478 1.903c-.398.4-1.044.4-1.442.01-.399-.4-.4-1.05-.003-1.44.828-.828 1.76-1.55 2.78-2.159a9.477 9.477 0 0 1-.173-3.71c-4.107 1.15-7.243 3.247-9.517 6.362zm40.621 8.335c-.258.37-.53.722-.799 1.072-.684.89-1.331 1.72-1.739 2.81l-.43 1.148a19.68 19.68 0 0 1 1.326 7.122c0 3.88-1.122 7.502-3.058 10.563v3.687c4.561-4.95 7.137-11.68 7.137-18.82 0-3.2-.504-6.29-1.501-9.22a9.126 9.126 0 0 1-.936 1.638zM26 17.29a17.778 17.778 0 0 0-9.799 2.929 17.956 17.956 0 0 0-5.345 5.462 17.84 17.84 0 0 0-1.372 2.679l-.17.415a17.658 17.658 0 0 0-1.157 6.305c0 3.415.968 6.607 2.644 9.32 3.145 5.085 8.782 8.48 15.199 8.48 6.416 0 12.051-3.393 15.196-8.477a17.665 17.665 0 0 0 2.647-9.323c0-2.22-.41-4.345-1.157-6.305l-.17-.415a17.84 17.84 0 0 0-1.372-2.68A17.956 17.956 0 0 0 35.8 20.22 17.778 17.778 0 0 0 26 17.29zm.51 33.56c-5.06 0-9.177-4.11-9.177-9.16 0-5.04 4.117-9.15 9.177-9.15 5.059 0 9.176 4.11 9.176 9.15 0 5.05-4.117 9.16-9.176 9.16zm0-16.27c-3.936 0-7.137 3.19-7.137 7.11 0 3.93 3.201 7.12 7.137 7.12 3.935 0 7.137-3.19 7.137-7.12 0-3.92-3.202-7.11-7.137-7.11zm.268-24.943c.134.01.267.023.4.038a19.858 19.858 0 0 1 2.87.447 18.21 18.21 0 0 1 3.418 1.156c.12-.536.181-1.072.181-1.618 0-.83-.142-1.67-.423-2.48l-.103-.299C32.005 4.047 29.234 2.03 26 2.03c-3.226 0-5.993 2.009-7.114 4.834l-.109.316a7.552 7.552 0 0 0-.424 2.48c0 .45.04.888.12 1.328 1.948-.827 4.128-1.296 6.444-1.368a13.203 13.203 0 0 1 1.86.017zM11.216 56.93c0 .57.464 1.04 1.034 1.04h7.123v-4.18a19.933 19.933 0 0 1-8.157-5.46zm28.354 1.04c.67 0 1.214-.55 1.214-1.22v-8.42a19.933 19.933 0 0 1-8.157 5.46v4.18zM23.961 42.71c-.841 0-1.53-.68-1.53-1.52s.689-1.53 1.53-1.53c.841 0 1.529.69 1.529 1.53 0 .84-.688 1.52-1.529 1.52zm5.098 0c-.841 0-1.53-.68-1.53-1.52s.689-1.53 1.53-1.53c.841 0 1.529.69 1.529 1.53 0 .84-.688 1.52-1.529 1.52zm3.059-13.22c-.841 0-1.53-.69-1.53-1.52 0-.84.689-1.53 1.53-1.53.841 0 1.529.69 1.529 1.53 0 .83-.688 1.52-1.529 1.52zm-11.216 0c-.841 0-1.529-.69-1.529-1.52 0-.84.688-1.53 1.529-1.53s1.529.69 1.529 1.53c0 .83-.688 1.52-1.529 1.52z"/></symbol><symbol id="profile" viewBox="0 0 32 32"><path d="M27.754 24.13c-4.582-1.06-8.847-1.99-6.782-5.89C27.261 6.35 22.639 0 16 0 9.229 0 4.723 6.6 11.028 18.24c2.127 3.92-2.299 4.85-6.782 5.89-4.094.94-4.247 2.98-4.234 6.54L.018 32H31.98l.005-1.29c.016-3.59-.123-5.63-4.231-6.58z"/></symbol><symbol id="quote" viewBox="0 0 55 46"><path d="M.99 45.99h22.43V22.915H12.29L23.42.008h-8.64L.99 22.915zm32.07-23.075L46.35.008h8.64L43.52 22.915h11.47V45.99H33.06z"/></symbol><symbol id="restore" viewBox="0 0 20 15"><path d="M7.5 7.5l-3.72 4.14L0 7.5h2.5C2.5 3.358 5.86 0 10 0c2 0 3.8.785 5.15 2.057l-1.67 1.859A4.983 4.983 0 0 0 10 2.5c-2.76 0-5 2.243-5 5zm8.72-4.14L12.5 7.5H15c0 2.757-2.24 5-5 5-1.35 0-2.58-.542-3.48-1.416l-1.67 1.859A7.472 7.472 0 0 0 10 15c4.14 0 7.5-3.358 7.5-7.5H20z"/></symbol><symbol id="search" viewBox="0 0 20 20"><path d="M19.99 17.4l-5.33-5.295a7.803 7.803 0 0 0 1.23-4.216C15.89 3.54 12.33 0 7.95 0 3.57 0 .01 3.54.01 7.89c0 4.351 3.56 7.891 7.94 7.891 1.48 0 2.87-.406 4.06-1.111L17.38 20zM2.97 7.89c0-2.728 2.23-4.948 4.98-4.948 2.75 0 4.98 2.22 4.98 4.948 0 2.729-2.23 4.949-4.98 4.949-2.75 0-4.98-2.22-4.98-4.949z"/></symbol><symbol id="server-rack" viewBox="0 0 52 52"><path d="M0 52V0h52v52zM18.571 1.86v48.28h14.858V1.86zM1.857 50.14h14.857V1.86H1.857zm48.286 0V1.86H35.286v48.28zm-35.286-26H3.714V3.71h11.143zm33.429 0H37.143V3.71h11.143zm-16.715 0H20.429V3.71h11.142zM9.286 47.36a5.578 5.578 0 0 1-5.572-5.57c0-3.08 2.5-5.58 5.572-5.58a5.58 5.58 0 0 1 5.571 5.58c0 3.07-2.499 5.57-5.571 5.57zm16.714 0a5.578 5.578 0 0 1-5.571-5.57A5.58 5.58 0 0 1 26 36.21a5.58 5.58 0 0 1 5.571 5.58c0 3.07-2.499 5.57-5.571 5.57zM5.571 22.29H13V5.57H5.571zm33.429 0h7.429V5.57H39zm-16.714 0h7.428V5.57h-7.428zm-13 15.78a3.723 3.723 0 0 0-3.715 3.72 3.72 3.72 0 0 0 3.715 3.71A3.72 3.72 0 0 0 13 41.79c0-2.05-1.666-3.72-3.714-3.72zm16.714 0a3.722 3.722 0 0 0-3.714 3.72A3.72 3.72 0 0 0 26 45.5a3.72 3.72 0 0 0 3.714-3.71c0-2.05-1.666-3.72-3.714-3.72zm16.714 9.29a5.578 5.578 0 0 1-5.571-5.57 5.58 5.58 0 0 1 5.571-5.58 5.58 5.58 0 0 1 5.572 5.58c0 3.07-2.499 5.57-5.572 5.57zm0-9.29A3.722 3.722 0 0 0 39 41.79a3.72 3.72 0 0 0 3.714 3.71 3.72 3.72 0 0 0 3.715-3.71c0-2.05-1.667-3.72-3.715-3.72z"/></symbol><symbol id="settings" viewBox="0 0 16 16"><path d="M16 9.077V6.923c-1.101-.392-1.795-.502-2.146-1.346v-.001c-.351-.847.067-1.423.565-2.471L12.895 1.58c-1.04.495-1.622.917-2.471.565h-.001c-.846-.35-.956-1.05-1.346-2.146H6.923c-.388 1.09-.5 1.795-1.346 2.146h-.001c-.847.352-1.421-.065-2.471-.565L1.581 3.105c.497 1.045.917 1.622.565 2.471-.351.847-1.056.959-2.146 1.347v2.154c1.088.387 1.795.5 2.146 1.346.353.855-.076 1.444-.565 2.472l1.524 1.524c1.041-.496 1.622-.917 2.471-.565h.001c.846.35.957 1.053 1.346 2.146h2.154c.388-1.09.5-1.793 1.352-2.148.842-.35 1.414.067 2.466.567l1.523-1.524c-.495-1.042-.917-1.622-.565-2.47.351-.848 1.058-.96 2.147-1.348zm-8 2.256a3.333 3.333 0 1 1 0-6.666 3.333 3.333 0 0 1 0 6.666zM10 8c0 1.103-.897 2-2 2s-2-.897-2-2 .897-2 2-2 2 .897 2 2z"/></symbol><symbol id="twitter" viewBox="0 0 32 30"><path d="M.79 0v30h30.243V0zm23.768 11.546c.262 5.772-4.076 12.207-11.757 12.207-2.336 0-4.51-.679-6.341-1.844a8.373 8.373 0 0 0 6.124-1.699 4.136 4.136 0 0 1-3.863-2.85 4.2 4.2 0 0 0 1.867-.07c-1.989-.396-3.362-2.174-3.317-4.075a4.15 4.15 0 0 0 1.872.514 4.09 4.09 0 0 1-1.28-5.479 11.78 11.78 0 0 0 8.526 4.288c-.604-2.567 1.359-5.038 4.03-5.038 1.189 0 2.264.498 3.019 1.296a8.328 8.328 0 0 0 2.627-.995 4.115 4.115 0 0 1-1.818 2.27c.837-.1 1.634-.32 2.375-.646a8.405 8.405 0 0 1-2.064 2.121z"/></symbol><symbol id="youtube" viewBox="0 0 31 30"><path d="M.194 0v30h30.243V0zm12.601 11.666l6.72 3.328-6.72 3.34zm8.916 10.68c-3.028.205-9.771.204-12.794 0-3.276-.221-3.658-2.192-3.683-7.346.025-5.162.411-7.125 3.685-7.346 3.023-.204 9.766-.205 12.794 0 3.276.221 3.658 2.192 3.683 7.346-.025 5.163-.411 7.125-3.685 7.346z"/></symbol></svg>